M48
;Layer_Color=9474304
;FILE_FORMAT=4:4
METRIC,LZ
;TYPE=PLATED
T1F00S00C0.7000
T2F00S00C0.8000
T3F00S00C0.8500
T4F00S00C0.9000
T5F00S00C0.9500
T6F00S00C1.0000
T7F00S00C1.0200
T8F00S00C1.1000
T9F00S00C2.3000
%
T01
X002Y000475
Y000975
X0024Y00095
Y0007
X0043Y000775
Y001025
X0047Y00115
Y00065
X00555Y0025
X005475Y0029
X005725
X00605Y0025
X0047Y002025
Y001525
X0043Y001575
Y001825
T02
X0054Y00055
Y0009
X005275Y001525
Y001875
T03
X0005Y00025
X0009
Y00115
X0005
X002Y00115
X00275Y0009
Y0006
X00365
Y0009
X0039Y00125
Y00035
X0068Y00065
Y00155
X0065Y00165
Y00255
X00695Y0029
X00605
X00525Y0024
X00435
X0039Y00235
X00385Y0026
Y0029
X00295
Y0026
X002Y00205
X0039Y00145
T04
X002869Y001219
X003123
X003377
X003631
X0063Y001354
Y000846
X003631Y001981
X003377
X003123
X002869
T05
X00067206Y001473
X00079906Y0016
X00067206Y001727
T06
X0058Y001345
Y001855
T07
X001248Y0003
X001502
X0071Y002175
X002425Y00215
T08
X005992Y0003
X006246
X0065
X006754
X002627Y0016
X002373
T09
X0072Y0016
X0002
M30
