G04*
G04 #@! TF.GenerationSoftware,Altium Limited,Altium Designer,23.5.1 (21)*
G04*
G04 Layer_Color=65535*
%FSLAX44Y44*%
%MOMM*%
G71*
G04*
G04 #@! TF.SameCoordinates,231D9C50-7758-4538-8D20-5E9162DCA36C*
G04*
G04*
G04 #@! TF.FilePolarity,Positive*
G04*
G01*
G75*
%ADD10C,0.2000*%
%ADD11C,0.2500*%
%ADD12C,0.6000*%
%ADD13C,0.1500*%
%ADD14C,0.2540*%
%ADD15C,0.5000*%
G36*
X75441Y315735D02*
X76323D01*
Y315441D01*
X77206D01*
Y315147D01*
X78088D01*
Y314853D01*
X78677D01*
Y314559D01*
X79265D01*
Y314265D01*
X80147D01*
Y313971D01*
X80735D01*
Y313676D01*
X81323D01*
Y313382D01*
X81912D01*
Y313088D01*
X82500D01*
Y312794D01*
X83382D01*
Y312500D01*
X83971D01*
Y312206D01*
X84559D01*
Y311912D01*
X85147D01*
Y311618D01*
X86029D01*
Y311324D01*
X86618D01*
Y311029D01*
X87206D01*
Y310735D01*
X87794D01*
Y310441D01*
X88382D01*
Y310147D01*
X88971D01*
Y309853D01*
X89853D01*
Y309559D01*
X90441D01*
Y309265D01*
X91029D01*
Y308971D01*
X91618D01*
Y308676D01*
X92500D01*
Y308382D01*
X93088D01*
Y308088D01*
X93677D01*
Y307794D01*
X93971D01*
Y307500D01*
X94559D01*
Y307206D01*
X94853D01*
Y306618D01*
X95147D01*
Y306029D01*
X95441D01*
Y304853D01*
X95735D01*
Y298971D01*
X95441D01*
Y295441D01*
X96029D01*
Y295735D01*
X97500D01*
Y295441D01*
X98382D01*
Y295147D01*
X99265D01*
Y294853D01*
X100441D01*
Y294559D01*
X101323D01*
Y294265D01*
X102206D01*
Y293971D01*
X103382D01*
Y293676D01*
X104265D01*
Y293382D01*
X105441D01*
Y293088D01*
X106323D01*
Y292794D01*
X107206D01*
Y292500D01*
X108382D01*
Y292206D01*
X109265D01*
Y291912D01*
X110147D01*
Y291618D01*
X111324D01*
Y291324D01*
X112206D01*
Y291029D01*
X113382D01*
Y290735D01*
X114265D01*
Y290441D01*
X115441D01*
Y290147D01*
X116323D01*
Y289853D01*
X117206D01*
Y289559D01*
X118382D01*
Y289265D01*
X119265D01*
Y288971D01*
X120441D01*
Y288676D01*
X121323D01*
Y288382D01*
X122206D01*
Y288088D01*
X123382D01*
Y287794D01*
X124265D01*
Y287500D01*
X125441D01*
Y287206D01*
X125735D01*
Y286912D01*
X126029D01*
Y286618D01*
X126323D01*
Y286324D01*
X126912D01*
Y286029D01*
X127206D01*
Y285735D01*
X127500D01*
Y285441D01*
X127794D01*
Y285147D01*
X128088D01*
Y284853D01*
X128677D01*
Y284559D01*
X128971D01*
Y284265D01*
X129265D01*
Y283971D01*
X129559D01*
Y283676D01*
X129853D01*
Y283382D01*
X130441D01*
Y283088D01*
X130735D01*
Y282794D01*
X131029D01*
Y282500D01*
X131323D01*
Y282206D01*
X131912D01*
Y281912D01*
X132206D01*
Y281618D01*
X132500D01*
Y281324D01*
X132794D01*
Y281029D01*
X133088D01*
Y280735D01*
X133677D01*
Y280441D01*
X133971D01*
Y280147D01*
X134265D01*
Y279853D01*
X134559D01*
Y279559D01*
X134853D01*
Y279265D01*
X135441D01*
Y278971D01*
X135735D01*
Y278676D01*
X136029D01*
Y278382D01*
X136324D01*
Y278088D01*
X136912D01*
Y277794D01*
X137206D01*
Y277206D01*
X137500D01*
Y276912D01*
X137794D01*
Y276324D01*
X138088D01*
Y275735D01*
X138382D01*
Y275441D01*
X138677D01*
Y274853D01*
X138971D01*
Y274559D01*
X139265D01*
Y273971D01*
X139559D01*
Y273676D01*
X139853D01*
Y273088D01*
X140147D01*
Y272794D01*
X140441D01*
Y272500D01*
X140735D01*
Y271912D01*
X141029D01*
Y271618D01*
X141323D01*
Y271029D01*
X141618D01*
Y270735D01*
X142500D01*
Y270441D01*
X157500D01*
Y270735D01*
X157794D01*
Y270441D01*
X158088D01*
Y270147D01*
X158382D01*
Y269559D01*
X158677D01*
Y268971D01*
X158971D01*
Y268676D01*
X159559D01*
Y268382D01*
X159853D01*
Y268676D01*
X161618D01*
Y268382D01*
X162206D01*
Y268676D01*
X162500D01*
Y268382D01*
X163088D01*
Y268676D01*
X163971D01*
Y268382D01*
X164265D01*
Y268676D01*
X171324D01*
Y268382D01*
X171912D01*
Y268676D01*
X172206D01*
Y268382D01*
X172500D01*
Y268676D01*
X172794D01*
Y268382D01*
X173971D01*
Y268676D01*
X174265D01*
Y268382D01*
X175147D01*
Y268676D01*
X175735D01*
Y268382D01*
X176029D01*
Y268676D01*
X176324D01*
Y268382D01*
X177500D01*
Y268676D01*
X187794D01*
Y268382D01*
X188088D01*
Y268676D01*
X188382D01*
Y268382D01*
X188971D01*
Y268676D01*
X189559D01*
Y268382D01*
X189853D01*
Y268676D01*
X190735D01*
Y268382D01*
X191029D01*
Y268676D01*
X191618D01*
Y268382D01*
X193382D01*
Y268676D01*
X193971D01*
Y268382D01*
X194265D01*
Y268676D01*
X194559D01*
Y268382D01*
X194853D01*
Y268676D01*
X195147D01*
Y268382D01*
X196029D01*
Y268676D01*
X196618D01*
Y268382D01*
X197794D01*
Y268676D01*
X198676D01*
Y268382D01*
X199559D01*
Y268676D01*
X202206D01*
Y268382D01*
X202794D01*
Y268676D01*
X205147D01*
Y268382D01*
X206618D01*
Y268088D01*
X207794D01*
Y267794D01*
X209265D01*
Y267500D01*
X210735D01*
Y267206D01*
X211912D01*
Y266912D01*
X212500D01*
Y266618D01*
X212794D01*
Y266324D01*
X213088D01*
Y266029D01*
X213382D01*
Y265735D01*
X213676D01*
Y265441D01*
X213971D01*
Y265147D01*
X214265D01*
Y264853D01*
X214559D01*
Y264559D01*
X214853D01*
Y264265D01*
X215147D01*
Y263971D01*
X215441D01*
Y270735D01*
X215147D01*
Y271029D01*
X214853D01*
Y271324D01*
X214559D01*
Y271618D01*
X214265D01*
Y271912D01*
X213971D01*
Y272206D01*
X213676D01*
Y272500D01*
X213382D01*
Y272794D01*
X213088D01*
Y273088D01*
X212794D01*
Y273382D01*
X212500D01*
Y273676D01*
X212206D01*
Y273971D01*
X211912D01*
Y274265D01*
X211618D01*
Y274559D01*
X211324D01*
Y274853D01*
X211029D01*
Y275147D01*
X210735D01*
Y275441D01*
X210441D01*
Y276029D01*
X210147D01*
Y276324D01*
X209853D01*
Y276618D01*
X209559D01*
Y276912D01*
X209265D01*
Y277206D01*
X208971D01*
Y277500D01*
X208676D01*
Y277794D01*
X208382D01*
Y278088D01*
X208088D01*
Y278382D01*
X207794D01*
Y278676D01*
X207500D01*
Y279559D01*
X211029D01*
Y279265D01*
X214853D01*
Y278971D01*
X218971D01*
Y278676D01*
X219265D01*
Y278971D01*
X219853D01*
Y278676D01*
X220441D01*
Y278382D01*
X220735D01*
Y278088D01*
X221324D01*
Y277794D01*
X221618D01*
Y277500D01*
X221912D01*
Y277206D01*
X222500D01*
Y276912D01*
X222794D01*
Y276618D01*
X223382D01*
Y276324D01*
X223676D01*
Y276029D01*
X223971D01*
Y275735D01*
X224559D01*
Y275441D01*
X224853D01*
Y275147D01*
X225441D01*
Y274853D01*
X225735D01*
Y274559D01*
X226029D01*
Y274265D01*
X226618D01*
Y273971D01*
X226912D01*
Y273676D01*
X227206D01*
Y273382D01*
X227794D01*
Y273088D01*
X228088D01*
Y272794D01*
X228382D01*
Y272206D01*
X228676D01*
Y272500D01*
X228971D01*
Y271912D01*
X229265D01*
Y271618D01*
X229559D01*
Y271029D01*
X229853D01*
Y270735D01*
X230147D01*
Y270441D01*
X230441D01*
Y269853D01*
X230735D01*
Y269559D01*
X231029D01*
Y269265D01*
X231324D01*
Y268971D01*
X231618D01*
Y268382D01*
X231912D01*
Y268088D01*
X232206D01*
Y267794D01*
X232500D01*
Y267206D01*
X232794D01*
Y266912D01*
X233088D01*
Y266618D01*
X233382D01*
Y266029D01*
X233676D01*
Y265735D01*
X233971D01*
Y265441D01*
X234265D01*
Y264853D01*
X234559D01*
Y264559D01*
X234853D01*
Y264265D01*
X235147D01*
Y263971D01*
X235441D01*
Y264265D01*
X235735D01*
Y264559D01*
X236912D01*
Y264265D01*
X237500D01*
Y263971D01*
X238088D01*
Y263676D01*
X238382D01*
Y263382D01*
X238676D01*
Y263088D01*
X238971D01*
Y262500D01*
X239265D01*
Y261912D01*
X239559D01*
Y261324D01*
X249853D01*
Y261618D01*
X250147D01*
Y261912D01*
X250441D01*
Y262206D01*
X251324D01*
Y262500D01*
X252500D01*
Y262794D01*
X254265D01*
Y263088D01*
X256029D01*
Y262794D01*
X256618D01*
Y262500D01*
X256912D01*
Y262206D01*
X257206D01*
Y282500D01*
X256912D01*
Y284559D01*
X257206D01*
Y285441D01*
X256324D01*
Y285735D01*
X255441D01*
Y286029D01*
X254853D01*
Y286324D01*
X254265D01*
Y286618D01*
X253676D01*
Y286912D01*
X253382D01*
Y287206D01*
X253088D01*
Y287500D01*
X252794D01*
Y287794D01*
X252500D01*
Y288088D01*
X252206D01*
Y288971D01*
X251912D01*
Y292500D01*
X252206D01*
Y294265D01*
X252500D01*
Y295441D01*
X252794D01*
Y296618D01*
X253088D01*
Y297206D01*
X253382D01*
Y298088D01*
X253676D01*
Y298382D01*
X253971D01*
Y298676D01*
X254265D01*
Y298971D01*
X254559D01*
Y299265D01*
X254853D01*
Y299559D01*
X255441D01*
Y299853D01*
X256324D01*
Y300147D01*
X257500D01*
Y300441D01*
X259853D01*
Y300735D01*
X260147D01*
Y300441D01*
X260441D01*
Y300147D01*
X260735D01*
Y299853D01*
X261029D01*
Y299559D01*
X261324D01*
Y299265D01*
X261618D01*
Y298971D01*
X261912D01*
Y298676D01*
X262206D01*
Y298088D01*
X262500D01*
Y297794D01*
X262794D01*
Y297500D01*
X263088D01*
Y296912D01*
X263382D01*
Y296324D01*
X263676D01*
Y295735D01*
X263971D01*
Y291912D01*
X263676D01*
Y290735D01*
X263382D01*
Y289559D01*
X263088D01*
Y288971D01*
X262794D01*
Y288382D01*
X262500D01*
Y287794D01*
X262206D01*
Y287500D01*
X261912D01*
Y287206D01*
X261618D01*
Y286912D01*
X261324D01*
Y286618D01*
X260735D01*
Y286324D01*
X260147D01*
Y286029D01*
X259559D01*
Y285735D01*
X259853D01*
Y285441D01*
X259559D01*
Y284853D01*
X259853D01*
Y284559D01*
X259559D01*
Y284265D01*
X259853D01*
Y283971D01*
X259559D01*
Y283676D01*
X259853D01*
Y270441D01*
X260147D01*
Y259265D01*
X261912D01*
Y259559D01*
X263382D01*
Y259853D01*
X264853D01*
Y260147D01*
X266029D01*
Y260441D01*
X267500D01*
Y260735D01*
X268971D01*
Y261029D01*
X270441D01*
Y261324D01*
X271912D01*
Y261618D01*
X273382D01*
Y261912D01*
X274853D01*
Y262206D01*
X275735D01*
Y261912D01*
X276029D01*
Y260147D01*
X276324D01*
Y258382D01*
X276618D01*
Y256324D01*
X276912D01*
Y253088D01*
X278088D01*
Y253676D01*
X278382D01*
Y253971D01*
X278676D01*
Y254559D01*
X278971D01*
Y254853D01*
X279265D01*
Y255147D01*
X279853D01*
Y255441D01*
X282206D01*
Y255147D01*
X282500D01*
Y254853D01*
X283088D01*
Y254559D01*
X283382D01*
Y253971D01*
X283676D01*
Y253382D01*
X283971D01*
Y250735D01*
X283676D01*
Y249853D01*
X283382D01*
Y249559D01*
X283088D01*
Y249265D01*
X282794D01*
Y248971D01*
X282206D01*
Y248676D01*
X281618D01*
Y248382D01*
X280441D01*
Y248676D01*
X279853D01*
Y248971D01*
X279265D01*
Y249265D01*
X278971D01*
Y249559D01*
X278676D01*
Y249853D01*
X278382D01*
Y250147D01*
X277794D01*
Y249853D01*
X277500D01*
Y250147D01*
X277206D01*
Y249853D01*
X276912D01*
Y249559D01*
X276618D01*
Y247500D01*
X276324D01*
Y246618D01*
X276029D01*
Y245735D01*
X275735D01*
Y244853D01*
X275441D01*
Y244265D01*
X275147D01*
Y243382D01*
X274853D01*
Y242794D01*
X274559D01*
Y242206D01*
X273088D01*
Y242500D01*
X271618D01*
Y242794D01*
X270147D01*
Y243088D01*
X268676D01*
Y243382D01*
X266912D01*
Y243676D01*
X265441D01*
Y243971D01*
X263971D01*
Y244265D01*
X262500D01*
Y244559D01*
X261029D01*
Y244853D01*
X259265D01*
Y245147D01*
X258088D01*
Y245441D01*
X257206D01*
Y245735D01*
X256618D01*
Y246029D01*
X256324D01*
Y246324D01*
X256029D01*
Y246618D01*
X255735D01*
Y246912D01*
X255441D01*
Y246618D01*
X255147D01*
Y246324D01*
X254853D01*
Y245735D01*
X254559D01*
Y245441D01*
X254265D01*
Y244853D01*
X253971D01*
Y244559D01*
X253676D01*
Y244265D01*
X253382D01*
Y243676D01*
X253088D01*
Y243382D01*
X252500D01*
Y243088D01*
X249559D01*
Y243382D01*
X248971D01*
Y243676D01*
X248382D01*
Y243971D01*
X248088D01*
Y244265D01*
X247794D01*
Y244559D01*
X247500D01*
Y244853D01*
X247206D01*
Y245441D01*
X246912D01*
Y246029D01*
X246618D01*
Y247206D01*
X238088D01*
Y246912D01*
X237794D01*
Y246324D01*
X237500D01*
Y246029D01*
X237206D01*
Y245441D01*
X236912D01*
Y245147D01*
X236618D01*
Y244853D01*
X236324D01*
Y244265D01*
X236029D01*
Y243971D01*
X235735D01*
Y243676D01*
X235441D01*
Y243382D01*
X235147D01*
Y243088D01*
X234853D01*
Y242794D01*
X234559D01*
Y242500D01*
X233971D01*
Y242206D01*
X231912D01*
Y242500D01*
X231618D01*
Y242794D01*
X231324D01*
Y243088D01*
X231029D01*
Y243382D01*
X230735D01*
Y243971D01*
X230441D01*
Y244559D01*
X230147D01*
Y245147D01*
X229853D01*
Y245735D01*
X229559D01*
Y246912D01*
X230147D01*
Y246029D01*
X230441D01*
Y245147D01*
X230735D01*
Y244559D01*
X231029D01*
Y244265D01*
X231324D01*
Y243676D01*
X231618D01*
Y243382D01*
X231912D01*
Y243088D01*
X232206D01*
Y242794D01*
X233971D01*
Y243088D01*
X234265D01*
Y243382D01*
X234853D01*
Y243971D01*
X235147D01*
Y244265D01*
X235441D01*
Y244559D01*
X235735D01*
Y244853D01*
X236029D01*
Y245441D01*
X236324D01*
Y245735D01*
X236618D01*
Y246029D01*
X236912D01*
Y246618D01*
X237206D01*
Y246912D01*
X237500D01*
Y247794D01*
X237794D01*
Y248088D01*
X238088D01*
Y248676D01*
X238382D01*
Y249265D01*
X238676D01*
Y249853D01*
X238971D01*
Y250735D01*
X239265D01*
Y252500D01*
X239559D01*
Y256029D01*
X239265D01*
Y259559D01*
X238971D01*
Y261618D01*
X238676D01*
Y262500D01*
X238382D01*
Y262794D01*
X238088D01*
Y263088D01*
X237794D01*
Y263382D01*
X237206D01*
Y263676D01*
X236618D01*
Y263971D01*
X236029D01*
Y263676D01*
X235441D01*
Y263382D01*
X235735D01*
Y263088D01*
X236029D01*
Y262500D01*
X236324D01*
Y262206D01*
X236618D01*
Y261912D01*
X237206D01*
Y260441D01*
X237500D01*
Y259265D01*
X237794D01*
Y257500D01*
X238088D01*
Y252500D01*
X237794D01*
Y251324D01*
X237500D01*
Y250147D01*
X237206D01*
Y249559D01*
X236912D01*
Y248676D01*
X236618D01*
Y248088D01*
X236324D01*
Y247500D01*
X236029D01*
Y247206D01*
X235735D01*
Y246912D01*
X235441D01*
Y246618D01*
X235147D01*
Y246324D01*
X234853D01*
Y246029D01*
X234559D01*
Y245735D01*
X234265D01*
Y245441D01*
X233971D01*
Y245147D01*
X233676D01*
Y244853D01*
X233382D01*
Y244559D01*
X233088D01*
Y244853D01*
X232794D01*
Y245147D01*
X233088D01*
Y245441D01*
X233382D01*
Y245735D01*
X232794D01*
Y246324D01*
X232500D01*
Y247206D01*
X219853D01*
Y246324D01*
X219559D01*
Y245441D01*
X219265D01*
Y244853D01*
X218971D01*
Y244265D01*
X218676D01*
Y243676D01*
X218382D01*
Y243088D01*
X218088D01*
Y242794D01*
X217794D01*
Y242206D01*
X217500D01*
Y241618D01*
X217206D01*
Y241324D01*
X216912D01*
Y241029D01*
X216618D01*
Y240441D01*
X216324D01*
Y240147D01*
X216029D01*
Y239853D01*
X215735D01*
Y239559D01*
X215441D01*
Y238971D01*
X215147D01*
Y238676D01*
X214853D01*
Y238382D01*
X214559D01*
Y238088D01*
X214265D01*
Y237500D01*
X213971D01*
Y237206D01*
X213676D01*
Y236912D01*
X213382D01*
Y236324D01*
X213088D01*
Y236029D01*
X212794D01*
Y235735D01*
X212500D01*
Y235441D01*
X212206D01*
Y234853D01*
X211912D01*
Y234559D01*
X211324D01*
Y234265D01*
X210735D01*
Y233971D01*
X209853D01*
Y233676D01*
X209265D01*
Y233382D01*
X208382D01*
Y233088D01*
X207794D01*
Y232794D01*
X206912D01*
Y232500D01*
X206324D01*
Y232206D01*
X205441D01*
Y231912D01*
X204853D01*
Y231618D01*
X204265D01*
Y231324D01*
X203382D01*
Y231029D01*
X202794D01*
Y231324D01*
X202206D01*
Y231029D01*
X201912D01*
Y231324D01*
X197206D01*
Y231029D01*
X196912D01*
Y231324D01*
X196618D01*
Y231029D01*
X196324D01*
Y231324D01*
X196029D01*
Y231029D01*
X195147D01*
Y228971D01*
X194853D01*
Y227500D01*
X194559D01*
Y226324D01*
X194265D01*
Y225147D01*
X193971D01*
Y223971D01*
X193676D01*
Y223382D01*
X192794D01*
Y223088D01*
X192206D01*
Y222794D01*
X191618D01*
Y222500D01*
X191029D01*
Y222206D01*
X190147D01*
Y221912D01*
X189559D01*
Y221618D01*
X188971D01*
Y221324D01*
X188382D01*
Y221029D01*
X187794D01*
Y220735D01*
X187206D01*
Y220441D01*
X186618D01*
Y220147D01*
X186029D01*
Y219853D01*
X185441D01*
Y219559D01*
X184853D01*
Y219265D01*
X184265D01*
Y218971D01*
X183382D01*
Y218676D01*
X179853D01*
Y218382D01*
X179265D01*
Y216029D01*
X178676D01*
Y215735D01*
X178382D01*
Y216029D01*
X176029D01*
Y215735D01*
X174265D01*
Y214559D01*
X173971D01*
Y213088D01*
X173676D01*
Y211618D01*
X173382D01*
Y210147D01*
X173088D01*
Y208971D01*
X172794D01*
Y207794D01*
X172500D01*
Y206912D01*
X172206D01*
Y205735D01*
X171912D01*
Y204853D01*
X171618D01*
Y204265D01*
X171324D01*
Y203382D01*
X171029D01*
Y202794D01*
X170735D01*
Y201912D01*
X170441D01*
Y201324D01*
X170147D01*
Y200735D01*
X169853D01*
Y199853D01*
X169559D01*
Y199265D01*
X169265D01*
Y198676D01*
X168971D01*
Y198088D01*
X168676D01*
Y197500D01*
X168382D01*
Y197206D01*
X168088D01*
Y196618D01*
X167794D01*
Y196029D01*
X167500D01*
Y195735D01*
X167206D01*
Y195147D01*
X166912D01*
Y194559D01*
X166618D01*
Y194265D01*
X166324D01*
Y193676D01*
X166029D01*
Y193382D01*
X165735D01*
Y192794D01*
X165441D01*
Y192500D01*
X165147D01*
Y191912D01*
X164853D01*
Y191618D01*
X164559D01*
Y191029D01*
X164265D01*
Y190735D01*
X163971D01*
Y190441D01*
X163676D01*
Y190147D01*
X163088D01*
Y189853D01*
X162794D01*
Y189559D01*
X162500D01*
Y189265D01*
X162206D01*
Y188971D01*
X161912D01*
Y188676D01*
X161324D01*
Y188382D01*
X161029D01*
Y188088D01*
X160735D01*
Y187794D01*
X160441D01*
Y187500D01*
X159853D01*
Y187206D01*
X159559D01*
Y186912D01*
X159265D01*
Y186618D01*
X158971D01*
Y186324D01*
X158677D01*
Y186029D01*
X158088D01*
Y185735D01*
X157794D01*
Y185441D01*
X157500D01*
Y185147D01*
X157206D01*
Y184853D01*
X156912D01*
Y184559D01*
X156323D01*
Y184265D01*
X156029D01*
Y183971D01*
X155735D01*
Y183676D01*
X155441D01*
Y183382D01*
X154853D01*
Y183088D01*
X154559D01*
Y182794D01*
X154265D01*
Y182500D01*
X153971D01*
Y182206D01*
X153382D01*
Y181912D01*
X153088D01*
Y181618D01*
X152794D01*
Y181324D01*
X152500D01*
Y181029D01*
X151912D01*
Y180735D01*
X151618D01*
Y180441D01*
X151323D01*
Y180147D01*
X151029D01*
Y179853D01*
X150441D01*
Y179559D01*
X150147D01*
Y179265D01*
X149853D01*
Y178971D01*
X149559D01*
Y178676D01*
X148971D01*
Y178382D01*
X148677D01*
Y178088D01*
X148382D01*
Y177794D01*
X147794D01*
Y177500D01*
X147500D01*
Y177206D01*
X147206D01*
Y176912D01*
X146912D01*
Y176618D01*
X146618D01*
Y176324D01*
X146029D01*
Y176029D01*
X145735D01*
Y175735D01*
X145441D01*
Y175441D01*
X144853D01*
Y175147D01*
X144559D01*
Y174853D01*
X144265D01*
Y174559D01*
X143971D01*
Y174265D01*
X143382D01*
Y173971D01*
X143088D01*
Y173676D01*
X142794D01*
Y173382D01*
X142500D01*
Y173088D01*
X141912D01*
Y172794D01*
X141618D01*
Y172500D01*
X141323D01*
Y172206D01*
X141029D01*
Y171912D01*
X140441D01*
Y171618D01*
X140147D01*
Y171324D01*
X139853D01*
Y171029D01*
X139559D01*
Y170735D01*
X138971D01*
Y170441D01*
X138677D01*
Y170147D01*
X138382D01*
Y169559D01*
X138088D01*
Y168971D01*
X137794D01*
Y168382D01*
X137500D01*
Y167794D01*
X137206D01*
Y167206D01*
X136912D01*
Y166618D01*
X136618D01*
Y165735D01*
X136324D01*
Y165147D01*
X136029D01*
Y164853D01*
X135735D01*
Y164559D01*
X135147D01*
Y164265D01*
X134853D01*
Y163971D01*
X134265D01*
Y163676D01*
X133971D01*
Y163382D01*
X133382D01*
Y163088D01*
X133088D01*
Y162794D01*
X132794D01*
Y162500D01*
X132206D01*
Y162206D01*
X131912D01*
Y161912D01*
X131618D01*
Y161618D01*
X131029D01*
Y161324D01*
X130735D01*
Y161029D01*
X130147D01*
Y160735D01*
X129559D01*
Y160441D01*
X129265D01*
Y160147D01*
X128677D01*
Y159853D01*
X127794D01*
Y159559D01*
X127206D01*
Y159265D01*
X126618D01*
Y158971D01*
X126029D01*
Y158677D01*
X125147D01*
Y158382D01*
X124559D01*
Y158088D01*
X123971D01*
Y157794D01*
X123382D01*
Y157500D01*
X122500D01*
Y157206D01*
X121912D01*
Y156912D01*
X121323D01*
Y156618D01*
X120441D01*
Y156323D01*
X119853D01*
Y156029D01*
X119559D01*
Y155735D01*
X117794D01*
Y155441D01*
X117500D01*
Y155735D01*
X116912D01*
Y155441D01*
X112500D01*
Y155147D01*
X112206D01*
Y155441D01*
X111912D01*
Y155147D01*
X107206D01*
Y154853D01*
X106618D01*
Y155147D01*
X106323D01*
Y154853D01*
X105735D01*
Y155147D01*
X104853D01*
Y155441D01*
X103971D01*
Y155735D01*
X102794D01*
Y156029D01*
X101912D01*
Y156323D01*
X100735D01*
Y156618D01*
X99559D01*
Y156912D01*
X98677D01*
Y157206D01*
X97794D01*
Y157500D01*
X96618D01*
Y157794D01*
X95441D01*
Y158088D01*
X94559D01*
Y158382D01*
X93382D01*
Y158677D01*
X92500D01*
Y158971D01*
X91323D01*
Y159265D01*
X90441D01*
Y159559D01*
X90147D01*
Y160441D01*
X89853D01*
Y161029D01*
X89559D01*
Y161912D01*
X89265D01*
Y162794D01*
X88971D01*
Y163382D01*
X88677D01*
Y164265D01*
X88382D01*
Y164853D01*
X88088D01*
Y165735D01*
X87794D01*
Y166324D01*
X87500D01*
Y167206D01*
X87206D01*
Y168088D01*
X86912D01*
Y168676D01*
X86618D01*
Y170735D01*
X86912D01*
Y171618D01*
X87206D01*
Y172794D01*
X87500D01*
Y173971D01*
X87794D01*
Y174853D01*
X88088D01*
Y176029D01*
X88382D01*
Y176912D01*
X88677D01*
Y178088D01*
X88971D01*
Y179265D01*
X89265D01*
Y180147D01*
X89559D01*
Y181324D01*
X89853D01*
Y182500D01*
X90147D01*
Y183676D01*
X90441D01*
Y184853D01*
X90735D01*
Y186029D01*
X91029D01*
Y187500D01*
X91323D01*
Y188676D01*
X91618D01*
Y190147D01*
X91912D01*
Y191618D01*
X92206D01*
Y193088D01*
X92500D01*
Y194265D01*
X92794D01*
Y195735D01*
X93088D01*
Y196912D01*
X93382D01*
Y198088D01*
X93677D01*
Y198971D01*
X93971D01*
Y200147D01*
X94265D01*
Y201029D01*
X94559D01*
Y201912D01*
X94853D01*
Y202794D01*
X95147D01*
Y203676D01*
X95441D01*
Y203971D01*
Y204559D01*
X95735D01*
Y205441D01*
X96029D01*
Y206324D01*
X96324D01*
Y207206D01*
X96618D01*
Y208088D01*
X96912D01*
Y208971D01*
X97206D01*
Y209853D01*
X97500D01*
Y210441D01*
X97794D01*
Y211324D01*
X98088D01*
Y212206D01*
X98382D01*
Y214853D01*
X98088D01*
Y216912D01*
X97794D01*
Y218971D01*
X97500D01*
Y221029D01*
X97206D01*
Y223088D01*
X96912D01*
Y225147D01*
X96618D01*
Y227206D01*
X95735D01*
Y226912D01*
X94853D01*
Y226618D01*
X94265D01*
Y226324D01*
X93382D01*
Y226029D01*
X92794D01*
Y225735D01*
X91912D01*
Y225441D01*
X91323D01*
Y225147D01*
X90441D01*
Y224853D01*
X89853D01*
Y224559D01*
X88971D01*
Y224265D01*
X88382D01*
Y223971D01*
X87794D01*
Y223676D01*
X86912D01*
Y223382D01*
X86324D01*
Y223088D01*
X82794D01*
Y222794D01*
X81323D01*
Y223088D01*
X80735D01*
Y222794D01*
X80441D01*
Y223088D01*
X80147D01*
Y222794D01*
X78971D01*
Y223088D01*
X76618D01*
Y223382D01*
X74853D01*
Y223676D01*
X73677D01*
Y223971D01*
X72500D01*
Y224265D01*
X71324D01*
Y224559D01*
X70441D01*
Y224853D01*
X69559D01*
Y225147D01*
X68971D01*
Y225441D01*
X68382D01*
Y225735D01*
X67500D01*
Y226029D01*
X66912D01*
Y226324D01*
X66323D01*
Y226618D01*
X65735D01*
Y226912D01*
X65441D01*
Y227206D01*
X64853D01*
Y227500D01*
X64265D01*
Y227794D01*
X63677D01*
Y228088D01*
X63382D01*
Y228382D01*
X62794D01*
Y228676D01*
X62500D01*
Y228971D01*
X62206D01*
Y229265D01*
X61618D01*
Y229559D01*
X61324D01*
Y229853D01*
X61029D01*
Y230147D01*
X60441D01*
Y230441D01*
X60147D01*
Y230735D01*
X59853D01*
Y231029D01*
X59559D01*
Y231324D01*
X59265D01*
Y231618D01*
X58971D01*
Y231912D01*
X58677D01*
Y232206D01*
X58382D01*
Y232500D01*
X58088D01*
Y232794D01*
X57794D01*
Y233088D01*
X57500D01*
Y233382D01*
X57206D01*
Y233676D01*
X56912D01*
Y233971D01*
X56618D01*
Y234265D01*
X56324D01*
Y234559D01*
X56029D01*
Y234853D01*
X55735D01*
Y235147D01*
X55441D01*
Y235735D01*
X55147D01*
Y236029D01*
X54853D01*
Y236324D01*
X54559D01*
Y236618D01*
X54265D01*
Y237206D01*
X53971D01*
Y237500D01*
X53677D01*
Y238088D01*
X53382D01*
Y238382D01*
X53088D01*
Y238971D01*
X52794D01*
Y239265D01*
X52500D01*
Y239853D01*
X52206D01*
Y240441D01*
X51912D01*
Y241029D01*
X51618D01*
Y241324D01*
X51323D01*
Y241912D01*
X51029D01*
Y242794D01*
X50735D01*
Y243382D01*
X50441D01*
Y243971D01*
X50147D01*
Y244559D01*
X49853D01*
Y245441D01*
X49559D01*
Y246324D01*
X49265D01*
Y247206D01*
X48971D01*
Y248088D01*
X48677D01*
Y249265D01*
X48382D01*
Y250441D01*
X48088D01*
Y251912D01*
X47794D01*
Y253676D01*
X47500D01*
Y257206D01*
X47206D01*
Y260147D01*
X47500D01*
Y263382D01*
X47794D01*
Y265441D01*
X48088D01*
Y266324D01*
X47206D01*
Y266618D01*
X46618D01*
Y266912D01*
X45735D01*
Y267206D01*
X44853D01*
Y267500D01*
X44265D01*
Y267794D01*
X43382D01*
Y268088D01*
X42794D01*
Y268382D01*
X41912D01*
Y268676D01*
X41323D01*
Y268971D01*
X40441D01*
Y269265D01*
X39853D01*
Y269559D01*
X38971D01*
Y269853D01*
X38088D01*
Y270147D01*
X37500D01*
Y270441D01*
X36618D01*
Y270735D01*
X36029D01*
Y271324D01*
X35735D01*
Y271618D01*
X35441D01*
Y272794D01*
X35735D01*
Y273088D01*
X36029D01*
Y273382D01*
X36323D01*
Y273676D01*
X39265D01*
Y273382D01*
X40735D01*
Y273088D01*
X41912D01*
Y272794D01*
X43088D01*
Y272500D01*
X44265D01*
Y272206D01*
X45441D01*
Y271912D01*
X46912D01*
Y271618D01*
X48088D01*
Y271324D01*
X48382D01*
Y271618D01*
X49559D01*
Y271912D01*
X49853D01*
Y272500D01*
X50147D01*
Y273382D01*
X50441D01*
Y273971D01*
X50735D01*
Y274559D01*
X51029D01*
Y275147D01*
X51323D01*
Y275735D01*
X51618D01*
Y276324D01*
X51912D01*
Y276912D01*
X52206D01*
Y277500D01*
X52500D01*
Y277794D01*
X52794D01*
Y278382D01*
X53088D01*
Y278676D01*
X53382D01*
Y279265D01*
X53677D01*
Y279559D01*
X53971D01*
Y280147D01*
X54265D01*
Y280441D01*
X54559D01*
Y281029D01*
X54853D01*
Y281324D01*
X55147D01*
Y281618D01*
X54853D01*
Y281912D01*
X54559D01*
Y282206D01*
X54265D01*
Y282500D01*
X53971D01*
Y282794D01*
X53677D01*
Y283382D01*
X53382D01*
Y283676D01*
X52794D01*
Y285147D01*
X52500D01*
Y285441D01*
X52206D01*
Y285735D01*
X51912D01*
Y286029D01*
X51618D01*
Y286324D01*
X51323D01*
Y286618D01*
X51029D01*
Y286912D01*
X50735D01*
Y287206D01*
X50441D01*
Y287500D01*
X50147D01*
Y287794D01*
X49853D01*
Y288088D01*
X49559D01*
Y288382D01*
X49265D01*
Y288676D01*
X48971D01*
Y288971D01*
X48677D01*
Y289265D01*
X48382D01*
Y289559D01*
X48088D01*
Y289853D01*
X47794D01*
Y290147D01*
X47500D01*
Y290441D01*
X47206D01*
Y291029D01*
X46912D01*
Y291324D01*
X46618D01*
Y291618D01*
X46324D01*
Y291912D01*
X45735D01*
Y292500D01*
X45441D01*
Y292794D01*
X45147D01*
Y293088D01*
X44853D01*
Y293382D01*
X44559D01*
Y293676D01*
X44265D01*
Y293971D01*
X43971D01*
Y294265D01*
X43677D01*
Y294559D01*
X43382D01*
Y296912D01*
X43677D01*
Y297206D01*
X43971D01*
Y297500D01*
X44265D01*
Y297794D01*
X44559D01*
Y298088D01*
X45147D01*
Y298382D01*
X46912D01*
Y298088D01*
X47500D01*
Y297794D01*
X48382D01*
Y297500D01*
X49265D01*
Y297206D01*
X49853D01*
Y296912D01*
X50735D01*
Y296618D01*
X51618D01*
Y296324D01*
X52206D01*
Y296029D01*
X53088D01*
Y295735D01*
X53677D01*
Y295441D01*
X54559D01*
Y295147D01*
X55441D01*
Y294853D01*
X56324D01*
Y294559D01*
X56912D01*
Y294265D01*
X57794D01*
Y293971D01*
X58677D01*
Y293676D01*
X59265D01*
Y293382D01*
X60147D01*
Y293088D01*
X60735D01*
Y292794D01*
X61618D01*
Y292500D01*
X62500D01*
Y292206D01*
X63088D01*
Y291912D01*
X63971D01*
Y291618D01*
X64853D01*
Y291324D01*
X65441D01*
Y291029D01*
X66323D01*
Y290735D01*
X66618D01*
Y291029D01*
X67206D01*
Y291324D01*
X67794D01*
Y291618D01*
X68382D01*
Y291912D01*
X69265D01*
Y292206D01*
X69853D01*
Y292500D01*
X70735D01*
Y292794D01*
X71618D01*
Y293088D01*
X72794D01*
Y293382D01*
X73382D01*
Y295147D01*
X73088D01*
Y298088D01*
X73382D01*
Y300147D01*
X73088D01*
Y301912D01*
X72794D01*
Y303676D01*
X72500D01*
Y305441D01*
X72206D01*
Y307206D01*
X71912D01*
Y308971D01*
X71618D01*
Y310735D01*
X71324D01*
Y312794D01*
X71029D01*
Y313971D01*
X71324D01*
Y314853D01*
X71618D01*
Y315147D01*
X71912D01*
Y315441D01*
X72206D01*
Y315735D01*
X72794D01*
Y316029D01*
X75441D01*
Y315735D01*
D02*
G37*
%LPC*%
G36*
X77794Y298676D02*
X77500D01*
Y298382D01*
X77206D01*
Y298676D01*
X75735D01*
Y298382D01*
X74559D01*
Y298088D01*
X73971D01*
Y297794D01*
X73677D01*
Y297206D01*
Y296912D01*
Y295147D01*
X73971D01*
Y293676D01*
X75441D01*
Y293971D01*
X77206D01*
Y294265D01*
X78677D01*
Y295441D01*
X78382D01*
Y297206D01*
X78088D01*
Y298382D01*
X77794D01*
Y298676D01*
D02*
G37*
G36*
X75441Y315441D02*
X73088D01*
Y315147D01*
X72500D01*
Y314853D01*
X72206D01*
Y314559D01*
X71912D01*
Y313971D01*
X71618D01*
Y312794D01*
X71912D01*
Y311324D01*
X72206D01*
Y308971D01*
X72500D01*
Y307206D01*
X72794D01*
Y305441D01*
X73088D01*
Y303676D01*
X73382D01*
Y301912D01*
X73677D01*
Y300147D01*
X73971D01*
Y298676D01*
X74265D01*
Y298971D01*
X76029D01*
Y299265D01*
X76323D01*
Y300735D01*
X76029D01*
Y302500D01*
X75735D01*
Y304265D01*
X75441D01*
Y306324D01*
X75147D01*
Y307794D01*
X74853D01*
Y309853D01*
X74559D01*
Y311618D01*
X74265D01*
Y313382D01*
X73971D01*
Y313676D01*
X74559D01*
Y313382D01*
X74853D01*
Y312500D01*
X75441D01*
Y312206D01*
X76323D01*
Y311912D01*
X77206D01*
Y311618D01*
X77794D01*
Y311324D01*
X78677D01*
Y311029D01*
X79559D01*
Y310735D01*
X80441D01*
Y310441D01*
X81029D01*
Y310147D01*
X81912D01*
Y309853D01*
X82794D01*
Y309559D01*
X83677D01*
Y309265D01*
X84559D01*
Y308971D01*
X85441D01*
Y308676D01*
X86324D01*
Y308382D01*
X86912D01*
Y308088D01*
X87794D01*
Y307794D01*
X88677D01*
Y307500D01*
X89559D01*
Y307206D01*
X90147D01*
Y306912D01*
X90735D01*
Y306618D01*
X91618D01*
Y306324D01*
X92206D01*
Y306029D01*
X92794D01*
Y303971D01*
X93088D01*
Y298088D01*
X93382D01*
Y294853D01*
X94265D01*
Y295147D01*
X94853D01*
Y299265D01*
X95147D01*
Y304853D01*
X94853D01*
Y306029D01*
X94559D01*
Y306618D01*
X94265D01*
Y306912D01*
X93971D01*
Y307206D01*
X93382D01*
Y307500D01*
X92794D01*
Y307794D01*
X92206D01*
Y308088D01*
X91618D01*
Y308382D01*
X91029D01*
Y308676D01*
X90147D01*
Y308971D01*
X89559D01*
Y309265D01*
X88971D01*
Y309559D01*
X88382D01*
Y309853D01*
X87794D01*
Y310147D01*
X87206D01*
Y310441D01*
X86324D01*
Y310735D01*
X85735D01*
Y311029D01*
X85147D01*
Y311324D01*
X84559D01*
Y311618D01*
X83677D01*
Y311912D01*
X83088D01*
Y312206D01*
X82500D01*
Y312500D01*
X81912D01*
Y312794D01*
X81323D01*
Y313088D01*
X80441D01*
Y313382D01*
X79853D01*
Y313676D01*
X79265D01*
Y313971D01*
X78677D01*
Y314265D01*
X77794D01*
Y314559D01*
X77206D01*
Y314853D01*
X76323D01*
Y315147D01*
X75441D01*
Y315441D01*
D02*
G37*
G36*
Y311912D02*
X74853D01*
Y311618D01*
X75147D01*
Y309853D01*
X75441D01*
Y308088D01*
X75735D01*
Y306324D01*
X76029D01*
Y304265D01*
X76323D01*
Y302500D01*
X76618D01*
Y300735D01*
X76912D01*
Y299265D01*
X77794D01*
Y298971D01*
X78382D01*
Y298676D01*
X78677D01*
Y297206D01*
X78971D01*
Y295441D01*
X79265D01*
Y294265D01*
X85147D01*
Y293971D01*
X86912D01*
Y293676D01*
X88382D01*
Y293382D01*
X90441D01*
Y293676D01*
X91029D01*
Y293971D01*
X91912D01*
Y294265D01*
X92794D01*
Y298088D01*
X92500D01*
Y303971D01*
X92206D01*
Y305735D01*
X91323D01*
Y306029D01*
X90735D01*
Y306324D01*
X89853D01*
Y306618D01*
X89265D01*
Y306912D01*
X88382D01*
Y307206D01*
X87794D01*
Y307500D01*
X86912D01*
Y307794D01*
X86029D01*
Y308088D01*
X85147D01*
Y308382D01*
X84559D01*
Y308676D01*
X83677D01*
Y308971D01*
X82794D01*
Y309265D01*
X81912D01*
Y309559D01*
X81029D01*
Y309853D01*
X80147D01*
Y310147D01*
X79265D01*
Y310441D01*
X78677D01*
Y310735D01*
X77794D01*
Y311029D01*
X76912D01*
Y311324D01*
X76323D01*
Y311618D01*
X75441D01*
Y311912D01*
D02*
G37*
G36*
X83088Y291618D02*
X78971D01*
Y291324D01*
X78677D01*
Y291618D01*
X78382D01*
Y291324D01*
X75735D01*
Y291029D01*
X73971D01*
Y290735D01*
X73088D01*
Y290441D01*
X72206D01*
Y290147D01*
X71324D01*
Y289853D01*
X70735D01*
Y289559D01*
X69853D01*
Y289265D01*
X69265D01*
Y288971D01*
X68677D01*
Y288676D01*
X68088D01*
Y288382D01*
X67794D01*
Y288088D01*
X67206D01*
Y287794D01*
X66618D01*
Y287500D01*
X66323D01*
Y287206D01*
X65735D01*
Y286912D01*
X65147D01*
Y286618D01*
X64853D01*
Y286324D01*
X64265D01*
Y286029D01*
X63971D01*
Y285735D01*
X63382D01*
Y285441D01*
X63088D01*
Y285147D01*
X62794D01*
Y284853D01*
X62206D01*
Y284559D01*
X61912D01*
Y284265D01*
X61618D01*
Y283971D01*
X61324D01*
Y283676D01*
X61029D01*
Y283382D01*
X60735D01*
Y283088D01*
X60441D01*
Y282794D01*
X60147D01*
Y282500D01*
X59853D01*
Y282206D01*
X59559D01*
Y281912D01*
X59265D01*
Y281618D01*
X58971D01*
Y281029D01*
X58677D01*
Y280735D01*
X58382D01*
Y280441D01*
X58088D01*
Y280147D01*
X57794D01*
Y279559D01*
X57500D01*
Y279265D01*
X57206D01*
Y278971D01*
X56912D01*
Y278676D01*
X56618D01*
Y278088D01*
X56324D01*
Y277794D01*
X56029D01*
Y277206D01*
X55735D01*
Y276912D01*
X55441D01*
Y276324D01*
X55147D01*
Y276029D01*
X54853D01*
Y275441D01*
X54559D01*
Y275147D01*
X54265D01*
Y274559D01*
X53971D01*
Y274265D01*
X53677D01*
Y273676D01*
X53382D01*
Y273088D01*
X53088D01*
Y272500D01*
X52794D01*
Y271912D01*
X52500D01*
Y271324D01*
X52206D01*
Y270441D01*
X51912D01*
Y269853D01*
X51618D01*
Y268676D01*
X51323D01*
Y267794D01*
X51029D01*
Y266324D01*
X51323D01*
Y266029D01*
X52500D01*
Y265735D01*
X53382D01*
Y265441D01*
X54559D01*
Y265147D01*
X55735D01*
Y264853D01*
X56912D01*
Y264559D01*
X58088D01*
Y264265D01*
X59265D01*
Y263971D01*
X59559D01*
Y264265D01*
X59853D01*
Y265441D01*
X60147D01*
Y266324D01*
X60441D01*
Y267206D01*
X60735D01*
Y267794D01*
X61029D01*
Y268382D01*
X61324D01*
Y268971D01*
X61618D01*
Y269559D01*
X61912D01*
Y270147D01*
X62206D01*
Y270441D01*
X62500D01*
Y271029D01*
X62794D01*
Y271618D01*
X63088D01*
Y271912D01*
X63382D01*
Y272206D01*
X63677D01*
Y272794D01*
X63971D01*
Y273088D01*
X64265D01*
Y273382D01*
X64559D01*
Y273676D01*
X64853D01*
Y273971D01*
X65147D01*
Y274265D01*
X65441D01*
Y274559D01*
X65735D01*
Y274853D01*
X66029D01*
Y275147D01*
X66323D01*
Y275441D01*
X66618D01*
Y275735D01*
X66912D01*
Y276029D01*
X67206D01*
Y276324D01*
X67794D01*
Y276618D01*
X68088D01*
Y276912D01*
X68382D01*
Y277206D01*
X68971D01*
Y277500D01*
X69265D01*
Y277794D01*
X69853D01*
Y278088D01*
X70441D01*
Y278382D01*
X71029D01*
Y278676D01*
X71618D01*
Y278971D01*
X72206D01*
Y279265D01*
X72794D01*
Y279559D01*
X73677D01*
Y279853D01*
X74853D01*
Y280147D01*
X75735D01*
Y280441D01*
X77206D01*
Y280735D01*
X83677D01*
Y280441D01*
X85441D01*
Y280147D01*
X86324D01*
Y279853D01*
X87500D01*
Y279559D01*
X88088D01*
Y279265D01*
X88971D01*
Y278971D01*
X89559D01*
Y278676D01*
X90147D01*
Y278382D01*
X90735D01*
Y278088D01*
X91323D01*
Y277794D01*
X91618D01*
Y277500D01*
X92206D01*
Y277206D01*
X92794D01*
Y276912D01*
X93088D01*
Y276618D01*
X93382D01*
Y276324D01*
X93677D01*
Y276029D01*
X94265D01*
Y275735D01*
X94559D01*
Y275441D01*
X94853D01*
Y275147D01*
X95147D01*
Y274853D01*
X95441D01*
Y274559D01*
X95735D01*
Y274265D01*
X96029D01*
Y273971D01*
X96324D01*
Y273676D01*
X96618D01*
Y273382D01*
X96912D01*
Y273088D01*
X97206D01*
Y272500D01*
X97500D01*
Y272206D01*
X97794D01*
Y271912D01*
X98088D01*
Y271324D01*
X98382D01*
Y271029D01*
X98677D01*
Y270441D01*
X98971D01*
Y269853D01*
X99265D01*
Y269559D01*
X99559D01*
Y268971D01*
X99853D01*
Y268382D01*
X100147D01*
Y267794D01*
X100441D01*
Y266912D01*
X100735D01*
Y266029D01*
X101029D01*
Y265147D01*
X101323D01*
Y263971D01*
X101618D01*
Y262500D01*
X101912D01*
Y261324D01*
X112206D01*
Y262206D01*
X111912D01*
Y263382D01*
X111618D01*
Y264559D01*
X111324D01*
Y265735D01*
X111029D01*
Y266912D01*
X110735D01*
Y268088D01*
X110441D01*
Y268971D01*
X110147D01*
Y270147D01*
X109853D01*
Y271029D01*
X109559D01*
Y271618D01*
X109265D01*
Y272500D01*
X108971D01*
Y273088D01*
X108677D01*
Y273676D01*
X108382D01*
Y274265D01*
X108088D01*
Y274853D01*
X107794D01*
Y275441D01*
X107500D01*
Y276029D01*
X107206D01*
Y276324D01*
X106912D01*
Y276912D01*
X106618D01*
Y277500D01*
X106323D01*
Y277794D01*
X106029D01*
Y278382D01*
X105735D01*
Y278676D01*
X105441D01*
Y279265D01*
X105147D01*
Y279559D01*
X104853D01*
Y279853D01*
X104559D01*
Y280147D01*
X104265D01*
Y280735D01*
X103971D01*
Y281029D01*
X103677D01*
Y281324D01*
X103382D01*
Y281618D01*
X103088D01*
Y281912D01*
X102794D01*
Y282206D01*
X102500D01*
Y282500D01*
X102206D01*
Y282794D01*
X101912D01*
Y283088D01*
X101323D01*
Y283382D01*
X101029D01*
Y283676D01*
X100735D01*
Y283971D01*
X100441D01*
Y284265D01*
X99853D01*
Y284559D01*
X99559D01*
Y284853D01*
X99265D01*
Y285147D01*
X98677D01*
Y285441D01*
X98382D01*
Y285735D01*
X98088D01*
Y286029D01*
X97500D01*
Y286324D01*
X97206D01*
Y286618D01*
X96912D01*
Y286912D01*
X96324D01*
Y287206D01*
X96029D01*
Y287500D01*
X95735D01*
Y287794D01*
X95147D01*
Y288088D01*
X94853D01*
Y288382D01*
X93971D01*
Y288676D01*
X93088D01*
Y288971D01*
X92206D01*
Y289265D01*
X91618D01*
Y289559D01*
X90735D01*
Y289853D01*
X89853D01*
Y290147D01*
X88971D01*
Y290441D01*
X88088D01*
Y290735D01*
X86912D01*
Y291029D01*
X85735D01*
Y291324D01*
X83088D01*
Y291618D01*
D02*
G37*
G36*
X47500Y297500D02*
X47206D01*
Y297206D01*
X47500D01*
Y296912D01*
X47794D01*
Y296618D01*
X48088D01*
Y296324D01*
X48382D01*
Y296029D01*
X48677D01*
Y295735D01*
X48971D01*
Y295441D01*
X49265D01*
Y295147D01*
X49559D01*
Y294853D01*
X49853D01*
Y294559D01*
X50147D01*
Y294265D01*
X51029D01*
Y293971D01*
X51618D01*
Y293676D01*
X52500D01*
Y293382D01*
X53382D01*
Y293088D01*
X54265D01*
Y292794D01*
X54853D01*
Y292500D01*
X55735D01*
Y292206D01*
X56618D01*
Y291912D01*
X57500D01*
Y291618D01*
X58088D01*
Y291324D01*
X58971D01*
Y291029D01*
X59853D01*
Y290735D01*
X60441D01*
Y290441D01*
X61324D01*
Y290147D01*
X62206D01*
Y289853D01*
X63088D01*
Y289559D01*
X63677D01*
Y289265D01*
X63971D01*
Y289559D01*
X64559D01*
Y289853D01*
X64853D01*
Y290147D01*
X65441D01*
Y290735D01*
X64559D01*
Y291029D01*
X63971D01*
Y291324D01*
X63088D01*
Y291618D01*
X62206D01*
Y291912D01*
X61618D01*
Y292206D01*
X60735D01*
Y292500D01*
X60147D01*
Y292794D01*
X59265D01*
Y293088D01*
X58382D01*
Y293382D01*
X57794D01*
Y293676D01*
X56912D01*
Y293971D01*
X56029D01*
Y294265D01*
X55441D01*
Y294559D01*
X54559D01*
Y294853D01*
X53677D01*
Y295147D01*
X52794D01*
Y295441D01*
X52206D01*
Y295735D01*
X51323D01*
Y296029D01*
X50735D01*
Y296324D01*
X49853D01*
Y296618D01*
X48971D01*
Y296912D01*
X48382D01*
Y297206D01*
X47500D01*
Y297500D01*
D02*
G37*
G36*
X51618Y293382D02*
X51323D01*
Y293088D01*
X51618D01*
Y292794D01*
X51912D01*
Y292206D01*
X52206D01*
Y291912D01*
X52500D01*
Y291618D01*
X52794D01*
Y291324D01*
X53088D01*
Y291029D01*
X53382D01*
Y290735D01*
X53677D01*
Y290441D01*
X53971D01*
Y290147D01*
X54265D01*
Y289853D01*
X54559D01*
Y289559D01*
X54853D01*
Y289265D01*
X55147D01*
Y288971D01*
X55441D01*
Y288676D01*
X55735D01*
Y288382D01*
X56029D01*
Y288088D01*
X56618D01*
Y288382D01*
X57500D01*
Y288088D01*
X57794D01*
Y287794D01*
X58088D01*
Y287500D01*
X58677D01*
Y287206D01*
X58971D01*
Y286912D01*
X59265D01*
Y286618D01*
X60441D01*
Y286912D01*
X60735D01*
Y287206D01*
X61029D01*
Y287500D01*
X61324D01*
Y287794D01*
X61912D01*
Y288088D01*
X62206D01*
Y288382D01*
X62500D01*
Y288676D01*
X63088D01*
Y288971D01*
X62794D01*
Y289265D01*
X62206D01*
Y289559D01*
X61324D01*
Y289853D01*
X60441D01*
Y290147D01*
X59559D01*
Y290441D01*
X58971D01*
Y290735D01*
X58088D01*
Y291029D01*
X57206D01*
Y291324D01*
X56324D01*
Y291618D01*
X55735D01*
Y291912D01*
X54853D01*
Y292206D01*
X53971D01*
Y292500D01*
X53382D01*
Y292794D01*
X52500D01*
Y293088D01*
X51618D01*
Y293382D01*
D02*
G37*
G36*
X260147Y299853D02*
X257500D01*
Y299559D01*
X256324D01*
Y299265D01*
X255441D01*
Y298971D01*
X254853D01*
Y298676D01*
X254559D01*
Y298382D01*
X254265D01*
Y297794D01*
X253971D01*
Y297206D01*
X253676D01*
Y296324D01*
X253382D01*
Y295441D01*
X253088D01*
Y294265D01*
X252794D01*
Y292500D01*
X252500D01*
Y288971D01*
X252794D01*
Y288382D01*
X253088D01*
Y287794D01*
X253676D01*
Y287500D01*
X253971D01*
Y287206D01*
X254265D01*
Y286912D01*
X254853D01*
Y286618D01*
X255735D01*
Y286324D01*
X256324D01*
Y286029D01*
X256912D01*
Y285735D01*
X257500D01*
Y286029D01*
X258382D01*
Y286324D01*
X259265D01*
Y286618D01*
X259853D01*
Y286912D01*
X260441D01*
Y287206D01*
X261029D01*
Y287500D01*
X261324D01*
Y287794D01*
X261618D01*
Y288088D01*
X261912D01*
Y288382D01*
X262206D01*
Y288971D01*
X262500D01*
Y289853D01*
X262794D01*
Y290735D01*
X263088D01*
Y291912D01*
X263382D01*
Y295735D01*
X263088D01*
Y296324D01*
X262794D01*
Y296912D01*
X262500D01*
Y297206D01*
X262206D01*
Y297500D01*
X261912D01*
Y298088D01*
X261618D01*
Y298382D01*
X261324D01*
Y298676D01*
X261029D01*
Y298971D01*
X260735D01*
Y299265D01*
X260441D01*
Y299559D01*
X260147D01*
Y299853D01*
D02*
G37*
G36*
X46029Y297794D02*
X45441D01*
Y297500D01*
X44853D01*
Y297206D01*
X44559D01*
Y296912D01*
X43971D01*
Y294853D01*
X44265D01*
Y294559D01*
X44559D01*
Y294265D01*
X44853D01*
Y293971D01*
X45147D01*
Y293676D01*
X45441D01*
Y293088D01*
X45735D01*
Y292794D01*
X46029D01*
Y292500D01*
X46324D01*
Y292206D01*
X46618D01*
Y291912D01*
X46912D01*
Y291618D01*
X47206D01*
Y291324D01*
X47500D01*
Y291029D01*
X47794D01*
Y290735D01*
X48088D01*
Y290441D01*
X48382D01*
Y290147D01*
X48677D01*
Y289853D01*
X48971D01*
Y289559D01*
X49265D01*
Y289265D01*
X49559D01*
Y288971D01*
X49853D01*
Y288676D01*
X50147D01*
Y288382D01*
X50441D01*
Y288088D01*
X50735D01*
Y287794D01*
X51029D01*
Y287500D01*
X51323D01*
Y287206D01*
X51618D01*
Y286912D01*
X51912D01*
Y286618D01*
X52206D01*
Y286324D01*
X52500D01*
Y286029D01*
X52794D01*
Y285735D01*
X53088D01*
Y285441D01*
X53382D01*
Y285735D01*
X53677D01*
Y286029D01*
X53971D01*
Y286324D01*
X54559D01*
Y286618D01*
X54853D01*
Y286912D01*
X55147D01*
Y287206D01*
X55441D01*
Y287500D01*
X55735D01*
Y287794D01*
X55441D01*
Y288088D01*
X55147D01*
Y288382D01*
X54853D01*
Y288676D01*
X54559D01*
Y288971D01*
X54265D01*
Y289265D01*
X53971D01*
Y289559D01*
X53677D01*
Y289853D01*
X53382D01*
Y290147D01*
X53088D01*
Y290441D01*
X52794D01*
Y290735D01*
X52500D01*
Y291029D01*
X52206D01*
Y291324D01*
X51912D01*
Y291912D01*
X51618D01*
Y292206D01*
X51323D01*
Y292500D01*
X51029D01*
Y292794D01*
X50735D01*
Y293088D01*
X50441D01*
Y293382D01*
X50147D01*
Y293676D01*
X49853D01*
Y293971D01*
X49559D01*
Y294265D01*
X49265D01*
Y294559D01*
X48971D01*
Y294853D01*
X48677D01*
Y295147D01*
X48382D01*
Y295441D01*
X48088D01*
Y295735D01*
X47794D01*
Y296029D01*
X47500D01*
Y296324D01*
X47206D01*
Y296618D01*
X46912D01*
Y296912D01*
X46618D01*
Y297206D01*
X46324D01*
Y297500D01*
X46029D01*
Y297794D01*
D02*
G37*
G36*
X57206Y287794D02*
X56912D01*
Y287500D01*
X56324D01*
Y287206D01*
X56029D01*
Y286912D01*
X55735D01*
Y286618D01*
X55441D01*
Y286324D01*
X54853D01*
Y286029D01*
X54559D01*
Y285735D01*
X54265D01*
Y285441D01*
X53971D01*
Y285147D01*
X53677D01*
Y284559D01*
X53382D01*
Y284265D01*
X53677D01*
Y283971D01*
X53971D01*
Y283382D01*
X54265D01*
Y283088D01*
X54559D01*
Y282794D01*
X54853D01*
Y282500D01*
X55147D01*
Y282206D01*
X55441D01*
Y281912D01*
X55735D01*
Y282500D01*
X56029D01*
Y282794D01*
X56324D01*
Y283088D01*
X56618D01*
Y283382D01*
X56912D01*
Y283676D01*
X57206D01*
Y283971D01*
X57500D01*
Y284265D01*
X57794D01*
Y284559D01*
X58088D01*
Y284853D01*
X58382D01*
Y285147D01*
X58677D01*
Y285441D01*
X58971D01*
Y285735D01*
X59265D01*
Y286324D01*
X58677D01*
Y286618D01*
X58382D01*
Y286912D01*
X58088D01*
Y287206D01*
X57500D01*
Y287500D01*
X57206D01*
Y287794D01*
D02*
G37*
G36*
X211324Y278971D02*
X211029D01*
Y278676D01*
X210735D01*
Y278971D01*
X208382D01*
Y278676D01*
X208676D01*
Y278088D01*
X208971D01*
Y277794D01*
X209265D01*
Y277500D01*
X209559D01*
Y277206D01*
X209853D01*
Y276912D01*
X210147D01*
Y276618D01*
X210441D01*
Y276324D01*
X210735D01*
Y276029D01*
X211029D01*
Y275735D01*
X211324D01*
Y275441D01*
X211618D01*
Y275147D01*
X211912D01*
Y274853D01*
X212206D01*
Y274559D01*
X212500D01*
Y274265D01*
X212794D01*
Y273971D01*
X213088D01*
Y273676D01*
X213382D01*
Y273382D01*
X213676D01*
Y273088D01*
X213971D01*
Y272794D01*
X214265D01*
Y272500D01*
X214559D01*
Y272206D01*
X214853D01*
Y271912D01*
X215147D01*
Y271618D01*
X215441D01*
Y271324D01*
X215735D01*
Y271029D01*
X216029D01*
Y263088D01*
X216324D01*
Y262794D01*
X216618D01*
Y262500D01*
X216912D01*
Y262206D01*
X217206D01*
Y261912D01*
X217500D01*
Y261618D01*
X217794D01*
Y261324D01*
X217500D01*
Y261029D01*
X218088D01*
Y260735D01*
X218382D01*
Y259853D01*
X218676D01*
Y259265D01*
X218971D01*
Y258676D01*
X219265D01*
Y258088D01*
X219559D01*
Y257500D01*
X219853D01*
Y256618D01*
X220147D01*
Y255735D01*
X220441D01*
Y249265D01*
X220147D01*
Y247794D01*
X235441D01*
Y248088D01*
X235735D01*
Y248382D01*
X236029D01*
Y248971D01*
X236324D01*
Y249559D01*
X236618D01*
Y250441D01*
X236912D01*
Y251324D01*
X237206D01*
Y252500D01*
X237500D01*
Y256618D01*
X237206D01*
Y256912D01*
X220441D01*
Y257500D01*
X220735D01*
Y257206D01*
X237206D01*
Y258971D01*
X236912D01*
Y260441D01*
X236618D01*
Y261324D01*
X236324D01*
Y261618D01*
X236029D01*
Y261912D01*
X235735D01*
Y262500D01*
X235441D01*
Y262794D01*
X235147D01*
Y263088D01*
X234853D01*
Y263676D01*
X234559D01*
Y263971D01*
X234265D01*
Y264265D01*
X233971D01*
Y264853D01*
X233676D01*
Y265147D01*
X233382D01*
Y265441D01*
X233088D01*
Y266029D01*
X232794D01*
Y266324D01*
X232500D01*
Y266618D01*
X232206D01*
Y267206D01*
X231912D01*
Y267500D01*
X231618D01*
Y267794D01*
X231324D01*
Y268382D01*
X231029D01*
Y268676D01*
X230735D01*
Y268971D01*
X230441D01*
Y269559D01*
X230147D01*
Y269853D01*
X229853D01*
Y270147D01*
X229559D01*
Y270735D01*
X229265D01*
Y271029D01*
X228971D01*
Y271324D01*
X228676D01*
Y271912D01*
X228382D01*
Y272206D01*
X228088D01*
Y272500D01*
X227500D01*
Y272794D01*
X227206D01*
Y273088D01*
X226912D01*
Y273382D01*
X226324D01*
Y273676D01*
X226029D01*
Y273971D01*
X225441D01*
Y274265D01*
X225147D01*
Y274559D01*
X224853D01*
Y274853D01*
X224265D01*
Y275147D01*
X223971D01*
Y275441D01*
X223382D01*
Y275735D01*
X223088D01*
Y276029D01*
X222794D01*
Y276324D01*
X222206D01*
Y276618D01*
X221912D01*
Y276912D01*
X221618D01*
Y277206D01*
X221029D01*
Y277500D01*
X220735D01*
Y277794D01*
X220147D01*
Y278088D01*
X219853D01*
Y278382D01*
X219559D01*
Y278088D01*
X218971D01*
Y278382D01*
X215147D01*
Y278676D01*
X211324D01*
Y278971D01*
D02*
G37*
G36*
X97206Y295147D02*
X96029D01*
Y294853D01*
X95441D01*
Y294559D01*
X94559D01*
Y294265D01*
X93677D01*
Y293971D01*
X92794D01*
Y293676D01*
X91912D01*
Y293382D01*
X91323D01*
Y293088D01*
X90735D01*
Y292794D01*
X91618D01*
Y292500D01*
X92500D01*
Y292206D01*
X93088D01*
Y291912D01*
X93971D01*
Y291618D01*
X94559D01*
Y291324D01*
X95147D01*
Y291029D01*
X95735D01*
Y290735D01*
X96324D01*
Y290441D01*
X96912D01*
Y290147D01*
X97500D01*
Y289853D01*
X97794D01*
Y289559D01*
X98382D01*
Y289265D01*
X98677D01*
Y288971D01*
X99265D01*
Y288676D01*
X99559D01*
Y288382D01*
X100147D01*
Y288088D01*
X100441D01*
Y287794D01*
X100735D01*
Y287500D01*
X101323D01*
Y287206D01*
X101618D01*
Y286912D01*
X101912D01*
Y286618D01*
X102206D01*
Y286324D01*
X102794D01*
Y286029D01*
X103088D01*
Y285735D01*
X103382D01*
Y285441D01*
X103677D01*
Y285147D01*
X103971D01*
Y284853D01*
X104265D01*
Y284559D01*
X104559D01*
Y284265D01*
X104853D01*
Y283971D01*
X105147D01*
Y283676D01*
X105441D01*
Y283382D01*
X105735D01*
Y283088D01*
X106029D01*
Y282794D01*
X106323D01*
Y282206D01*
X106618D01*
Y281912D01*
X106912D01*
Y281618D01*
X107206D01*
Y281324D01*
X107500D01*
Y280735D01*
X107794D01*
Y280441D01*
X108088D01*
Y280147D01*
X108382D01*
Y279559D01*
X108677D01*
Y279265D01*
X108971D01*
Y278676D01*
X109265D01*
Y278382D01*
X109559D01*
Y277794D01*
X109853D01*
Y277206D01*
X110147D01*
Y276618D01*
X110441D01*
Y276324D01*
X110735D01*
Y275735D01*
X111029D01*
Y275147D01*
X111324D01*
Y274559D01*
X111618D01*
Y273971D01*
X111912D01*
Y273088D01*
X112206D01*
Y272500D01*
X112500D01*
Y271618D01*
X112794D01*
Y271029D01*
X113088D01*
Y270441D01*
X113382D01*
Y270735D01*
X113677D01*
Y270441D01*
X114559D01*
Y270735D01*
X114853D01*
Y270441D01*
X138971D01*
Y270735D01*
X139265D01*
Y270441D01*
X139559D01*
Y270735D01*
X140147D01*
Y270441D01*
X140441D01*
Y270735D01*
X141029D01*
Y271029D01*
X140735D01*
Y271324D01*
X140441D01*
Y271618D01*
X140147D01*
Y272206D01*
X139853D01*
Y272500D01*
X139559D01*
Y273088D01*
X139265D01*
Y273382D01*
X138971D01*
Y273971D01*
X138677D01*
Y274265D01*
X138382D01*
Y274853D01*
X138088D01*
Y275147D01*
X137794D01*
Y275735D01*
X137500D01*
Y276029D01*
X137206D01*
Y276618D01*
X136912D01*
Y277206D01*
X136618D01*
Y277500D01*
X136324D01*
Y277794D01*
X135735D01*
Y278088D01*
X135441D01*
Y278382D01*
X135147D01*
Y278676D01*
X134853D01*
Y278971D01*
X134559D01*
Y279265D01*
X133971D01*
Y279559D01*
X133677D01*
Y279853D01*
X133382D01*
Y280147D01*
X133088D01*
Y280441D01*
X132794D01*
Y280735D01*
X132206D01*
Y281029D01*
X131912D01*
Y281324D01*
X131618D01*
Y281618D01*
X131323D01*
Y281912D01*
X130735D01*
Y282206D01*
X130441D01*
Y282500D01*
X130147D01*
Y282794D01*
X129853D01*
Y283088D01*
X129559D01*
Y283382D01*
X128971D01*
Y283676D01*
X128677D01*
Y283971D01*
X128382D01*
Y284265D01*
X128088D01*
Y284559D01*
X127794D01*
Y284853D01*
X127206D01*
Y285147D01*
X126912D01*
Y285441D01*
X126618D01*
Y285735D01*
X126323D01*
Y286029D01*
X125735D01*
Y286324D01*
X125441D01*
Y286618D01*
X125147D01*
Y286912D01*
X124265D01*
Y287206D01*
X123088D01*
Y287500D01*
X122206D01*
Y287794D01*
X121323D01*
Y288088D01*
X120147D01*
Y288382D01*
X119265D01*
Y288676D01*
X118088D01*
Y288971D01*
X117206D01*
Y289265D01*
X116323D01*
Y289559D01*
X115147D01*
Y289853D01*
X114265D01*
Y290147D01*
X113088D01*
Y290441D01*
X112206D01*
Y290735D01*
X111324D01*
Y291029D01*
X110147D01*
Y291324D01*
X109265D01*
Y291618D01*
X108382D01*
Y291912D01*
X107206D01*
Y292206D01*
X106323D01*
Y292500D01*
X105147D01*
Y292794D01*
X104265D01*
Y293088D01*
X103382D01*
Y293382D01*
X102206D01*
Y293676D01*
X101323D01*
Y293971D01*
X100147D01*
Y294265D01*
X99265D01*
Y294559D01*
X98382D01*
Y294853D01*
X97206D01*
Y295147D01*
D02*
G37*
G36*
X157500Y270147D02*
X142794D01*
Y269853D01*
X142500D01*
Y270147D01*
X142206D01*
Y269853D01*
X140735D01*
Y270147D01*
X140441D01*
Y269853D01*
X139559D01*
Y270147D01*
X138677D01*
Y269853D01*
X138382D01*
Y270147D01*
X114853D01*
Y269853D01*
X114559D01*
Y270147D01*
X114265D01*
Y269853D01*
X113971D01*
Y270147D01*
X113382D01*
Y268971D01*
X113677D01*
Y267794D01*
X113971D01*
Y266618D01*
X114265D01*
Y265147D01*
X114559D01*
Y263088D01*
X114853D01*
Y258382D01*
X114559D01*
Y258088D01*
X114265D01*
Y257794D01*
X113971D01*
Y257206D01*
X113677D01*
Y256912D01*
X113382D01*
Y256618D01*
X113088D01*
Y256324D01*
X112794D01*
Y256029D01*
X112500D01*
Y255735D01*
X112206D01*
Y255147D01*
X111912D01*
Y254853D01*
X111618D01*
Y254559D01*
X111324D01*
Y254265D01*
X159853D01*
Y254559D01*
X160147D01*
Y256324D01*
X160441D01*
Y261029D01*
X160147D01*
Y263676D01*
X159853D01*
Y265147D01*
X159559D01*
Y266324D01*
X159265D01*
Y267206D01*
X158971D01*
Y267794D01*
X158677D01*
Y268382D01*
X158382D01*
Y268971D01*
X158088D01*
Y269559D01*
X157794D01*
Y269853D01*
X157500D01*
Y270147D01*
D02*
G37*
G36*
X40441D02*
X39853D01*
Y269853D01*
X40441D01*
Y270147D01*
D02*
G37*
G36*
X39265Y273088D02*
X36618D01*
Y272794D01*
X36323D01*
Y272500D01*
X36029D01*
Y271912D01*
X36323D01*
Y271618D01*
X36912D01*
Y271324D01*
X38088D01*
Y271029D01*
X38971D01*
Y270735D01*
X40441D01*
Y270441D01*
X41912D01*
Y270147D01*
X43382D01*
Y269853D01*
X45147D01*
Y269559D01*
X46618D01*
Y269265D01*
X47206D01*
Y269559D01*
X47500D01*
Y270147D01*
X47794D01*
Y271029D01*
X46618D01*
Y271324D01*
X45441D01*
Y271618D01*
X44265D01*
Y271912D01*
X43088D01*
Y272206D01*
X41618D01*
Y272500D01*
X40441D01*
Y272794D01*
X39265D01*
Y273088D01*
D02*
G37*
G36*
X49265Y271029D02*
X48677D01*
Y270441D01*
X48382D01*
Y270147D01*
X48088D01*
Y269559D01*
X47794D01*
Y268676D01*
X48382D01*
Y268382D01*
X48677D01*
Y268676D01*
Y269265D01*
X48971D01*
Y270147D01*
X49265D01*
Y271029D01*
D02*
G37*
G36*
X203382Y268088D02*
X203088D01*
Y267794D01*
X202794D01*
Y268088D01*
X202500D01*
Y267794D01*
X202206D01*
Y268088D01*
X199559D01*
Y267794D01*
X199265D01*
Y268088D01*
X197500D01*
Y267500D01*
X198382D01*
Y267206D01*
X199265D01*
Y266912D01*
X200147D01*
Y266618D01*
X201029D01*
Y266324D01*
X201912D01*
Y266029D01*
X202794D01*
Y265735D01*
X203088D01*
Y264559D01*
X203382D01*
Y263382D01*
X203676D01*
Y262206D01*
X203971D01*
Y260441D01*
X204265D01*
Y258382D01*
Y258088D01*
Y257794D01*
X204559D01*
Y254559D01*
X204265D01*
Y252794D01*
X193088D01*
Y250735D01*
X192794D01*
Y248971D01*
X192500D01*
Y247500D01*
X192206D01*
Y246029D01*
X191912D01*
Y244559D01*
X191618D01*
Y243971D01*
X191324D01*
Y242794D01*
X191029D01*
Y242206D01*
X191324D01*
Y241912D01*
X191618D01*
Y241618D01*
X191912D01*
Y241324D01*
X192206D01*
Y241029D01*
X192500D01*
Y240735D01*
X192794D01*
Y240441D01*
X193088D01*
Y240147D01*
X193382D01*
Y239853D01*
X193676D01*
Y239265D01*
X193971D01*
Y238971D01*
X194265D01*
Y238088D01*
X194559D01*
Y236618D01*
X194853D01*
Y234853D01*
X195147D01*
Y231912D01*
X195735D01*
Y231618D01*
X196618D01*
Y231912D01*
X202206D01*
Y231618D01*
X202500D01*
Y231912D01*
X203088D01*
Y231618D01*
X203382D01*
Y231912D01*
X203676D01*
Y232500D01*
X203971D01*
Y233382D01*
X204265D01*
Y234265D01*
X204559D01*
Y235441D01*
X204853D01*
Y236618D01*
X205147D01*
Y237794D01*
X205441D01*
Y239265D01*
X205735D01*
Y241029D01*
X206029D01*
Y243971D01*
X206324D01*
Y247500D01*
X206618D01*
Y257794D01*
X206324D01*
Y259559D01*
X206029D01*
Y260735D01*
X205735D01*
Y261912D01*
X205441D01*
Y263088D01*
X205147D01*
Y264265D01*
X204853D01*
Y265147D01*
X204559D01*
Y266029D01*
X204265D01*
Y266912D01*
X203971D01*
Y267794D01*
X203382D01*
Y268088D01*
D02*
G37*
G36*
X197206D02*
X196912D01*
Y267794D01*
X197206D01*
Y268088D01*
D02*
G37*
G36*
X194853D02*
X194559D01*
Y267794D01*
X194265D01*
Y268088D01*
X193971D01*
Y267794D01*
X193676D01*
Y268088D01*
X193382D01*
Y267794D01*
X193088D01*
Y268088D01*
X192794D01*
Y265735D01*
X193088D01*
Y263676D01*
X193382D01*
Y260735D01*
X193676D01*
Y256618D01*
X193382D01*
Y253382D01*
X203676D01*
Y254559D01*
X203971D01*
Y258088D01*
X203676D01*
Y260441D01*
X203382D01*
Y261912D01*
X203088D01*
Y263382D01*
X202794D01*
Y264559D01*
X202500D01*
Y265441D01*
X201912D01*
Y265735D01*
X201029D01*
Y266029D01*
X200147D01*
Y266324D01*
X199265D01*
Y266618D01*
X198382D01*
Y266912D01*
X197500D01*
Y267206D01*
X196618D01*
Y267500D01*
X195735D01*
Y267794D01*
X194853D01*
Y268088D01*
D02*
G37*
G36*
X191618D02*
X191029D01*
Y267794D01*
X190441D01*
Y268088D01*
X190147D01*
Y267794D01*
X189559D01*
Y266618D01*
X189853D01*
Y263088D01*
X190147D01*
Y255147D01*
X189853D01*
Y252206D01*
X189559D01*
Y249559D01*
X189265D01*
Y248088D01*
X188971D01*
Y246324D01*
X188676D01*
Y246029D01*
Y245735D01*
Y244853D01*
X188971D01*
Y244559D01*
X189265D01*
Y244265D01*
X189559D01*
Y243971D01*
X189853D01*
Y243676D01*
X190147D01*
Y243382D01*
X190441D01*
Y243088D01*
X190735D01*
Y244265D01*
X191029D01*
Y245147D01*
X191324D01*
Y246029D01*
X191618D01*
Y247500D01*
X191912D01*
Y248971D01*
X192206D01*
Y250735D01*
X192500D01*
Y253088D01*
X192794D01*
Y256618D01*
X193088D01*
Y260735D01*
X192794D01*
Y263382D01*
X192500D01*
Y265735D01*
X192206D01*
Y267794D01*
X191618D01*
Y268088D01*
D02*
G37*
G36*
X188676D02*
X188382D01*
Y267794D01*
X188088D01*
Y268088D01*
X178382D01*
Y267794D01*
X177794D01*
Y268088D01*
X177500D01*
Y267794D01*
X177206D01*
Y268088D01*
X176618D01*
Y266912D01*
X176324D01*
Y265147D01*
X176029D01*
Y263382D01*
X175735D01*
Y260441D01*
X175441D01*
Y254265D01*
X175735D01*
Y253382D01*
X180147D01*
Y253676D01*
X180735D01*
Y253382D01*
X188088D01*
Y253676D01*
X188676D01*
Y253382D01*
X188971D01*
Y253676D01*
X189265D01*
Y255441D01*
X189559D01*
Y263088D01*
X189265D01*
Y266324D01*
X188971D01*
Y267794D01*
X188676D01*
Y268088D01*
D02*
G37*
G36*
X175735D02*
X175147D01*
Y267794D01*
X174853D01*
Y268088D01*
X174265D01*
Y267794D01*
X173971D01*
Y268088D01*
X173676D01*
Y267206D01*
X173382D01*
Y265735D01*
X173088D01*
Y263971D01*
X172794D01*
Y261618D01*
X172500D01*
Y252500D01*
X172794D01*
Y251618D01*
X175147D01*
Y254559D01*
X174853D01*
Y260147D01*
X175147D01*
Y263382D01*
X175441D01*
Y265147D01*
X175735D01*
Y266912D01*
X176029D01*
Y267794D01*
X175735D01*
Y268088D01*
D02*
G37*
G36*
X172794D02*
X172206D01*
Y267794D01*
X171912D01*
Y268088D01*
X171618D01*
Y267794D01*
X171324D01*
Y268088D01*
X163971D01*
Y267794D01*
X163676D01*
Y266029D01*
X163382D01*
Y264265D01*
X163088D01*
Y261912D01*
X162794D01*
Y259853D01*
X162500D01*
Y257794D01*
X162206D01*
Y255735D01*
X161912D01*
Y253676D01*
X161618D01*
Y253382D01*
X171912D01*
Y261618D01*
X172206D01*
Y263971D01*
X172500D01*
Y265735D01*
X172794D01*
Y267206D01*
X173088D01*
Y267794D01*
X172794D01*
Y268088D01*
D02*
G37*
G36*
X163088D02*
X162794D01*
Y267794D01*
X162500D01*
Y268088D01*
X161618D01*
Y267794D01*
X160735D01*
Y267500D01*
X160441D01*
Y263971D01*
X160735D01*
Y261029D01*
X161029D01*
Y256324D01*
X160735D01*
Y254265D01*
X160441D01*
Y253971D01*
X160147D01*
Y253382D01*
X159853D01*
Y253088D01*
X159559D01*
Y252794D01*
X159265D01*
Y252500D01*
X158971D01*
Y252206D01*
X158677D01*
Y250441D01*
X158382D01*
Y248382D01*
X158088D01*
Y246029D01*
X157794D01*
Y243382D01*
X157500D01*
Y239853D01*
X157206D01*
Y236029D01*
Y235735D01*
Y233676D01*
X156912D01*
Y233382D01*
X157206D01*
Y232794D01*
X156912D01*
Y232500D01*
X157206D01*
Y232206D01*
X157794D01*
Y231912D01*
X158971D01*
Y232206D01*
X159265D01*
Y236618D01*
X159559D01*
Y241029D01*
X159853D01*
Y244265D01*
X160147D01*
Y246912D01*
X160441D01*
Y249265D01*
X160735D01*
Y251618D01*
X161029D01*
Y253971D01*
X161324D01*
Y256029D01*
X161618D01*
Y257794D01*
X161912D01*
Y260147D01*
X162206D01*
Y261912D01*
X162500D01*
Y263971D01*
X162794D01*
Y266029D01*
X163088D01*
Y268088D01*
D02*
G37*
G36*
X160147Y267794D02*
X159559D01*
Y267206D01*
X159853D01*
Y267500D01*
X160147D01*
Y267794D01*
D02*
G37*
G36*
X41912Y269853D02*
X40735D01*
Y269559D01*
X41323D01*
Y269265D01*
X42206D01*
Y268971D01*
X42794D01*
Y268676D01*
X43677D01*
Y268382D01*
X44265D01*
Y268088D01*
X45147D01*
Y267794D01*
X45735D01*
Y267500D01*
X46618D01*
Y267206D01*
X47206D01*
Y266912D01*
X48382D01*
Y268088D01*
X47794D01*
Y268382D01*
X47206D01*
Y268676D01*
X46618D01*
Y268971D01*
X44853D01*
Y269265D01*
X43382D01*
Y269559D01*
X41912D01*
Y269853D01*
D02*
G37*
G36*
X50735Y262500D02*
X50147D01*
Y261912D01*
X50441D01*
Y261324D01*
X50735D01*
Y261029D01*
X52794D01*
Y260735D01*
X54853D01*
Y260441D01*
X56912D01*
Y260147D01*
X59265D01*
Y260735D01*
X58382D01*
Y261029D01*
X56912D01*
Y261324D01*
X55441D01*
Y261618D01*
X53677D01*
Y261912D01*
X52206D01*
Y262206D01*
X50735D01*
Y262500D01*
D02*
G37*
G36*
X85147Y293676D02*
X77206D01*
Y293382D01*
X75441D01*
Y293088D01*
X73971D01*
Y292794D01*
X72794D01*
Y292500D01*
X71912D01*
Y292206D01*
X70735D01*
Y291912D01*
X70147D01*
Y291618D01*
X69265D01*
Y291324D01*
X68677D01*
Y291029D01*
X67794D01*
Y290735D01*
X67206D01*
Y290441D01*
X66618D01*
Y290147D01*
X66323D01*
Y289853D01*
X65735D01*
Y289559D01*
X65147D01*
Y289265D01*
X64559D01*
Y288971D01*
X63971D01*
Y288676D01*
X63677D01*
Y288382D01*
X63088D01*
Y288088D01*
X62794D01*
Y287794D01*
X62500D01*
Y287500D01*
X61912D01*
Y287206D01*
X61618D01*
Y286912D01*
X61324D01*
Y286618D01*
X60735D01*
Y286324D01*
X60441D01*
Y286029D01*
X60147D01*
Y285735D01*
X59853D01*
Y285441D01*
X59559D01*
Y285147D01*
X59265D01*
Y284853D01*
X58971D01*
Y284559D01*
X58677D01*
Y284265D01*
X58382D01*
Y283971D01*
X58088D01*
Y283676D01*
X57794D01*
Y283382D01*
X57500D01*
Y283088D01*
X57206D01*
Y282794D01*
X56912D01*
Y282500D01*
X56618D01*
Y282206D01*
X56324D01*
Y281912D01*
X56029D01*
Y281324D01*
X55735D01*
Y281029D01*
X55441D01*
Y280735D01*
X55147D01*
Y280441D01*
X54853D01*
Y279853D01*
X54559D01*
Y279559D01*
X54265D01*
Y278971D01*
X53971D01*
Y278676D01*
X53677D01*
Y278088D01*
X53382D01*
Y277794D01*
X53088D01*
Y277206D01*
X52794D01*
Y276618D01*
X52500D01*
Y276029D01*
X52206D01*
Y275735D01*
X51912D01*
Y275147D01*
X51618D01*
Y274559D01*
X51323D01*
Y273971D01*
X51029D01*
Y273088D01*
X50735D01*
Y272500D01*
X50441D01*
Y271618D01*
X50147D01*
Y271029D01*
X49853D01*
Y270147D01*
X49559D01*
Y268971D01*
X49265D01*
Y268088D01*
X48971D01*
Y266912D01*
X48677D01*
Y265147D01*
X48382D01*
Y263382D01*
X48088D01*
Y260147D01*
X47794D01*
Y257206D01*
X48088D01*
Y253971D01*
X48382D01*
Y251912D01*
X48677D01*
Y250441D01*
X48971D01*
Y249265D01*
X49265D01*
Y248088D01*
X49559D01*
Y247206D01*
X49853D01*
Y246324D01*
X50147D01*
Y245735D01*
X50441D01*
Y244853D01*
X50735D01*
Y243971D01*
X51029D01*
Y243382D01*
X51323D01*
Y242794D01*
X51618D01*
Y242206D01*
X51912D01*
Y241618D01*
X52206D01*
Y241029D01*
X52500D01*
Y240441D01*
X52794D01*
Y240147D01*
X53088D01*
Y239559D01*
X53382D01*
Y238971D01*
X53677D01*
Y238676D01*
X53971D01*
Y238088D01*
X54265D01*
Y237794D01*
X54559D01*
Y237206D01*
X54853D01*
Y236912D01*
X55147D01*
Y236618D01*
X55441D01*
Y236029D01*
X55735D01*
Y235735D01*
X56029D01*
Y235441D01*
X56324D01*
Y235147D01*
X56618D01*
Y234853D01*
X56912D01*
Y234559D01*
X57206D01*
Y233971D01*
X57500D01*
Y233676D01*
X57794D01*
Y233382D01*
X58088D01*
Y233088D01*
X58382D01*
Y232794D01*
X58677D01*
Y232500D01*
X58971D01*
Y232206D01*
X59265D01*
Y231912D01*
X59853D01*
Y231618D01*
X60147D01*
Y231324D01*
X60441D01*
Y231029D01*
X60735D01*
Y230735D01*
X61029D01*
Y230441D01*
X61618D01*
Y230147D01*
X61912D01*
Y229853D01*
X62206D01*
Y229559D01*
X62794D01*
Y229265D01*
X63088D01*
Y228971D01*
X63382D01*
Y228676D01*
X63971D01*
Y228382D01*
X64559D01*
Y228088D01*
X64853D01*
Y227794D01*
X65441D01*
Y227500D01*
X66029D01*
Y227206D01*
X66618D01*
Y226912D01*
X67206D01*
Y226618D01*
X67794D01*
Y226324D01*
X68382D01*
Y226029D01*
X68971D01*
Y225735D01*
X69853D01*
Y225441D01*
X70735D01*
Y225147D01*
X71618D01*
Y224853D01*
X72500D01*
Y224559D01*
X73677D01*
Y224265D01*
X74853D01*
Y223971D01*
X76618D01*
Y223676D01*
X79853D01*
Y223382D01*
X80147D01*
Y223676D01*
X80441D01*
Y223382D01*
X80735D01*
Y223676D01*
X81029D01*
Y223382D01*
X81323D01*
Y223676D01*
X85441D01*
Y224265D01*
X85147D01*
Y228088D01*
X84853D01*
Y231324D01*
X84559D01*
Y234559D01*
X84265D01*
Y237500D01*
X81912D01*
Y237206D01*
X81618D01*
Y237500D01*
X81323D01*
Y236912D01*
X81029D01*
Y236324D01*
X81323D01*
Y228971D01*
X81618D01*
Y224265D01*
X81029D01*
Y223971D01*
X80735D01*
Y224265D01*
X78382D01*
Y224559D01*
X78088D01*
Y224265D01*
X77794D01*
Y224559D01*
X76029D01*
Y224853D01*
X74559D01*
Y225147D01*
X73677D01*
Y225441D01*
X72794D01*
Y225735D01*
X71912D01*
Y226029D01*
X71324D01*
Y226324D01*
X70441D01*
Y227794D01*
X70735D01*
Y228971D01*
X71029D01*
Y230147D01*
X71324D01*
Y231029D01*
X71618D01*
Y232206D01*
X71912D01*
Y233382D01*
X72206D01*
Y234265D01*
X72500D01*
Y235441D01*
X72794D01*
Y236324D01*
X73088D01*
Y237500D01*
X73382D01*
Y238676D01*
X72794D01*
Y238971D01*
X71912D01*
Y239265D01*
X71324D01*
Y239559D01*
X70735D01*
Y239853D01*
X70147D01*
Y240147D01*
X69853D01*
Y240441D01*
X69265D01*
Y240735D01*
X68677D01*
Y241029D01*
X68382D01*
Y241324D01*
X68088D01*
Y241618D01*
X67500D01*
Y241912D01*
X67206D01*
Y242206D01*
X66912D01*
Y242500D01*
X66618D01*
Y242794D01*
X66323D01*
Y243088D01*
X65735D01*
Y243382D01*
X65147D01*
Y242794D01*
X64853D01*
Y242500D01*
X64559D01*
Y241912D01*
X64265D01*
Y241618D01*
X63971D01*
Y241324D01*
X63677D01*
Y240735D01*
X63382D01*
Y240441D01*
X63088D01*
Y239853D01*
X62794D01*
Y239559D01*
X62500D01*
Y239265D01*
X62206D01*
Y238676D01*
X61912D01*
Y238382D01*
X61618D01*
Y237794D01*
X61324D01*
Y237500D01*
X61029D01*
Y236912D01*
X60735D01*
Y236618D01*
X60441D01*
Y236029D01*
X60147D01*
Y235735D01*
X59853D01*
Y235441D01*
X59559D01*
Y234853D01*
X59265D01*
Y234559D01*
X58971D01*
Y234265D01*
X58677D01*
Y234559D01*
X58382D01*
Y234853D01*
X58088D01*
Y235147D01*
X57794D01*
Y235441D01*
X57500D01*
Y235735D01*
X57206D01*
Y236029D01*
X56912D01*
Y236324D01*
X56618D01*
Y236618D01*
X56324D01*
Y236912D01*
X56029D01*
Y237206D01*
X55735D01*
Y237794D01*
X55441D01*
Y238088D01*
X55147D01*
Y238382D01*
X54853D01*
Y238676D01*
X54559D01*
Y239265D01*
X54265D01*
Y239853D01*
X53971D01*
Y240441D01*
X53677D01*
Y241029D01*
X53382D01*
Y241618D01*
X53088D01*
Y242500D01*
X52794D01*
Y243088D01*
X53382D01*
Y243382D01*
X53677D01*
Y243676D01*
X54265D01*
Y243971D01*
X54559D01*
Y244265D01*
X54853D01*
Y244559D01*
X55441D01*
Y244853D01*
X55735D01*
Y245147D01*
X56324D01*
Y245441D01*
X56618D01*
Y245735D01*
X57206D01*
Y246029D01*
X57500D01*
Y246324D01*
X57794D01*
Y246618D01*
X58382D01*
Y246912D01*
X58677D01*
Y247206D01*
X59265D01*
Y247500D01*
X59559D01*
Y247794D01*
X59853D01*
Y248088D01*
X60441D01*
Y248382D01*
X60735D01*
Y248676D01*
X61324D01*
Y248971D01*
X61618D01*
Y249265D01*
X61324D01*
Y249853D01*
X61029D01*
Y250441D01*
X60735D01*
Y251029D01*
X60441D01*
Y251912D01*
X60147D01*
Y252794D01*
X59853D01*
Y253971D01*
X59559D01*
Y255441D01*
X58382D01*
Y255147D01*
X56912D01*
Y254853D01*
X55441D01*
Y254559D01*
X53971D01*
Y254265D01*
X52500D01*
Y253971D01*
X51029D01*
Y253676D01*
X48971D01*
Y253971D01*
X48677D01*
Y261618D01*
X48971D01*
Y263088D01*
X50735D01*
Y262794D01*
X52206D01*
Y262500D01*
X53677D01*
Y262206D01*
X55441D01*
Y261912D01*
X56912D01*
Y261618D01*
X58382D01*
Y261324D01*
X59265D01*
Y262794D01*
X59559D01*
Y263382D01*
X58971D01*
Y263676D01*
X58088D01*
Y263971D01*
X56912D01*
Y264265D01*
X55735D01*
Y264559D01*
X54559D01*
Y264853D01*
X53382D01*
Y265147D01*
X52500D01*
Y265441D01*
X51029D01*
Y265735D01*
X50147D01*
Y266618D01*
X50441D01*
Y267794D01*
X50735D01*
Y268971D01*
X51029D01*
Y269853D01*
X51323D01*
Y270735D01*
X51618D01*
Y271618D01*
X51912D01*
Y272206D01*
X52206D01*
Y272794D01*
X52500D01*
Y273382D01*
X52794D01*
Y273971D01*
X53088D01*
Y274559D01*
X53382D01*
Y274853D01*
X53677D01*
Y275147D01*
X53971D01*
Y275735D01*
X54265D01*
Y276029D01*
X54559D01*
Y276618D01*
X54853D01*
Y276912D01*
X55147D01*
Y277500D01*
X55441D01*
Y277794D01*
X55735D01*
Y278382D01*
X56029D01*
Y278676D01*
X56324D01*
Y278971D01*
X56618D01*
Y279559D01*
X56912D01*
Y279853D01*
X57206D01*
Y280147D01*
X57500D01*
Y280735D01*
X57794D01*
Y281029D01*
X58088D01*
Y281324D01*
X58382D01*
Y281618D01*
X58677D01*
Y282206D01*
X58971D01*
Y282500D01*
X59265D01*
Y282794D01*
X59559D01*
Y283088D01*
X59853D01*
Y283382D01*
X60147D01*
Y283676D01*
X60441D01*
Y283971D01*
X60735D01*
Y284265D01*
X61029D01*
Y284559D01*
X61324D01*
Y284853D01*
X61618D01*
Y285147D01*
X62206D01*
Y285441D01*
X62500D01*
Y285735D01*
X62794D01*
Y286029D01*
X63382D01*
Y286324D01*
X63677D01*
Y286618D01*
X64265D01*
Y286912D01*
X64559D01*
Y287206D01*
X65147D01*
Y287500D01*
X65441D01*
Y287794D01*
X66029D01*
Y288088D01*
X66618D01*
Y288382D01*
X67206D01*
Y288676D01*
X67500D01*
Y288971D01*
X68088D01*
Y289265D01*
X68382D01*
Y289559D01*
X68971D01*
Y289853D01*
X69853D01*
Y290147D01*
X70441D01*
Y290441D01*
X71324D01*
Y290735D01*
X71912D01*
Y291029D01*
X73088D01*
Y291324D01*
X73971D01*
Y291618D01*
X75735D01*
Y291912D01*
X78382D01*
Y292206D01*
X83088D01*
Y291912D01*
X85735D01*
Y291618D01*
X86912D01*
Y291324D01*
X88088D01*
Y291029D01*
X88971D01*
Y290735D01*
X89853D01*
Y290441D01*
X90735D01*
Y290147D01*
X91618D01*
Y289853D01*
X92500D01*
Y289559D01*
X93382D01*
Y289265D01*
X93971D01*
Y288971D01*
X94853D01*
Y288676D01*
X95441D01*
Y288382D01*
X95735D01*
Y288088D01*
X96029D01*
Y287794D01*
X96618D01*
Y287500D01*
X96912D01*
Y287206D01*
X97500D01*
Y286912D01*
X97794D01*
Y286618D01*
X98088D01*
Y286324D01*
X98677D01*
Y286029D01*
X98971D01*
Y285735D01*
X99265D01*
Y285441D01*
X99853D01*
Y285147D01*
X100147D01*
Y284853D01*
X100441D01*
Y284559D01*
X101029D01*
Y284265D01*
X101323D01*
Y283971D01*
X101618D01*
Y283676D01*
X101912D01*
Y283382D01*
X102206D01*
Y283088D01*
X102794D01*
Y282794D01*
X103088D01*
Y282500D01*
X103382D01*
Y282206D01*
X103677D01*
Y281912D01*
X103971D01*
Y281618D01*
X104265D01*
Y281029D01*
X104559D01*
Y280735D01*
X104853D01*
Y280441D01*
X105147D01*
Y280147D01*
X105441D01*
Y279853D01*
X105735D01*
Y279265D01*
X106029D01*
Y278971D01*
X106323D01*
Y278382D01*
X106618D01*
Y278088D01*
X106912D01*
Y277500D01*
X107206D01*
Y277206D01*
X107500D01*
Y276618D01*
X107794D01*
Y276029D01*
X108088D01*
Y275441D01*
X108382D01*
Y274853D01*
X108677D01*
Y274265D01*
X108971D01*
Y273676D01*
X109265D01*
Y273088D01*
X109559D01*
Y272500D01*
X109853D01*
Y271912D01*
X110147D01*
Y271029D01*
X110441D01*
Y270147D01*
X110735D01*
Y269265D01*
X111029D01*
Y268088D01*
X111324D01*
Y266912D01*
X111618D01*
Y266029D01*
X111912D01*
Y264853D01*
X112206D01*
Y263382D01*
X112500D01*
Y262206D01*
X112794D01*
Y260735D01*
X101912D01*
Y259265D01*
X114265D01*
Y263088D01*
X113971D01*
Y265147D01*
X113677D01*
Y266618D01*
X113382D01*
Y267794D01*
X113088D01*
Y268971D01*
X112794D01*
Y269853D01*
X112500D01*
Y270735D01*
X112206D01*
Y271618D01*
X111912D01*
Y272206D01*
X111618D01*
Y273088D01*
X111324D01*
Y273676D01*
X111029D01*
Y274265D01*
X110735D01*
Y274853D01*
X110441D01*
Y275441D01*
X110147D01*
Y276029D01*
X109853D01*
Y276618D01*
X109559D01*
Y277206D01*
X109265D01*
Y277500D01*
X108971D01*
Y278088D01*
X108677D01*
Y278676D01*
X108382D01*
Y278971D01*
X108088D01*
Y279265D01*
X107794D01*
Y279853D01*
X107500D01*
Y280147D01*
X107206D01*
Y280735D01*
X106912D01*
Y281029D01*
X106618D01*
Y281324D01*
X106323D01*
Y281912D01*
X106029D01*
Y282206D01*
X105735D01*
Y282500D01*
X105441D01*
Y282794D01*
X105147D01*
Y283088D01*
X104853D01*
Y283382D01*
X104559D01*
Y283676D01*
X104265D01*
Y283971D01*
X103971D01*
Y284265D01*
X103677D01*
Y284559D01*
X103382D01*
Y284853D01*
X103088D01*
Y285147D01*
X102794D01*
Y285441D01*
X102500D01*
Y285735D01*
X102206D01*
Y286029D01*
X101912D01*
Y286324D01*
X101323D01*
Y286618D01*
X101029D01*
Y286912D01*
X100735D01*
Y287206D01*
X100147D01*
Y287500D01*
X99853D01*
Y287794D01*
X99559D01*
Y288088D01*
X98971D01*
Y288382D01*
X98677D01*
Y288676D01*
X98088D01*
Y288971D01*
X97794D01*
Y289265D01*
X97206D01*
Y289559D01*
X96618D01*
Y289853D01*
X96029D01*
Y290147D01*
X95441D01*
Y290441D01*
X94853D01*
Y290735D01*
X94265D01*
Y291029D01*
X93677D01*
Y291324D01*
X93088D01*
Y291618D01*
X92206D01*
Y291912D01*
X91323D01*
Y292206D01*
X90441D01*
Y292500D01*
X89559D01*
Y292794D01*
X88382D01*
Y293088D01*
X86912D01*
Y293382D01*
X85147D01*
Y293676D01*
D02*
G37*
G36*
X83677Y280147D02*
X77206D01*
Y279853D01*
X75735D01*
Y279559D01*
X74853D01*
Y279265D01*
X73677D01*
Y278971D01*
X73088D01*
Y278676D01*
X72206D01*
Y278382D01*
X71618D01*
Y278088D01*
X71029D01*
Y277794D01*
X70441D01*
Y277500D01*
X70147D01*
Y277206D01*
X69559D01*
Y276912D01*
X69265D01*
Y276618D01*
X68677D01*
Y276324D01*
X68382D01*
Y276029D01*
X67794D01*
Y275735D01*
X67500D01*
Y275441D01*
X67206D01*
Y275147D01*
X66912D01*
Y274853D01*
X66618D01*
Y274559D01*
X66323D01*
Y274265D01*
X65735D01*
Y273971D01*
X65441D01*
Y273382D01*
X65147D01*
Y273088D01*
X64853D01*
Y272794D01*
X64559D01*
Y272500D01*
X64265D01*
Y272206D01*
X63971D01*
Y271618D01*
X63677D01*
Y271324D01*
X63382D01*
Y271029D01*
X63088D01*
Y270441D01*
X62794D01*
Y269853D01*
X62500D01*
Y269559D01*
X62206D01*
Y268971D01*
X61912D01*
Y268382D01*
X61618D01*
Y267500D01*
X61324D01*
Y266912D01*
X61029D01*
Y266029D01*
X60735D01*
Y265147D01*
X60441D01*
Y264265D01*
X60147D01*
Y262794D01*
X59853D01*
Y260441D01*
X59559D01*
Y260147D01*
X59853D01*
Y259853D01*
X59559D01*
Y259559D01*
X59853D01*
Y259265D01*
X59559D01*
Y258676D01*
X59853D01*
Y258088D01*
X59559D01*
Y257794D01*
X59853D01*
Y255441D01*
X60147D01*
Y253971D01*
X60441D01*
Y252794D01*
X60735D01*
Y251912D01*
X61029D01*
Y251324D01*
X61324D01*
Y250735D01*
Y250441D01*
X61618D01*
Y249853D01*
X61912D01*
Y249265D01*
X62206D01*
Y248676D01*
X62500D01*
Y248382D01*
X62794D01*
Y247794D01*
X63088D01*
Y247206D01*
X63382D01*
Y246912D01*
X63677D01*
Y246324D01*
X63971D01*
Y246029D01*
X64265D01*
Y245735D01*
X64559D01*
Y245441D01*
X64853D01*
Y245147D01*
X65147D01*
Y244559D01*
X65441D01*
Y244265D01*
X65735D01*
Y243971D01*
X66029D01*
Y243676D01*
X66323D01*
Y243382D01*
X66618D01*
Y243088D01*
X66912D01*
Y242794D01*
X67500D01*
Y242500D01*
X67794D01*
Y242206D01*
X68088D01*
Y241912D01*
X68677D01*
Y241618D01*
X68971D01*
Y241324D01*
X69559D01*
Y241029D01*
X69853D01*
Y240735D01*
X70441D01*
Y240441D01*
X71029D01*
Y240147D01*
X71618D01*
Y239853D01*
X72206D01*
Y239559D01*
X72794D01*
Y239265D01*
X73677D01*
Y238971D01*
X74559D01*
Y238676D01*
X75441D01*
Y238382D01*
X76912D01*
Y238088D01*
X78971D01*
Y237794D01*
X79265D01*
Y238088D01*
X79853D01*
Y237794D01*
X81323D01*
Y238088D01*
X81618D01*
Y237794D01*
X81912D01*
Y238088D01*
X84265D01*
Y243971D01*
X83971D01*
Y243676D01*
X77500D01*
Y243971D01*
X76323D01*
Y244265D01*
X75441D01*
Y244559D01*
X74853D01*
Y244853D01*
X74265D01*
Y245147D01*
X73677D01*
Y245441D01*
X73088D01*
Y245735D01*
X72500D01*
Y246029D01*
X72206D01*
Y246324D01*
X71618D01*
Y246618D01*
X71324D01*
Y246912D01*
X71029D01*
Y247206D01*
X70735D01*
Y247500D01*
X70441D01*
Y247794D01*
X70147D01*
Y248088D01*
X69853D01*
Y248382D01*
X69559D01*
Y248676D01*
X69265D01*
Y248971D01*
X68971D01*
Y249265D01*
X68677D01*
Y249559D01*
X68382D01*
Y250147D01*
X68088D01*
Y250441D01*
X67794D01*
Y251029D01*
X67500D01*
Y251324D01*
X67206D01*
Y251912D01*
X66912D01*
Y252500D01*
X66618D01*
Y253088D01*
X66323D01*
Y253971D01*
X66029D01*
Y254853D01*
X65735D01*
Y256324D01*
X65441D01*
Y259265D01*
X65147D01*
Y259559D01*
X65441D01*
Y262500D01*
X65735D01*
Y263676D01*
X66029D01*
Y264559D01*
X66323D01*
Y265441D01*
X66618D01*
Y266029D01*
X66912D01*
Y266912D01*
X67206D01*
Y267206D01*
X67500D01*
Y267794D01*
X67794D01*
Y268382D01*
X68088D01*
Y268676D01*
X68382D01*
Y269265D01*
X68677D01*
Y269559D01*
X68971D01*
Y269853D01*
X69265D01*
Y270147D01*
X69559D01*
Y270441D01*
X69853D01*
Y270735D01*
X70147D01*
Y271029D01*
X70441D01*
Y271324D01*
X70735D01*
Y271618D01*
X71029D01*
Y271912D01*
X71324D01*
Y272206D01*
X71912D01*
Y272500D01*
X72206D01*
Y272794D01*
X72794D01*
Y273088D01*
X73088D01*
Y273382D01*
X73677D01*
Y273676D01*
X74265D01*
Y273971D01*
X75147D01*
Y274265D01*
X75735D01*
Y274559D01*
X76618D01*
Y274853D01*
X78088D01*
Y275147D01*
X83382D01*
Y274853D01*
X84559D01*
Y274559D01*
X85735D01*
Y274265D01*
X86324D01*
Y273971D01*
X86912D01*
Y273676D01*
X87500D01*
Y273382D01*
X88088D01*
Y273088D01*
X88677D01*
Y272794D01*
X89265D01*
Y272500D01*
X89559D01*
Y272206D01*
X89853D01*
Y271912D01*
X90441D01*
Y271618D01*
X90735D01*
Y271324D01*
X91029D01*
Y271029D01*
X91323D01*
Y270735D01*
X91618D01*
Y270441D01*
X91912D01*
Y270147D01*
X92206D01*
Y269853D01*
X92500D01*
Y269559D01*
X92794D01*
Y268971D01*
X93088D01*
Y268676D01*
X93382D01*
Y268088D01*
X93677D01*
Y267794D01*
X93971D01*
Y267206D01*
X94265D01*
Y266618D01*
X94559D01*
Y266029D01*
X94853D01*
Y265441D01*
X95147D01*
Y264559D01*
X95441D01*
Y263382D01*
X95735D01*
Y262206D01*
X96029D01*
Y259559D01*
X96324D01*
Y259265D01*
X101323D01*
Y262500D01*
X101029D01*
Y263971D01*
X100735D01*
Y265147D01*
X100441D01*
Y266029D01*
X100147D01*
Y266912D01*
X99853D01*
Y267500D01*
X99559D01*
Y268088D01*
X99265D01*
Y268676D01*
X98971D01*
Y269265D01*
X98677D01*
Y269853D01*
X98382D01*
Y270441D01*
X98088D01*
Y270735D01*
X97794D01*
Y271324D01*
X97500D01*
Y271618D01*
X97206D01*
Y271912D01*
X96912D01*
Y272500D01*
X96618D01*
Y272794D01*
X96324D01*
Y273088D01*
X96029D01*
Y273382D01*
X95735D01*
Y273676D01*
X95441D01*
Y273971D01*
X95147D01*
Y274265D01*
X94853D01*
Y274559D01*
X94559D01*
Y274853D01*
X94265D01*
Y275147D01*
X93971D01*
Y275441D01*
X93677D01*
Y275735D01*
X93088D01*
Y276029D01*
X92794D01*
Y276324D01*
X92500D01*
Y276618D01*
X91912D01*
Y276912D01*
X91618D01*
Y277206D01*
X91029D01*
Y277500D01*
X90735D01*
Y277794D01*
X90147D01*
Y278088D01*
X89559D01*
Y278382D01*
X88971D01*
Y278676D01*
X88088D01*
Y278971D01*
X87206D01*
Y279265D01*
X86324D01*
Y279559D01*
X85147D01*
Y279853D01*
X83677D01*
Y280147D01*
D02*
G37*
G36*
X255147Y260147D02*
X253382D01*
Y259559D01*
X253676D01*
Y259265D01*
X254265D01*
Y258971D01*
X254559D01*
Y258676D01*
X254853D01*
Y258382D01*
X255147D01*
Y258088D01*
X255441D01*
Y259559D01*
X255147D01*
Y260147D01*
D02*
G37*
G36*
X259265Y285735D02*
X258382D01*
Y285441D01*
X257794D01*
Y285147D01*
X257500D01*
Y284853D01*
X257794D01*
Y284265D01*
X257500D01*
Y283088D01*
X257794D01*
Y258382D01*
X258088D01*
Y258088D01*
X257794D01*
Y257500D01*
X258382D01*
Y257206D01*
X258971D01*
Y257500D01*
X259559D01*
Y269265D01*
Y269559D01*
Y270441D01*
X259265D01*
Y283676D01*
X258971D01*
Y284265D01*
X259265D01*
Y284853D01*
X258971D01*
Y285147D01*
X259265D01*
Y285735D01*
D02*
G37*
G36*
X251618Y260735D02*
X239559D01*
Y259559D01*
X239853D01*
Y257500D01*
X240441D01*
Y257206D01*
X241324D01*
Y257500D01*
X241912D01*
Y257206D01*
X253676D01*
Y257500D01*
X254265D01*
Y257206D01*
X254853D01*
Y257794D01*
X254559D01*
Y258088D01*
X254265D01*
Y258382D01*
X253971D01*
Y258676D01*
X253676D01*
Y258971D01*
X253382D01*
Y259265D01*
X252794D01*
Y259559D01*
X252500D01*
Y259853D01*
X252206D01*
Y260147D01*
X251912D01*
Y260441D01*
X251618D01*
Y260735D01*
D02*
G37*
G36*
X259559Y256912D02*
X259265D01*
Y256618D01*
X258676D01*
Y256912D01*
X258382D01*
Y256618D01*
X257794D01*
Y253676D01*
X257500D01*
Y252206D01*
X257206D01*
Y251029D01*
X256912D01*
Y249853D01*
X256618D01*
Y248971D01*
X256324D01*
Y248382D01*
X256029D01*
Y247794D01*
X259559D01*
Y248382D01*
X259853D01*
Y249559D01*
X260147D01*
Y250735D01*
X260441D01*
Y253971D01*
X260147D01*
Y255441D01*
X259853D01*
Y256618D01*
X259559D01*
Y256912D01*
D02*
G37*
G36*
X254853D02*
X254559D01*
Y256618D01*
X254265D01*
Y256912D01*
X253971D01*
Y256618D01*
X253676D01*
Y256912D01*
X241029D01*
Y256618D01*
X240735D01*
Y256912D01*
X240147D01*
Y256618D01*
X239853D01*
Y256029D01*
X240147D01*
Y253088D01*
Y252794D01*
Y252500D01*
X239853D01*
Y250735D01*
X239559D01*
Y249853D01*
X239265D01*
Y249265D01*
X238971D01*
Y248382D01*
X238676D01*
Y247794D01*
X252794D01*
Y248088D01*
X253088D01*
Y248676D01*
X253382D01*
Y249265D01*
X253676D01*
Y249853D01*
X253971D01*
Y250441D01*
X254265D01*
Y251618D01*
X254559D01*
Y253088D01*
X254853D01*
Y254853D01*
X255147D01*
Y256618D01*
X254853D01*
Y256912D01*
D02*
G37*
G36*
X52794Y260441D02*
X50735D01*
Y254265D01*
X51029D01*
Y254559D01*
X52500D01*
Y254853D01*
X53971D01*
Y255147D01*
X55441D01*
Y255441D01*
X56912D01*
Y255735D01*
X58382D01*
Y256029D01*
X59265D01*
Y257794D01*
X58971D01*
Y258088D01*
X59265D01*
Y259265D01*
X58677D01*
Y259559D01*
X56618D01*
Y259853D01*
X54853D01*
Y260147D01*
X52794D01*
Y260441D01*
D02*
G37*
G36*
X49853Y261912D02*
X49559D01*
Y261618D01*
X49265D01*
Y258382D01*
Y258088D01*
Y254265D01*
X50147D01*
Y261324D01*
X49853D01*
Y261912D01*
D02*
G37*
G36*
X188971Y253088D02*
X188382D01*
Y252794D01*
X187794D01*
Y253088D01*
X180735D01*
Y252794D01*
X180441D01*
Y253088D01*
X180147D01*
Y252794D01*
X175735D01*
Y251618D01*
X178382D01*
Y251324D01*
X178676D01*
Y251618D01*
X178971D01*
Y251324D01*
X179559D01*
Y249265D01*
X180735D01*
Y248971D01*
X183088D01*
Y249265D01*
X183382D01*
Y248971D01*
X183971D01*
Y249265D01*
X184559D01*
Y248971D01*
X185147D01*
Y248382D01*
X185735D01*
Y247794D01*
X186029D01*
Y247500D01*
X186324D01*
Y247206D01*
X186618D01*
Y246912D01*
X186912D01*
Y246618D01*
X187206D01*
Y246324D01*
X187500D01*
Y246029D01*
X187794D01*
Y245735D01*
X188088D01*
Y246618D01*
X188382D01*
Y248088D01*
X188676D01*
Y249853D01*
X188971D01*
Y251912D01*
X189265D01*
Y252794D01*
X188971D01*
Y253088D01*
D02*
G37*
G36*
X159265Y253676D02*
X110735D01*
Y253382D01*
X110441D01*
Y253088D01*
X110147D01*
Y252794D01*
X109853D01*
Y252500D01*
X109559D01*
Y251912D01*
X157500D01*
Y252206D01*
X158382D01*
Y252794D01*
X158677D01*
Y253088D01*
X158971D01*
Y253382D01*
X159265D01*
Y253676D01*
D02*
G37*
G36*
X171912Y252794D02*
X161618D01*
Y251324D01*
X161324D01*
Y249265D01*
X161029D01*
Y247206D01*
X160735D01*
Y244265D01*
X160441D01*
Y241029D01*
X160147D01*
Y236912D01*
X159853D01*
Y232794D01*
X161029D01*
Y233382D01*
X161324D01*
Y237500D01*
X161618D01*
Y237794D01*
X162500D01*
Y238088D01*
X163676D01*
Y238382D01*
X163971D01*
Y238676D01*
X162206D01*
Y238971D01*
X161912D01*
Y240441D01*
X162206D01*
Y243676D01*
X162794D01*
Y243971D01*
X164265D01*
Y244265D01*
X165441D01*
Y244559D01*
X166618D01*
Y244853D01*
X161618D01*
Y245147D01*
X161324D01*
Y245441D01*
X161029D01*
Y245735D01*
X161324D01*
Y246029D01*
X161618D01*
Y246324D01*
X161912D01*
Y246618D01*
X162206D01*
Y246912D01*
X162794D01*
Y247206D01*
X163088D01*
Y247500D01*
X163382D01*
Y247794D01*
X163676D01*
Y248088D01*
X163971D01*
Y248382D01*
X164559D01*
Y248676D01*
X164853D01*
Y248971D01*
X165147D01*
Y249265D01*
X165441D01*
Y249559D01*
X165735D01*
Y249853D01*
X166029D01*
Y250147D01*
X166324D01*
Y250441D01*
X166912D01*
Y250735D01*
X167206D01*
Y251029D01*
X167500D01*
Y251324D01*
X168382D01*
Y251618D01*
X168676D01*
Y251324D01*
X168971D01*
Y251618D01*
X171618D01*
Y251324D01*
X171912D01*
Y251618D01*
X172206D01*
Y252500D01*
X171912D01*
Y252794D01*
D02*
G37*
G36*
X178971Y251029D02*
X178382D01*
Y250735D01*
X176029D01*
Y251029D01*
X175735D01*
Y250735D01*
X175441D01*
Y251029D01*
X174853D01*
Y250735D01*
X174265D01*
Y251029D01*
X173971D01*
Y250735D01*
X172206D01*
Y251029D01*
X171912D01*
Y250735D01*
X171618D01*
Y251029D01*
X171324D01*
Y250735D01*
X168971D01*
Y251029D01*
X168676D01*
Y250735D01*
X168382D01*
Y251029D01*
X168088D01*
Y250735D01*
X167794D01*
Y250441D01*
X167500D01*
Y250147D01*
X166912D01*
Y249853D01*
X166618D01*
Y249559D01*
X166324D01*
Y249265D01*
X166029D01*
Y248971D01*
X165735D01*
Y248676D01*
X165441D01*
Y248382D01*
X164853D01*
Y248088D01*
X164559D01*
Y247794D01*
X164265D01*
Y247500D01*
X163971D01*
Y247206D01*
X163676D01*
Y246912D01*
X163382D01*
Y246618D01*
X162794D01*
Y246324D01*
X162500D01*
Y246029D01*
X162206D01*
Y245735D01*
X161912D01*
Y245441D01*
X169265D01*
Y245147D01*
X178088D01*
Y245441D01*
X178676D01*
Y244853D01*
X178382D01*
Y244559D01*
X168382D01*
Y244853D01*
X168088D01*
Y244559D01*
X167794D01*
Y244265D01*
X167500D01*
Y243676D01*
X167206D01*
Y238971D01*
X167500D01*
Y238676D01*
X168088D01*
Y238971D01*
X168676D01*
Y238676D01*
X168971D01*
Y238971D01*
X178971D01*
Y251029D01*
D02*
G37*
G36*
X280147Y252500D02*
X276912D01*
Y250735D01*
X277206D01*
Y250441D01*
X277500D01*
Y250735D01*
X278971D01*
Y250441D01*
X279265D01*
Y250735D01*
X280147D01*
Y252500D01*
D02*
G37*
G36*
X281912Y254853D02*
X280147D01*
Y254559D01*
X279559D01*
Y254265D01*
X279265D01*
Y253971D01*
X278971D01*
Y253382D01*
X278676D01*
Y253088D01*
X280147D01*
Y252794D01*
X280441D01*
Y252500D01*
X280735D01*
Y250147D01*
X280441D01*
Y249853D01*
X279559D01*
Y249559D01*
X279853D01*
Y249265D01*
X280735D01*
Y248971D01*
X281324D01*
Y249265D01*
X282206D01*
Y249559D01*
X282500D01*
Y249853D01*
X282794D01*
Y250147D01*
X283088D01*
Y250735D01*
X283382D01*
Y253382D01*
X283088D01*
Y253971D01*
X282794D01*
Y254265D01*
X282500D01*
Y254559D01*
X281912D01*
Y254853D01*
D02*
G37*
G36*
X184265Y248676D02*
X183676D01*
Y248382D01*
X183382D01*
Y248676D01*
X183088D01*
Y248382D01*
X180441D01*
Y248676D01*
X180147D01*
Y248382D01*
X179853D01*
Y248676D01*
X179559D01*
Y226912D01*
X179265D01*
Y220735D01*
Y220441D01*
Y219265D01*
X179559D01*
Y218971D01*
X179853D01*
Y219265D01*
X183382D01*
Y219559D01*
X183971D01*
Y219853D01*
X184559D01*
Y220147D01*
X185147D01*
Y220441D01*
X185735D01*
Y220735D01*
X186324D01*
Y221029D01*
X186912D01*
Y221324D01*
X187794D01*
Y221618D01*
X188382D01*
Y221912D01*
X188971D01*
Y222206D01*
X189559D01*
Y222500D01*
X190147D01*
Y222794D01*
X190735D01*
Y223088D01*
X191324D01*
Y223382D01*
X191912D01*
Y223676D01*
X192500D01*
Y223971D01*
X193382D01*
Y225147D01*
X193676D01*
Y226324D01*
X193971D01*
Y227500D01*
X194265D01*
Y229265D01*
X194559D01*
Y234559D01*
X194265D01*
Y236324D01*
X193971D01*
Y237794D01*
X193676D01*
Y238971D01*
X193382D01*
Y239265D01*
X193088D01*
Y239559D01*
X192794D01*
Y239853D01*
X192500D01*
Y240147D01*
X192206D01*
Y240441D01*
X191912D01*
Y240735D01*
X191618D01*
Y241029D01*
X191324D01*
Y241324D01*
X191029D01*
Y241618D01*
X190735D01*
Y241912D01*
X190441D01*
Y242206D01*
X190147D01*
Y242500D01*
X189853D01*
Y242794D01*
X189559D01*
Y243382D01*
X189265D01*
Y243676D01*
X188676D01*
Y243971D01*
X188382D01*
Y244265D01*
X188088D01*
Y244853D01*
X187794D01*
Y245147D01*
X187500D01*
Y245441D01*
X187206D01*
Y245735D01*
X186912D01*
Y246029D01*
X186618D01*
Y246324D01*
X186324D01*
Y246618D01*
X186029D01*
Y247206D01*
X185735D01*
Y247500D01*
X185441D01*
Y247794D01*
X185147D01*
Y248088D01*
X184853D01*
Y248382D01*
X184265D01*
Y248676D01*
D02*
G37*
G36*
X252206Y247206D02*
X250147D01*
Y246912D01*
X250441D01*
Y246618D01*
X251912D01*
Y246912D01*
X252206D01*
Y247206D01*
D02*
G37*
G36*
X234853D02*
X233088D01*
Y246324D01*
X233676D01*
Y246029D01*
X233971D01*
Y246324D01*
X234265D01*
Y246618D01*
X234559D01*
Y246912D01*
X234853D01*
Y247206D01*
D02*
G37*
G36*
X260441Y258088D02*
X260147D01*
Y256912D01*
X260441D01*
Y255441D01*
X260735D01*
Y253971D01*
X261029D01*
Y250735D01*
X260735D01*
Y249265D01*
X260441D01*
Y248088D01*
X260147D01*
Y247206D01*
X256324D01*
Y246912D01*
X256618D01*
Y246618D01*
X256912D01*
Y246324D01*
X257500D01*
Y246029D01*
X258382D01*
Y245735D01*
X258971D01*
Y246029D01*
X259853D01*
Y246324D01*
X260441D01*
Y246618D01*
X260735D01*
Y246912D01*
X261029D01*
Y247206D01*
X261324D01*
Y247794D01*
X261618D01*
Y248382D01*
X261912D01*
Y248971D01*
X262206D01*
Y250147D01*
X262500D01*
Y254559D01*
X262206D01*
Y255735D01*
X261912D01*
Y256324D01*
X261618D01*
Y256912D01*
X261324D01*
Y257206D01*
X261029D01*
Y257794D01*
X260441D01*
Y258088D01*
D02*
G37*
G36*
X256029Y262500D02*
X254265D01*
Y262206D01*
X252500D01*
Y261912D01*
X251324D01*
Y261618D01*
X250735D01*
Y261324D01*
X251912D01*
Y261029D01*
X252206D01*
Y260735D01*
X252500D01*
Y260441D01*
X252794D01*
Y260735D01*
X255441D01*
Y260441D01*
X255735D01*
Y259559D01*
X256029D01*
Y256912D01*
X255735D01*
Y254853D01*
X255441D01*
Y253088D01*
X255147D01*
Y251618D01*
X254853D01*
Y250441D01*
X254559D01*
Y249559D01*
X254265D01*
Y248971D01*
X253971D01*
Y248382D01*
X253676D01*
Y248088D01*
X253382D01*
Y247500D01*
X253088D01*
Y247206D01*
X252794D01*
Y246618D01*
X252500D01*
Y246324D01*
X252206D01*
Y246029D01*
X251912D01*
Y245441D01*
X251618D01*
Y245147D01*
X251029D01*
Y244853D01*
X250147D01*
Y245441D01*
X250735D01*
Y245735D01*
X251324D01*
Y246029D01*
X250147D01*
Y246324D01*
X249853D01*
Y246618D01*
X249559D01*
Y246912D01*
X249265D01*
Y247206D01*
X247206D01*
Y246324D01*
X247500D01*
Y245441D01*
X247794D01*
Y244853D01*
X248088D01*
Y244559D01*
X248676D01*
Y244265D01*
X248971D01*
Y243971D01*
X249853D01*
Y243676D01*
X252206D01*
Y243971D01*
X252794D01*
Y244265D01*
X253088D01*
Y244853D01*
X253382D01*
Y245147D01*
X253676D01*
Y245441D01*
X253971D01*
Y246029D01*
X254265D01*
Y246324D01*
X254559D01*
Y246912D01*
X254853D01*
Y247500D01*
X255147D01*
Y247794D01*
X255441D01*
Y248382D01*
X255735D01*
Y249265D01*
X256029D01*
Y250147D01*
X256324D01*
Y251029D01*
X256618D01*
Y252206D01*
X256912D01*
Y253676D01*
X257206D01*
Y257206D01*
X257500D01*
Y257794D01*
X257206D01*
Y260441D01*
X256912D01*
Y261324D01*
X256618D01*
Y262206D01*
X256029D01*
Y262500D01*
D02*
G37*
G36*
X83382Y274559D02*
X78088D01*
Y274265D01*
X76912D01*
Y273971D01*
X75735D01*
Y273676D01*
X75147D01*
Y273382D01*
X74559D01*
Y273088D01*
X73971D01*
Y272794D01*
X73382D01*
Y272500D01*
X72794D01*
Y272206D01*
X72500D01*
Y271912D01*
X71912D01*
Y271618D01*
X71618D01*
Y271324D01*
X71324D01*
Y271029D01*
X71029D01*
Y270735D01*
X70735D01*
Y270441D01*
X70441D01*
Y270147D01*
X70147D01*
Y269853D01*
X69853D01*
Y269559D01*
X69559D01*
Y269265D01*
X69265D01*
Y268971D01*
X68971D01*
Y268382D01*
X68677D01*
Y268088D01*
X68382D01*
Y267794D01*
X68088D01*
Y267206D01*
X67794D01*
Y266618D01*
X67500D01*
Y266029D01*
X67206D01*
Y265441D01*
X66912D01*
Y264559D01*
X66618D01*
Y263676D01*
X66323D01*
Y262500D01*
X66029D01*
Y260147D01*
X65735D01*
Y259265D01*
X66029D01*
Y256324D01*
X66323D01*
Y254853D01*
X66618D01*
Y254265D01*
X66912D01*
Y253382D01*
X67206D01*
Y252794D01*
X67500D01*
Y252206D01*
X67794D01*
Y251618D01*
X68088D01*
Y251029D01*
X68382D01*
Y250735D01*
X68677D01*
Y250147D01*
X68971D01*
Y249853D01*
X69265D01*
Y249559D01*
X69559D01*
Y249265D01*
X69853D01*
Y248676D01*
X70147D01*
Y248382D01*
X70441D01*
Y248088D01*
X70735D01*
Y247794D01*
X71029D01*
Y247500D01*
X71618D01*
Y247206D01*
X71912D01*
Y246912D01*
X72206D01*
Y246618D01*
X72794D01*
Y246324D01*
X73088D01*
Y246029D01*
X73677D01*
Y245735D01*
X74265D01*
Y245441D01*
X74853D01*
Y245147D01*
X75735D01*
Y244853D01*
X76618D01*
Y244559D01*
X77794D01*
Y244265D01*
X79265D01*
Y243971D01*
X81912D01*
Y244265D01*
X83971D01*
Y244559D01*
X84265D01*
Y245441D01*
X84559D01*
Y246324D01*
X84853D01*
Y247206D01*
X85147D01*
Y248088D01*
X85441D01*
Y248971D01*
X85735D01*
Y249559D01*
X86029D01*
Y250147D01*
X86324D01*
Y250441D01*
X86618D01*
Y251029D01*
X86912D01*
Y251618D01*
X87206D01*
Y251912D01*
X87500D01*
Y252206D01*
X87794D01*
Y252794D01*
X88088D01*
Y253088D01*
X88382D01*
Y253382D01*
X88677D01*
Y253676D01*
X88971D01*
Y253971D01*
X89265D01*
Y254265D01*
X89559D01*
Y254559D01*
X89853D01*
Y254853D01*
X90147D01*
Y255147D01*
X90441D01*
Y255441D01*
X90735D01*
Y255735D01*
X91029D01*
Y256029D01*
X91618D01*
Y256324D01*
X91912D01*
Y256618D01*
X92206D01*
Y256912D01*
X92794D01*
Y257206D01*
X93088D01*
Y257500D01*
X93382D01*
Y257794D01*
X93971D01*
Y258088D01*
X94265D01*
Y258382D01*
X94853D01*
Y258676D01*
X95147D01*
Y258971D01*
X95441D01*
Y262206D01*
X95147D01*
Y263382D01*
X94853D01*
Y264559D01*
X94559D01*
Y265147D01*
X94265D01*
Y266029D01*
X93971D01*
Y266618D01*
X93677D01*
Y267206D01*
X93382D01*
Y267500D01*
X93088D01*
Y268088D01*
X92794D01*
Y268382D01*
X92500D01*
Y268676D01*
X92206D01*
Y269265D01*
X91912D01*
Y269559D01*
X91618D01*
Y269853D01*
X91323D01*
Y270147D01*
X91029D01*
Y270441D01*
X90735D01*
Y270735D01*
X90441D01*
Y271029D01*
X90147D01*
Y271324D01*
X89853D01*
Y271618D01*
X89265D01*
Y271912D01*
X88971D01*
Y272206D01*
X88382D01*
Y272500D01*
X88088D01*
Y272794D01*
X87500D01*
Y273088D01*
X86912D01*
Y273382D01*
X86324D01*
Y273676D01*
X85441D01*
Y273971D01*
X84559D01*
Y274265D01*
X83382D01*
Y274559D01*
D02*
G37*
G36*
X97206Y258676D02*
X95441D01*
Y258382D01*
X95147D01*
Y258088D01*
X94853D01*
Y257794D01*
X94559D01*
Y257500D01*
X93971D01*
Y257206D01*
X93677D01*
Y256912D01*
X93382D01*
Y256618D01*
X92794D01*
Y256324D01*
X92500D01*
Y256029D01*
X92206D01*
Y255735D01*
X91618D01*
Y255441D01*
X91323D01*
Y255147D01*
X91029D01*
Y254853D01*
X90735D01*
Y254559D01*
X90441D01*
Y254265D01*
X90147D01*
Y253971D01*
X89853D01*
Y253676D01*
X89559D01*
Y253382D01*
X89265D01*
Y253088D01*
X88971D01*
Y252794D01*
X88677D01*
Y252500D01*
X88382D01*
Y252206D01*
X88088D01*
Y251618D01*
X87794D01*
Y251324D01*
X87500D01*
Y250735D01*
X87206D01*
Y250441D01*
X86912D01*
Y249853D01*
X86618D01*
Y249265D01*
X86324D01*
Y248676D01*
X86029D01*
Y248088D01*
X85735D01*
Y247206D01*
X85441D01*
Y246324D01*
X85147D01*
Y245441D01*
X84853D01*
Y243382D01*
X85147D01*
Y243971D01*
X85441D01*
Y244559D01*
X85735D01*
Y245147D01*
X86029D01*
Y245735D01*
X86324D01*
Y246324D01*
X86618D01*
Y246912D01*
X86912D01*
Y247500D01*
X87206D01*
Y248088D01*
X87500D01*
Y248676D01*
X87794D01*
Y248971D01*
X88088D01*
Y249559D01*
X88382D01*
Y249853D01*
X88677D01*
Y250441D01*
X88971D01*
Y250735D01*
X89265D01*
Y251029D01*
X89559D01*
Y251324D01*
X89853D01*
Y251912D01*
X90147D01*
Y252206D01*
X90441D01*
Y252500D01*
X90735D01*
Y252794D01*
X91029D01*
Y253088D01*
X91323D01*
Y253382D01*
X91618D01*
Y253676D01*
X91912D01*
Y253971D01*
X92206D01*
Y254265D01*
X92500D01*
Y254559D01*
X92794D01*
Y254853D01*
X93088D01*
Y255147D01*
X93382D01*
Y255441D01*
X93677D01*
Y255735D01*
X93971D01*
Y256029D01*
X94265D01*
Y256324D01*
X94853D01*
Y256618D01*
X95147D01*
Y256912D01*
X95441D01*
Y257206D01*
X95735D01*
Y257500D01*
X96029D01*
Y257794D01*
X96324D01*
Y258088D01*
X96912D01*
Y258382D01*
X97206D01*
Y258676D01*
D02*
G37*
G36*
X275441Y261618D02*
X274853D01*
Y261324D01*
X273382D01*
Y261029D01*
X271912D01*
Y260735D01*
X270441D01*
Y260441D01*
X268971D01*
Y260147D01*
X267794D01*
Y259853D01*
X266324D01*
Y259559D01*
X264853D01*
Y259265D01*
X263382D01*
Y258971D01*
X261912D01*
Y258676D01*
X260735D01*
Y258382D01*
X261029D01*
Y258088D01*
X261324D01*
Y257794D01*
X261618D01*
Y257500D01*
X261912D01*
Y256912D01*
X262206D01*
Y256324D01*
X262500D01*
Y255735D01*
X262794D01*
Y254559D01*
X263088D01*
Y249853D01*
X262794D01*
Y248971D01*
X262500D01*
Y248088D01*
X262206D01*
Y247500D01*
X261912D01*
Y247206D01*
X261618D01*
Y246618D01*
X261324D01*
Y246324D01*
X261029D01*
Y246029D01*
X260441D01*
Y245735D01*
X260147D01*
Y245441D01*
X261029D01*
Y245147D01*
X262500D01*
Y244853D01*
X263971D01*
Y244559D01*
X265441D01*
Y244265D01*
X267206D01*
Y243971D01*
X268676D01*
Y243676D01*
X270147D01*
Y243382D01*
X271618D01*
Y243088D01*
X273382D01*
Y242794D01*
X274265D01*
Y243676D01*
X274559D01*
Y244265D01*
X274853D01*
Y244853D01*
X275147D01*
Y245735D01*
X275441D01*
Y246618D01*
X275735D01*
Y247794D01*
X276029D01*
Y249559D01*
X276324D01*
Y256324D01*
X276029D01*
Y258382D01*
X275735D01*
Y260147D01*
X275441D01*
Y261029D01*
Y261324D01*
Y261618D01*
D02*
G37*
G36*
X61912Y248382D02*
X61324D01*
Y248088D01*
X61029D01*
Y247794D01*
X60735D01*
Y247500D01*
X60147D01*
Y247206D01*
X59853D01*
Y246912D01*
X59265D01*
Y246618D01*
X58971D01*
Y246324D01*
X58382D01*
Y246029D01*
X58088D01*
Y245735D01*
X57794D01*
Y245441D01*
X57206D01*
Y245147D01*
X56912D01*
Y244853D01*
X56324D01*
Y244559D01*
X56029D01*
Y244265D01*
X55441D01*
Y243971D01*
X55147D01*
Y243676D01*
X54853D01*
Y243382D01*
X54265D01*
Y243088D01*
X53971D01*
Y242794D01*
X54265D01*
Y242500D01*
X54853D01*
Y242794D01*
X55441D01*
Y243088D01*
X55735D01*
Y243382D01*
X56324D01*
Y243676D01*
X56618D01*
Y243971D01*
X56912D01*
Y244265D01*
X57500D01*
Y244559D01*
X57794D01*
Y244853D01*
X58088D01*
Y245147D01*
X58677D01*
Y245441D01*
X58971D01*
Y245735D01*
X59559D01*
Y246029D01*
X59853D01*
Y246324D01*
X60147D01*
Y246618D01*
X60735D01*
Y246912D01*
X61029D01*
Y247206D01*
X61618D01*
Y247500D01*
X61912D01*
Y247794D01*
X62206D01*
Y248088D01*
X61912D01*
Y248382D01*
D02*
G37*
G36*
X166912Y243971D02*
X165441D01*
Y243676D01*
X164265D01*
Y243382D01*
X163088D01*
Y243088D01*
X162794D01*
Y241618D01*
Y241324D01*
Y240147D01*
X162500D01*
Y239265D01*
X164265D01*
Y238971D01*
X166618D01*
Y243676D01*
X166912D01*
Y243971D01*
D02*
G37*
G36*
X62794Y247206D02*
X62206D01*
Y246912D01*
X61618D01*
Y246618D01*
X61324D01*
Y246324D01*
X60735D01*
Y246029D01*
X60441D01*
Y245735D01*
X60147D01*
Y245441D01*
X59559D01*
Y245147D01*
X59265D01*
Y244853D01*
X58677D01*
Y244559D01*
X58382D01*
Y244265D01*
X58088D01*
Y243971D01*
X57500D01*
Y243676D01*
X57206D01*
Y243382D01*
X56912D01*
Y243088D01*
X56324D01*
Y242794D01*
X56029D01*
Y242500D01*
X55441D01*
Y241618D01*
X55735D01*
Y241324D01*
Y240735D01*
X56029D01*
Y240147D01*
X56324D01*
Y239559D01*
X56618D01*
Y239265D01*
X56912D01*
Y238971D01*
X57206D01*
Y238676D01*
X57500D01*
Y238382D01*
X57794D01*
Y238088D01*
X58088D01*
Y237794D01*
X58382D01*
Y237500D01*
X58677D01*
Y237206D01*
X59265D01*
Y236912D01*
X59559D01*
Y236618D01*
X59853D01*
Y236912D01*
X60147D01*
Y237206D01*
X60441D01*
Y237500D01*
X60735D01*
Y238088D01*
X61029D01*
Y238382D01*
X61324D01*
Y238971D01*
X61618D01*
Y239265D01*
X61912D01*
Y239853D01*
X62206D01*
Y240147D01*
X62500D01*
Y240441D01*
X62794D01*
Y241029D01*
X63088D01*
Y241324D01*
X63382D01*
Y241912D01*
X63677D01*
Y242206D01*
X63971D01*
Y242500D01*
X64265D01*
Y243088D01*
X64559D01*
Y243382D01*
X64853D01*
Y244559D01*
X64559D01*
Y244853D01*
X64265D01*
Y245147D01*
X63971D01*
Y245441D01*
X63677D01*
Y245735D01*
X63382D01*
Y246324D01*
X63088D01*
Y246618D01*
X62794D01*
Y247206D01*
D02*
G37*
G36*
X54265Y242206D02*
X53677D01*
Y241912D01*
X53971D01*
Y241029D01*
X54265D01*
Y240441D01*
X54559D01*
Y239853D01*
X54853D01*
Y239559D01*
X55147D01*
Y238971D01*
X55441D01*
Y238676D01*
X55735D01*
Y238382D01*
X56029D01*
Y237794D01*
X56324D01*
Y237500D01*
X56618D01*
Y237206D01*
X56912D01*
Y236912D01*
X57206D01*
Y236618D01*
X57500D01*
Y236324D01*
X57794D01*
Y236029D01*
X58088D01*
Y235735D01*
X58382D01*
Y235441D01*
X58677D01*
Y235147D01*
X58971D01*
Y235441D01*
X59265D01*
Y236324D01*
X58971D01*
Y236618D01*
X58677D01*
Y236912D01*
X58088D01*
Y237206D01*
X57794D01*
Y237500D01*
X57500D01*
Y237794D01*
X57206D01*
Y238088D01*
X56912D01*
Y238382D01*
X56618D01*
Y238676D01*
X56324D01*
Y238971D01*
X56029D01*
Y239559D01*
X55735D01*
Y240147D01*
X55441D01*
Y240735D01*
X55147D01*
Y241324D01*
X54853D01*
Y241912D01*
X54265D01*
Y242206D01*
D02*
G37*
G36*
X205147Y268088D02*
X204559D01*
Y267206D01*
X204853D01*
Y266029D01*
X205147D01*
Y265147D01*
X205441D01*
Y264265D01*
X205735D01*
Y263382D01*
X206029D01*
Y262206D01*
X206324D01*
Y261029D01*
X206618D01*
Y259559D01*
X206912D01*
Y257794D01*
X207206D01*
Y247500D01*
X206912D01*
Y243676D01*
X206618D01*
Y241029D01*
X206324D01*
Y239265D01*
X206029D01*
Y237794D01*
X205735D01*
Y236324D01*
X205441D01*
Y235441D01*
X205147D01*
Y234265D01*
X204853D01*
Y233382D01*
X204559D01*
Y232500D01*
X205441D01*
Y232794D01*
X206029D01*
Y233088D01*
X206912D01*
Y233382D01*
X207500D01*
Y233676D01*
X208382D01*
Y233971D01*
X208971D01*
Y234265D01*
X209853D01*
Y234559D01*
X210441D01*
Y234853D01*
X211324D01*
Y235147D01*
X211618D01*
Y235441D01*
X211912D01*
Y236029D01*
X212206D01*
Y236324D01*
X212500D01*
Y236618D01*
X212794D01*
Y236912D01*
X213088D01*
Y237500D01*
X213382D01*
Y237794D01*
X213676D01*
Y238088D01*
X213971D01*
Y238382D01*
X214265D01*
Y238971D01*
X214559D01*
Y239265D01*
X214853D01*
Y239559D01*
X215147D01*
Y240147D01*
X215441D01*
Y240441D01*
X215735D01*
Y240735D01*
X216029D01*
Y241029D01*
X216324D01*
Y241618D01*
X216618D01*
Y241912D01*
X216912D01*
Y242500D01*
X217206D01*
Y242794D01*
X217500D01*
Y243382D01*
X217794D01*
Y243676D01*
X218088D01*
Y244265D01*
X218382D01*
Y244853D01*
X218676D01*
Y245735D01*
X218971D01*
Y246618D01*
X219265D01*
Y247500D01*
X219559D01*
Y249265D01*
X219853D01*
Y253088D01*
X220147D01*
Y253676D01*
X219853D01*
Y255735D01*
X219559D01*
Y256618D01*
X219265D01*
Y257206D01*
X218971D01*
Y258088D01*
X218676D01*
Y258676D01*
X218382D01*
Y259265D01*
X218088D01*
Y259853D01*
X217794D01*
Y260441D01*
X217500D01*
Y261029D01*
X217206D01*
Y261324D01*
X216912D01*
Y261618D01*
X216618D01*
Y261912D01*
X216324D01*
Y262206D01*
X216029D01*
Y262500D01*
X215735D01*
Y262794D01*
X215441D01*
Y263088D01*
X215147D01*
Y263382D01*
X214853D01*
Y263676D01*
X214559D01*
Y263971D01*
X214265D01*
Y264265D01*
X213971D01*
Y264559D01*
X213676D01*
Y264853D01*
X213382D01*
Y265147D01*
X213088D01*
Y265441D01*
X212794D01*
Y265735D01*
X212500D01*
Y266029D01*
X212206D01*
Y266324D01*
X211912D01*
Y266618D01*
X210441D01*
Y266912D01*
X209265D01*
Y267206D01*
X207794D01*
Y267500D01*
X206618D01*
Y267794D01*
X205147D01*
Y268088D01*
D02*
G37*
G36*
X157794Y249853D02*
X157500D01*
Y249559D01*
Y249265D01*
Y248676D01*
X157206D01*
Y247794D01*
X156912D01*
Y246912D01*
X156618D01*
Y245735D01*
X156323D01*
Y244853D01*
X156029D01*
Y243971D01*
X155735D01*
Y243088D01*
X155441D01*
Y242500D01*
X155147D01*
Y241618D01*
X154853D01*
Y240735D01*
X154559D01*
Y240147D01*
X154265D01*
Y239559D01*
X153971D01*
Y238971D01*
X153677D01*
Y238676D01*
X153382D01*
Y238088D01*
X153088D01*
Y237500D01*
X152794D01*
Y237206D01*
X152500D01*
Y236618D01*
X152206D01*
Y236029D01*
X151912D01*
Y235735D01*
X151618D01*
Y235147D01*
X151323D01*
Y234853D01*
X151029D01*
Y234265D01*
X150735D01*
Y233971D01*
X150441D01*
Y233382D01*
X151029D01*
Y233088D01*
X152794D01*
Y232794D01*
X154265D01*
Y232500D01*
X156029D01*
Y232206D01*
X156323D01*
Y232794D01*
X156618D01*
Y239853D01*
X156912D01*
Y243382D01*
X157206D01*
Y246324D01*
X157500D01*
Y248382D01*
X157794D01*
Y249853D01*
D02*
G37*
G36*
X204559Y232500D02*
X204265D01*
Y232206D01*
X204559D01*
Y232500D01*
D02*
G37*
G36*
X178382Y238382D02*
X168088D01*
Y238088D01*
X167500D01*
Y237794D01*
X167206D01*
Y237206D01*
X166912D01*
Y236029D01*
X166618D01*
Y232500D01*
X166912D01*
Y231912D01*
X167206D01*
Y231618D01*
X167500D01*
Y231912D01*
X167794D01*
Y231618D01*
X168382D01*
Y231912D01*
X178382D01*
Y231618D01*
X178676D01*
Y231912D01*
X178971D01*
Y238088D01*
X178382D01*
Y238382D01*
D02*
G37*
G36*
X161618Y232206D02*
X159853D01*
Y231912D01*
X159559D01*
Y231618D01*
X161029D01*
Y231324D01*
X162500D01*
Y231618D01*
X161912D01*
Y231912D01*
X161618D01*
Y232206D01*
D02*
G37*
G36*
X178382Y231324D02*
X168971D01*
Y231029D01*
X168676D01*
Y231324D01*
X168382D01*
Y231029D01*
X166912D01*
Y226324D01*
X166618D01*
Y217794D01*
X166324D01*
Y217500D01*
X166618D01*
Y216912D01*
X166912D01*
Y216618D01*
X168382D01*
Y216324D01*
X168676D01*
Y216618D01*
X168971D01*
Y216324D01*
X173676D01*
Y216618D01*
X173971D01*
Y216324D01*
X174265D01*
Y216618D01*
X176029D01*
Y216324D01*
X178676D01*
Y220441D01*
Y220735D01*
Y227206D01*
X178971D01*
Y231029D01*
X178382D01*
Y231324D01*
D02*
G37*
G36*
X166912Y238088D02*
X165441D01*
Y237794D01*
X163676D01*
Y237500D01*
X162794D01*
Y237206D01*
X161912D01*
Y233382D01*
X161618D01*
Y233088D01*
X161912D01*
Y232500D01*
X162206D01*
Y232206D01*
X162500D01*
Y231912D01*
X162794D01*
Y231618D01*
X163382D01*
Y231324D01*
X163676D01*
Y231029D01*
X164265D01*
Y230735D01*
X164559D01*
Y230441D01*
X164853D01*
Y230147D01*
X165147D01*
Y229853D01*
X165441D01*
Y229559D01*
X165735D01*
Y229265D01*
X166324D01*
Y232206D01*
X166029D01*
Y236324D01*
X166324D01*
Y237206D01*
X166618D01*
Y237794D01*
X166912D01*
Y238088D01*
D02*
G37*
G36*
X151029Y232794D02*
X149853D01*
Y232500D01*
X149559D01*
Y231912D01*
X149265D01*
Y231618D01*
X150735D01*
Y231324D01*
X152206D01*
Y231029D01*
X153971D01*
Y230735D01*
X155735D01*
Y230441D01*
X157500D01*
Y230147D01*
X158971D01*
Y229853D01*
X160735D01*
Y229559D01*
X162500D01*
Y229265D01*
X164853D01*
Y229559D01*
X164559D01*
Y229853D01*
X164265D01*
Y230147D01*
X163676D01*
Y230441D01*
X162500D01*
Y230735D01*
X160735D01*
Y231029D01*
X159265D01*
Y231324D01*
X157794D01*
Y231618D01*
X156029D01*
Y231912D01*
X154265D01*
Y232206D01*
X152794D01*
Y232500D01*
X151029D01*
Y232794D01*
D02*
G37*
G36*
X157500Y251324D02*
X108677D01*
Y251029D01*
X108382D01*
Y250735D01*
X108088D01*
Y250441D01*
X107794D01*
Y249853D01*
X107500D01*
Y249559D01*
X107206D01*
Y249265D01*
X106912D01*
Y248971D01*
X106618D01*
Y248676D01*
X106323D01*
Y248088D01*
X106029D01*
Y247794D01*
X105735D01*
Y247500D01*
X105441D01*
Y247206D01*
X105147D01*
Y246912D01*
X104853D01*
Y246618D01*
X104559D01*
Y246029D01*
X104265D01*
Y245735D01*
X103971D01*
Y245441D01*
X103677D01*
Y245147D01*
X103382D01*
Y244853D01*
X103088D01*
Y244559D01*
X102794D01*
Y243971D01*
X102500D01*
Y243676D01*
X102206D01*
Y243382D01*
X101912D01*
Y243088D01*
X101618D01*
Y242794D01*
X101323D01*
Y242500D01*
X101029D01*
Y242206D01*
X100735D01*
Y241912D01*
X100441D01*
Y241618D01*
X100147D01*
Y241029D01*
X99853D01*
Y240735D01*
X99559D01*
Y240441D01*
X99265D01*
Y240147D01*
X98971D01*
Y239853D01*
X98677D01*
Y239559D01*
X98382D01*
Y239265D01*
X98088D01*
Y238971D01*
X97794D01*
Y238382D01*
X97500D01*
Y238088D01*
X97206D01*
Y237794D01*
X96912D01*
Y237500D01*
X96618D01*
Y237206D01*
X96324D01*
Y236912D01*
X96029D01*
Y236324D01*
X95735D01*
Y236029D01*
X95441D01*
Y235735D01*
X95147D01*
Y235441D01*
X94853D01*
Y234853D01*
X94559D01*
Y234559D01*
X94265D01*
Y234265D01*
X93971D01*
Y233971D01*
X93677D01*
Y233382D01*
X93382D01*
Y233088D01*
X93088D01*
Y232794D01*
X92794D01*
Y232206D01*
X92500D01*
Y231912D01*
X92206D01*
Y231618D01*
X91912D01*
Y231029D01*
X91618D01*
Y230735D01*
X91323D01*
Y230147D01*
X91029D01*
Y229853D01*
X90735D01*
Y229559D01*
X90441D01*
Y228971D01*
X90147D01*
Y228676D01*
X89853D01*
Y228088D01*
X89559D01*
Y227794D01*
X89265D01*
Y227500D01*
X88971D01*
Y226912D01*
X88677D01*
Y226618D01*
X88382D01*
Y226029D01*
X88088D01*
Y225735D01*
X87794D01*
Y225147D01*
X87500D01*
Y224853D01*
X87206D01*
Y224559D01*
X86912D01*
Y224265D01*
X87500D01*
Y224559D01*
X88382D01*
Y224853D01*
X88971D01*
Y225147D01*
X89853D01*
Y225441D01*
X90441D01*
Y225735D01*
X91029D01*
Y226029D01*
X91912D01*
Y226324D01*
X92500D01*
Y226618D01*
X93382D01*
Y226912D01*
X93971D01*
Y227206D01*
X94853D01*
Y227500D01*
X95441D01*
Y227794D01*
X96324D01*
Y228088D01*
X96912D01*
Y228382D01*
X97500D01*
Y228676D01*
X97794D01*
Y228382D01*
X98382D01*
Y228676D01*
X105441D01*
Y228382D01*
X105735D01*
Y228676D01*
X106323D01*
Y228382D01*
X106618D01*
Y228676D01*
X107206D01*
Y228382D01*
X107500D01*
Y228676D01*
X126912D01*
Y228382D01*
X127206D01*
Y228676D01*
X127794D01*
Y228382D01*
X128971D01*
Y228676D01*
X133677D01*
Y228382D01*
X133971D01*
Y228676D01*
X134853D01*
Y228382D01*
X135441D01*
Y228676D01*
X135735D01*
Y228382D01*
X136029D01*
Y228676D01*
X141029D01*
Y228382D01*
X141618D01*
Y228676D01*
X141912D01*
Y228382D01*
X142500D01*
Y228676D01*
X142794D01*
Y228382D01*
X143088D01*
Y228676D01*
X143382D01*
Y228382D01*
X143677D01*
Y228676D01*
X143971D01*
Y228382D01*
X144265D01*
Y228676D01*
X144559D01*
Y228382D01*
X145147D01*
Y228676D01*
X146618D01*
Y228971D01*
X146912D01*
Y229559D01*
X147206D01*
Y229853D01*
X147500D01*
Y230441D01*
X147794D01*
Y230735D01*
X148088D01*
Y231324D01*
X148382D01*
Y231618D01*
X148677D01*
Y232206D01*
X148971D01*
Y232500D01*
X149265D01*
Y233088D01*
X149559D01*
Y233382D01*
X149853D01*
Y233971D01*
X150147D01*
Y234559D01*
X150441D01*
Y234853D01*
X150735D01*
Y235441D01*
X151029D01*
Y235735D01*
X151323D01*
Y236324D01*
X151618D01*
Y236912D01*
X151912D01*
Y237206D01*
X152206D01*
Y237794D01*
X152500D01*
Y238382D01*
X152794D01*
Y238676D01*
X153088D01*
Y239265D01*
X153382D01*
Y239853D01*
X153677D01*
Y240441D01*
X153971D01*
Y241029D01*
X154265D01*
Y241618D01*
X154559D01*
Y242500D01*
X154853D01*
Y243088D01*
X155147D01*
Y243971D01*
X155441D01*
Y245147D01*
X155735D01*
Y246029D01*
X156029D01*
Y246912D01*
X156323D01*
Y247794D01*
X156618D01*
Y248971D01*
X156912D01*
Y249853D01*
X157206D01*
Y251029D01*
X157500D01*
Y251324D01*
D02*
G37*
G36*
X149265Y231618D02*
X148971D01*
Y231029D01*
X148677D01*
Y230735D01*
X148382D01*
Y230147D01*
X148088D01*
Y229853D01*
X147794D01*
Y229265D01*
X147500D01*
Y228971D01*
X147206D01*
Y228382D01*
X146912D01*
Y228088D01*
X146029D01*
Y227794D01*
X145735D01*
Y228088D01*
X145147D01*
Y227794D01*
X144265D01*
Y228088D01*
X143971D01*
Y227794D01*
X143677D01*
Y227206D01*
X143382D01*
Y224853D01*
X143677D01*
Y224559D01*
X144265D01*
Y224265D01*
X144853D01*
Y223971D01*
X145441D01*
Y223676D01*
X147794D01*
Y223971D01*
X151029D01*
Y223676D01*
X152794D01*
Y223382D01*
X154265D01*
Y223088D01*
X156029D01*
Y222794D01*
X157794D01*
Y222500D01*
X159559D01*
Y222206D01*
X161324D01*
Y221912D01*
X163382D01*
Y221618D01*
X163676D01*
Y221324D01*
X163971D01*
Y220735D01*
X164265D01*
Y220441D01*
X164559D01*
Y219853D01*
X164853D01*
Y219559D01*
X165147D01*
Y218971D01*
X165441D01*
Y218676D01*
X165735D01*
Y218382D01*
X166029D01*
Y223676D01*
X165441D01*
Y223971D01*
X165147D01*
Y224265D01*
X164853D01*
Y224559D01*
X164559D01*
Y224853D01*
X164265D01*
Y225147D01*
X163971D01*
Y225441D01*
X161324D01*
Y225735D01*
X159559D01*
Y226029D01*
X157500D01*
Y226324D01*
X155441D01*
Y226618D01*
X153677D01*
Y226912D01*
X151618D01*
Y227206D01*
X151323D01*
Y227794D01*
X151618D01*
Y227500D01*
X153677D01*
Y227206D01*
X155735D01*
Y226912D01*
X157500D01*
Y226618D01*
X159559D01*
Y226324D01*
X161618D01*
Y226029D01*
X163676D01*
Y225735D01*
X164559D01*
Y225441D01*
X164853D01*
Y225147D01*
X165147D01*
Y224853D01*
X165441D01*
Y224559D01*
X165735D01*
Y224265D01*
X166029D01*
Y226324D01*
X166324D01*
Y226618D01*
X166029D01*
Y226912D01*
X166324D01*
Y228676D01*
X166029D01*
Y228382D01*
X164853D01*
Y228676D01*
X164559D01*
Y228382D01*
X163971D01*
Y228676D01*
X162206D01*
Y228971D01*
X160735D01*
Y229265D01*
X158971D01*
Y229559D01*
X157206D01*
Y229853D01*
X155735D01*
Y230147D01*
X153971D01*
Y230441D01*
X152206D01*
Y230735D01*
X150735D01*
Y231029D01*
X149265D01*
Y231618D01*
D02*
G37*
G36*
X133971Y228088D02*
X128971D01*
Y227794D01*
X128088D01*
Y228088D01*
X127500D01*
Y227794D01*
X127206D01*
Y225441D01*
X126912D01*
Y223088D01*
X127206D01*
Y221618D01*
X127500D01*
Y220441D01*
X127794D01*
Y219853D01*
X128088D01*
Y219265D01*
X128382D01*
Y218676D01*
X128677D01*
Y218382D01*
X128971D01*
Y218088D01*
X129265D01*
Y217500D01*
X129559D01*
Y217206D01*
X130147D01*
Y217500D01*
X130735D01*
Y217794D01*
X131029D01*
Y218088D01*
X131323D01*
Y218382D01*
X131618D01*
Y218676D01*
X132206D01*
Y218971D01*
X132500D01*
Y219265D01*
X132794D01*
Y219559D01*
X133088D01*
Y219853D01*
X133382D01*
Y220147D01*
X133677D01*
Y220441D01*
X134265D01*
Y220735D01*
X134559D01*
Y221029D01*
X134853D01*
Y221324D01*
X135441D01*
Y221618D01*
X135735D01*
Y221912D01*
X136029D01*
Y222206D01*
X136618D01*
Y222500D01*
X135735D01*
Y222206D01*
X135441D01*
Y222500D01*
X134559D01*
Y222794D01*
X134265D01*
Y223382D01*
X133971D01*
Y228088D01*
D02*
G37*
G36*
X126618D02*
X107794D01*
Y227794D01*
X107206D01*
Y228088D01*
X106912D01*
Y227500D01*
X106618D01*
Y226618D01*
X106323D01*
Y225735D01*
X106029D01*
Y224265D01*
X105735D01*
Y221324D01*
X106029D01*
Y220441D01*
X106323D01*
Y219853D01*
X106618D01*
Y219265D01*
X106912D01*
Y218676D01*
X107206D01*
Y218088D01*
X107500D01*
Y217500D01*
X107794D01*
Y217206D01*
X110147D01*
Y216912D01*
X115147D01*
Y217206D01*
X115441D01*
Y216912D01*
X115735D01*
Y217206D01*
X116029D01*
Y216912D01*
X116618D01*
Y217206D01*
X116912D01*
Y216912D01*
X124853D01*
Y217206D01*
X125441D01*
Y216912D01*
X125735D01*
Y217206D01*
X126323D01*
Y216912D01*
X126618D01*
Y217206D01*
X126912D01*
Y216912D01*
X127206D01*
Y217206D01*
X127500D01*
Y216912D01*
X127794D01*
Y217206D01*
X128382D01*
Y216912D01*
X128677D01*
Y217206D01*
X128971D01*
Y217500D01*
X128677D01*
Y217794D01*
X128382D01*
Y218088D01*
X128088D01*
Y218676D01*
X127794D01*
Y219265D01*
X127500D01*
Y219853D01*
X127206D01*
Y220441D01*
X126912D01*
Y221324D01*
X126618D01*
Y223088D01*
X126323D01*
Y225147D01*
X126618D01*
Y228088D01*
D02*
G37*
G36*
X112500Y258676D02*
X98088D01*
Y258382D01*
X97794D01*
Y258088D01*
X97500D01*
Y257794D01*
X96912D01*
Y257500D01*
X96618D01*
Y257206D01*
X96324D01*
Y256912D01*
X96029D01*
Y256618D01*
X95735D01*
Y256324D01*
X95147D01*
Y256029D01*
X94853D01*
Y255735D01*
X94559D01*
Y255441D01*
X94265D01*
Y255147D01*
X93971D01*
Y254853D01*
X93677D01*
Y254559D01*
X93382D01*
Y254265D01*
X93088D01*
Y253971D01*
X92794D01*
Y253676D01*
X92206D01*
Y253088D01*
X91912D01*
Y252794D01*
X91618D01*
Y252500D01*
X91323D01*
Y252206D01*
X91029D01*
Y251912D01*
X90735D01*
Y251618D01*
X90441D01*
Y251324D01*
X90147D01*
Y250735D01*
X89853D01*
Y250441D01*
X89559D01*
Y250147D01*
X89265D01*
Y249559D01*
X88971D01*
Y249265D01*
X88677D01*
Y248676D01*
X88382D01*
Y248382D01*
X88088D01*
Y247794D01*
X87794D01*
Y247500D01*
X87500D01*
Y246912D01*
X87206D01*
Y246324D01*
X86912D01*
Y245735D01*
X86618D01*
Y245147D01*
X86324D01*
Y244559D01*
X86029D01*
Y243676D01*
X85735D01*
Y243088D01*
X85441D01*
Y242500D01*
X85147D01*
Y241912D01*
X84853D01*
Y234559D01*
X85147D01*
Y231029D01*
X85441D01*
Y227794D01*
X85735D01*
Y226029D01*
X86029D01*
Y226324D01*
X86324D01*
Y226912D01*
X86618D01*
Y227206D01*
X86912D01*
Y227794D01*
X87206D01*
Y228382D01*
X87500D01*
Y228676D01*
X87794D01*
Y229265D01*
X88088D01*
Y229559D01*
X88382D01*
Y230147D01*
X88677D01*
Y230441D01*
X88971D01*
Y231029D01*
X89265D01*
Y231324D01*
X89559D01*
Y231912D01*
X89853D01*
Y232206D01*
X90147D01*
Y232794D01*
X90441D01*
Y233088D01*
X90735D01*
Y233676D01*
X91029D01*
Y233971D01*
X91323D01*
Y234559D01*
X91618D01*
Y234853D01*
X91912D01*
Y235147D01*
X92206D01*
Y235735D01*
X92500D01*
Y236029D01*
X92794D01*
Y236324D01*
X93088D01*
Y236912D01*
X93382D01*
Y237206D01*
X93677D01*
Y237500D01*
X93971D01*
Y237794D01*
X94265D01*
Y238382D01*
X94559D01*
Y238676D01*
X94853D01*
Y238971D01*
X95147D01*
Y239265D01*
X95441D01*
Y239559D01*
X95735D01*
Y239853D01*
X96029D01*
Y240441D01*
X96324D01*
Y240735D01*
X96618D01*
Y241029D01*
X96912D01*
Y241324D01*
X97206D01*
Y241618D01*
X97500D01*
Y241912D01*
X97794D01*
Y242206D01*
X98088D01*
Y242794D01*
X98382D01*
Y243088D01*
X98677D01*
Y243382D01*
X98971D01*
Y243676D01*
X99265D01*
Y243971D01*
X99559D01*
Y244265D01*
X99853D01*
Y244559D01*
X100147D01*
Y244853D01*
X100441D01*
Y245147D01*
X100735D01*
Y245735D01*
X101029D01*
Y246029D01*
X101323D01*
Y246324D01*
X101618D01*
Y246618D01*
X101912D01*
Y246912D01*
X102206D01*
Y247206D01*
X102500D01*
Y247500D01*
X102794D01*
Y247794D01*
X103088D01*
Y248088D01*
X103382D01*
Y248676D01*
X103677D01*
Y248971D01*
X103971D01*
Y249265D01*
X104265D01*
Y249559D01*
X104559D01*
Y249853D01*
X104853D01*
Y250147D01*
X105147D01*
Y250441D01*
X105441D01*
Y250735D01*
X105735D01*
Y251324D01*
X106029D01*
Y251618D01*
X106323D01*
Y251912D01*
X106618D01*
Y252206D01*
X106912D01*
Y252500D01*
X107206D01*
Y252794D01*
X107500D01*
Y253088D01*
X107794D01*
Y253382D01*
X108088D01*
Y253676D01*
X108382D01*
Y253971D01*
X108677D01*
Y254559D01*
X108971D01*
Y254853D01*
X109265D01*
Y255147D01*
X109559D01*
Y255441D01*
X109853D01*
Y255735D01*
X110147D01*
Y256029D01*
X110441D01*
Y256324D01*
X110735D01*
Y256618D01*
X111029D01*
Y256912D01*
X111324D01*
Y257206D01*
X111618D01*
Y257500D01*
X111912D01*
Y258088D01*
X112206D01*
Y258382D01*
X112500D01*
Y258676D01*
D02*
G37*
G36*
X74265Y238382D02*
X73971D01*
Y237500D01*
X73677D01*
Y236324D01*
X73382D01*
Y235147D01*
X73088D01*
Y234265D01*
X72794D01*
Y233088D01*
X72500D01*
Y232206D01*
X72206D01*
Y231029D01*
X71912D01*
Y229853D01*
X71618D01*
Y228971D01*
X71324D01*
Y228088D01*
X71029D01*
Y226912D01*
X71324D01*
Y227206D01*
X71618D01*
Y227500D01*
X71912D01*
Y227794D01*
X72206D01*
Y228971D01*
X72500D01*
Y230147D01*
X72794D01*
Y231324D01*
X73088D01*
Y232500D01*
X73382D01*
Y233382D01*
X73677D01*
Y234559D01*
X73971D01*
Y235735D01*
X74265D01*
Y236912D01*
X74559D01*
Y237794D01*
X75147D01*
Y236618D01*
X74853D01*
Y235735D01*
X74559D01*
Y234559D01*
X74265D01*
Y233382D01*
X73971D01*
Y232206D01*
X73677D01*
Y231029D01*
X73382D01*
Y229853D01*
X73088D01*
Y228971D01*
X72794D01*
Y227794D01*
X73382D01*
Y227500D01*
X74265D01*
Y227206D01*
X75441D01*
Y226912D01*
X76912D01*
Y226618D01*
X78088D01*
Y226324D01*
X79559D01*
Y226029D01*
X81029D01*
Y228971D01*
X80735D01*
Y236324D01*
X80441D01*
Y237500D01*
X80147D01*
Y237206D01*
X79853D01*
Y237500D01*
X79265D01*
Y237206D01*
X78971D01*
Y237500D01*
X76618D01*
Y237794D01*
X75441D01*
Y238088D01*
X74265D01*
Y238382D01*
D02*
G37*
G36*
X73382Y227206D02*
X72500D01*
Y226912D01*
X71912D01*
Y226324D01*
X72794D01*
Y226029D01*
X73677D01*
Y225735D01*
X74559D01*
Y225441D01*
X76029D01*
Y225147D01*
X77794D01*
Y224853D01*
X78088D01*
Y225147D01*
X78382D01*
Y224853D01*
X80441D01*
Y224559D01*
X81029D01*
Y225147D01*
X80735D01*
Y225441D01*
X79559D01*
Y225735D01*
X78088D01*
Y226029D01*
X76912D01*
Y226324D01*
X75441D01*
Y226618D01*
X74265D01*
Y226912D01*
X73382D01*
Y227206D01*
D02*
G37*
G36*
X113971Y258676D02*
X113382D01*
Y258382D01*
X113088D01*
Y258088D01*
X112794D01*
Y257794D01*
X112500D01*
Y257500D01*
X112206D01*
Y257206D01*
X111912D01*
Y256912D01*
X111618D01*
Y256324D01*
X111324D01*
Y256029D01*
X111029D01*
Y255735D01*
X110735D01*
Y255441D01*
X110441D01*
Y255147D01*
X110147D01*
Y254853D01*
X109853D01*
Y254559D01*
X109559D01*
Y254265D01*
X109265D01*
Y253971D01*
X108971D01*
Y253676D01*
X108677D01*
Y253088D01*
X108382D01*
Y252794D01*
X108088D01*
Y252500D01*
X107794D01*
Y252206D01*
X107500D01*
Y251912D01*
X107206D01*
Y251618D01*
X106912D01*
Y251324D01*
X106618D01*
Y251029D01*
X106323D01*
Y250735D01*
X106029D01*
Y250441D01*
X105735D01*
Y249853D01*
X105441D01*
Y249559D01*
X105147D01*
Y249265D01*
X104853D01*
Y248971D01*
X104559D01*
Y248676D01*
X104265D01*
Y248382D01*
X103971D01*
Y248088D01*
X103677D01*
Y247794D01*
X103382D01*
Y247206D01*
X103088D01*
Y246912D01*
X102794D01*
Y246618D01*
X102500D01*
Y246324D01*
X102206D01*
Y246029D01*
X101912D01*
Y245735D01*
X101618D01*
Y245441D01*
X101323D01*
Y245147D01*
X101029D01*
Y244853D01*
X100735D01*
Y244265D01*
X100441D01*
Y243971D01*
X100147D01*
Y243676D01*
X99853D01*
Y243382D01*
X99559D01*
Y243088D01*
X99265D01*
Y242794D01*
X98971D01*
Y242500D01*
X98677D01*
Y242206D01*
X98382D01*
Y241912D01*
X98088D01*
Y241324D01*
X97794D01*
Y241029D01*
X97500D01*
Y240735D01*
X97206D01*
Y240441D01*
X96912D01*
Y240147D01*
X96618D01*
Y239853D01*
X96324D01*
Y239559D01*
X96029D01*
Y238971D01*
X95735D01*
Y238676D01*
X95441D01*
Y238382D01*
X95147D01*
Y238088D01*
X94853D01*
Y237794D01*
X94559D01*
Y237206D01*
X94265D01*
Y236912D01*
X93971D01*
Y236618D01*
X93677D01*
Y236324D01*
X93382D01*
Y235735D01*
X93088D01*
Y235441D01*
X92794D01*
Y235147D01*
X92500D01*
Y234559D01*
X92206D01*
Y234265D01*
X91912D01*
Y233971D01*
X91618D01*
Y233382D01*
X91323D01*
Y233088D01*
X91029D01*
Y232500D01*
X90735D01*
Y232206D01*
X90441D01*
Y231618D01*
X90147D01*
Y231324D01*
X89853D01*
Y230735D01*
X89559D01*
Y230441D01*
X89265D01*
Y229853D01*
X88971D01*
Y229559D01*
X88677D01*
Y228971D01*
X88382D01*
Y228676D01*
X88088D01*
Y228088D01*
X87794D01*
Y227794D01*
X87500D01*
Y227206D01*
X87206D01*
Y226618D01*
X86912D01*
Y226324D01*
X86618D01*
Y225735D01*
X86324D01*
Y225441D01*
X86029D01*
Y224853D01*
X85735D01*
Y224559D01*
X86029D01*
Y224265D01*
X86324D01*
Y224559D01*
X86618D01*
Y225147D01*
X86912D01*
Y225441D01*
X87206D01*
Y226029D01*
X87500D01*
Y226324D01*
X87794D01*
Y226618D01*
X88088D01*
Y227206D01*
X88382D01*
Y227500D01*
X88677D01*
Y228088D01*
X88971D01*
Y228382D01*
X89265D01*
Y228676D01*
X89559D01*
Y229265D01*
X89853D01*
Y229559D01*
X90147D01*
Y230147D01*
X90441D01*
Y230441D01*
X90735D01*
Y230735D01*
X91029D01*
Y231324D01*
X91323D01*
Y231618D01*
X91618D01*
Y232206D01*
X91912D01*
Y232500D01*
X92206D01*
Y232794D01*
X92500D01*
Y233382D01*
X92794D01*
Y233676D01*
X93088D01*
Y233971D01*
X93382D01*
Y234559D01*
X93677D01*
Y234853D01*
X93971D01*
Y235147D01*
X94265D01*
Y235441D01*
X94559D01*
Y236029D01*
X94853D01*
Y236324D01*
X95147D01*
Y236618D01*
X95441D01*
Y236912D01*
X95735D01*
Y237206D01*
X96029D01*
Y237794D01*
X96324D01*
Y238088D01*
X96618D01*
Y238382D01*
X96912D01*
Y238676D01*
X97206D01*
Y238971D01*
X97500D01*
Y239265D01*
X97794D01*
Y239853D01*
X98088D01*
Y240147D01*
X98382D01*
Y240441D01*
X98677D01*
Y240735D01*
X98971D01*
Y241029D01*
X99265D01*
Y241324D01*
X99559D01*
Y241618D01*
X99853D01*
Y241912D01*
X100147D01*
Y242500D01*
X100441D01*
Y242794D01*
X100735D01*
Y243088D01*
X101029D01*
Y243382D01*
X101323D01*
Y243676D01*
X101618D01*
Y243971D01*
X101912D01*
Y244265D01*
X102206D01*
Y244559D01*
X102500D01*
Y245147D01*
X102794D01*
Y245441D01*
X103088D01*
Y245735D01*
X103382D01*
Y246029D01*
X103677D01*
Y246324D01*
X103971D01*
Y246618D01*
X104265D01*
Y246912D01*
X104559D01*
Y247500D01*
X104853D01*
Y247794D01*
X105147D01*
Y248088D01*
X105441D01*
Y248382D01*
X105735D01*
Y248676D01*
X106029D01*
Y248971D01*
X106323D01*
Y249559D01*
X106618D01*
Y249853D01*
X106912D01*
Y250147D01*
X107206D01*
Y250441D01*
X107500D01*
Y250735D01*
X107794D01*
Y251324D01*
X108088D01*
Y251618D01*
X108382D01*
Y251912D01*
X108677D01*
Y252206D01*
X108971D01*
Y252794D01*
X109265D01*
Y253088D01*
X109559D01*
Y253382D01*
X109853D01*
Y253676D01*
X110147D01*
Y253971D01*
X110441D01*
Y254265D01*
X110735D01*
Y254853D01*
X111029D01*
Y255147D01*
X111324D01*
Y255441D01*
X111618D01*
Y255735D01*
X111912D01*
Y256029D01*
X112206D01*
Y256618D01*
X112500D01*
Y256912D01*
X112794D01*
Y257206D01*
X113088D01*
Y257500D01*
X113382D01*
Y257794D01*
X113677D01*
Y258382D01*
X113971D01*
Y258676D01*
D02*
G37*
G36*
X140735Y228088D02*
X135735D01*
Y227794D01*
X134559D01*
Y223382D01*
X134853D01*
Y223088D01*
X135147D01*
Y222794D01*
X136029D01*
Y223088D01*
X137206D01*
Y223382D01*
X137794D01*
Y223676D01*
X138382D01*
Y223971D01*
X138971D01*
Y224265D01*
X139265D01*
Y224559D01*
X139559D01*
Y224853D01*
X139853D01*
Y225441D01*
X140147D01*
Y225735D01*
X140441D01*
Y226324D01*
X140735D01*
Y226618D01*
X141029D01*
Y227206D01*
X141323D01*
Y227500D01*
X141029D01*
Y227794D01*
X140735D01*
Y228088D01*
D02*
G37*
G36*
X133677Y219265D02*
X133382D01*
Y218971D01*
X133088D01*
Y218676D01*
X132794D01*
Y218382D01*
X132206D01*
Y218088D01*
X131912D01*
Y217794D01*
X131618D01*
Y217500D01*
X131029D01*
Y217206D01*
X130735D01*
Y216912D01*
X130441D01*
Y216618D01*
X130147D01*
Y216324D01*
X129265D01*
Y216618D01*
X128971D01*
Y216324D01*
X128677D01*
Y216618D01*
X127500D01*
Y216324D01*
X127206D01*
Y216618D01*
X126912D01*
Y216324D01*
X126323D01*
Y216618D01*
X125735D01*
Y216029D01*
X125441D01*
Y215441D01*
X125147D01*
Y214853D01*
X124853D01*
Y214265D01*
X124559D01*
Y213382D01*
X124265D01*
Y212794D01*
X123971D01*
Y211912D01*
X123677D01*
Y211324D01*
X123971D01*
Y211029D01*
X124559D01*
Y210735D01*
X125147D01*
Y210441D01*
X125735D01*
Y210147D01*
X126618D01*
Y209853D01*
X127206D01*
Y209559D01*
X127794D01*
Y209265D01*
X128677D01*
Y208971D01*
X129265D01*
Y208676D01*
X129853D01*
Y208382D01*
X130735D01*
Y208088D01*
X131323D01*
Y207794D01*
X131912D01*
Y207500D01*
X132500D01*
Y207206D01*
X133382D01*
Y206912D01*
X133971D01*
Y206618D01*
X134265D01*
Y211029D01*
X133971D01*
Y216618D01*
X133677D01*
Y219265D01*
D02*
G37*
G36*
X135735Y221029D02*
X135441D01*
Y220735D01*
X135147D01*
Y220441D01*
X134853D01*
Y220147D01*
X134265D01*
Y216618D01*
X134559D01*
Y211029D01*
X134853D01*
Y206912D01*
X136324D01*
Y212500D01*
X136029D01*
Y218088D01*
X135735D01*
Y221029D01*
D02*
G37*
G36*
X142500Y228088D02*
X142206D01*
Y227500D01*
X141912D01*
Y226912D01*
X141618D01*
Y226324D01*
X141323D01*
Y226029D01*
X141029D01*
Y225441D01*
X140735D01*
Y225147D01*
X140441D01*
Y224853D01*
X140147D01*
Y224265D01*
X139853D01*
Y223971D01*
X139559D01*
Y223676D01*
X138971D01*
Y223382D01*
X138677D01*
Y223088D01*
X138382D01*
Y222794D01*
X138088D01*
Y222500D01*
X137500D01*
Y222206D01*
X137206D01*
Y221912D01*
X136618D01*
Y221618D01*
X136324D01*
Y218382D01*
X136618D01*
Y212500D01*
X136912D01*
Y208676D01*
Y208382D01*
Y206618D01*
X136324D01*
Y206324D01*
X135147D01*
Y206029D01*
X133971D01*
Y206324D01*
X133088D01*
Y206618D01*
X132500D01*
Y206912D01*
X131912D01*
Y207206D01*
X131029D01*
Y207500D01*
X130441D01*
Y207794D01*
X129853D01*
Y208088D01*
X128971D01*
Y208382D01*
X128382D01*
Y208676D01*
X127794D01*
Y208971D01*
X127206D01*
Y208382D01*
X126912D01*
Y207794D01*
X126618D01*
Y207206D01*
X126323D01*
Y206324D01*
X126029D01*
Y205735D01*
X125735D01*
Y205147D01*
X125441D01*
Y204559D01*
X125147D01*
Y203971D01*
X124853D01*
Y203382D01*
X124559D01*
Y202794D01*
X124265D01*
Y201912D01*
X123971D01*
Y201324D01*
X123677D01*
Y200441D01*
X123382D01*
Y199853D01*
X123088D01*
Y199265D01*
X122794D01*
Y198382D01*
X122500D01*
Y197500D01*
X122206D01*
Y196618D01*
X121912D01*
Y195735D01*
X121618D01*
Y194853D01*
X121323D01*
Y193676D01*
X121029D01*
Y191912D01*
X120735D01*
Y190441D01*
X120441D01*
Y189265D01*
X120735D01*
Y186912D01*
X121029D01*
Y184559D01*
X121323D01*
Y184265D01*
X122500D01*
Y183971D01*
X123677D01*
Y183676D01*
X125147D01*
Y183382D01*
X126323D01*
Y183088D01*
X127794D01*
Y182794D01*
X128971D01*
Y182500D01*
X130147D01*
Y182206D01*
X131618D01*
Y181912D01*
X132206D01*
Y181618D01*
X132500D01*
Y181029D01*
X132794D01*
Y180735D01*
X133088D01*
Y180441D01*
X133382D01*
Y179853D01*
X133677D01*
Y179559D01*
X133971D01*
Y178971D01*
X134265D01*
Y178676D01*
X134559D01*
Y178088D01*
X134853D01*
Y177794D01*
X135147D01*
Y177500D01*
X135441D01*
Y176912D01*
X135735D01*
Y177206D01*
X136029D01*
Y177500D01*
X136618D01*
Y177794D01*
X136912D01*
Y178088D01*
X137206D01*
Y178382D01*
X137794D01*
Y178676D01*
X138088D01*
Y178971D01*
X138677D01*
Y179265D01*
X138971D01*
Y179559D01*
X139265D01*
Y179853D01*
X139853D01*
Y180147D01*
X140147D01*
Y180441D01*
X140735D01*
Y180735D01*
X141029D01*
Y181029D01*
X141323D01*
Y181324D01*
X141912D01*
Y181618D01*
X142206D01*
Y181912D01*
X142794D01*
Y182206D01*
X143088D01*
Y182500D01*
X143382D01*
Y182794D01*
X143971D01*
Y183088D01*
X144265D01*
Y183382D01*
X144559D01*
Y183676D01*
X145147D01*
Y183971D01*
X145441D01*
Y184265D01*
X146029D01*
Y184559D01*
X146323D01*
Y184853D01*
X146618D01*
Y185147D01*
X147206D01*
Y185441D01*
X147500D01*
Y185735D01*
X148088D01*
Y186029D01*
X148382D01*
Y186324D01*
X148677D01*
Y186618D01*
X149265D01*
Y186912D01*
X149559D01*
Y187206D01*
X150147D01*
Y187500D01*
X150441D01*
Y187794D01*
X150735D01*
Y188088D01*
X151323D01*
Y188382D01*
X151618D01*
Y188676D01*
X151912D01*
Y188971D01*
X152500D01*
Y189265D01*
X152794D01*
Y189559D01*
X153382D01*
Y189853D01*
X153677D01*
Y190147D01*
X153971D01*
Y190441D01*
X154559D01*
Y190735D01*
X154853D01*
Y191029D01*
X155441D01*
Y191324D01*
X155735D01*
Y191618D01*
X156029D01*
Y191912D01*
X156618D01*
Y192206D01*
X156912D01*
Y192500D01*
X157500D01*
Y192794D01*
X157794D01*
Y193088D01*
X158088D01*
Y193382D01*
X158677D01*
Y193676D01*
X158971D01*
Y193971D01*
X159265D01*
Y194265D01*
X159853D01*
Y194559D01*
X160147D01*
Y194853D01*
X160441D01*
Y195147D01*
X160735D01*
Y195735D01*
X161029D01*
Y196324D01*
X161324D01*
Y196912D01*
X161618D01*
Y197206D01*
X161912D01*
Y197794D01*
X162206D01*
Y198382D01*
X162500D01*
Y198971D01*
X162794D01*
Y199265D01*
X163088D01*
Y199853D01*
X163382D01*
Y200441D01*
X163676D01*
Y200735D01*
X163971D01*
Y201324D01*
X164265D01*
Y201912D01*
X164559D01*
Y202500D01*
X164853D01*
Y202794D01*
X165147D01*
Y203382D01*
X165441D01*
Y204265D01*
X165147D01*
Y205147D01*
X164853D01*
Y206029D01*
X164559D01*
Y206912D01*
X164265D01*
Y207794D01*
X163971D01*
Y208382D01*
X163676D01*
Y209265D01*
X163382D01*
Y210147D01*
X163088D01*
Y211029D01*
X162794D01*
Y211912D01*
X162500D01*
Y212794D01*
X162206D01*
Y213971D01*
X161912D01*
Y214853D01*
X161618D01*
Y215735D01*
X161324D01*
Y216618D01*
X161029D01*
Y217794D01*
X160735D01*
Y218676D01*
X160441D01*
Y219559D01*
X160147D01*
Y220735D01*
X159853D01*
Y221618D01*
X159559D01*
Y221912D01*
X157794D01*
Y222206D01*
X156029D01*
Y222500D01*
X154265D01*
Y222794D01*
X152794D01*
Y223088D01*
X151029D01*
Y223382D01*
X148088D01*
Y223088D01*
X145441D01*
Y223382D01*
X144853D01*
Y223676D01*
X144265D01*
Y223971D01*
X143382D01*
Y224265D01*
X143088D01*
Y224853D01*
X142794D01*
Y227206D01*
X143088D01*
Y227794D01*
X142500D01*
Y228088D01*
D02*
G37*
G36*
X149559Y186324D02*
X149265D01*
Y186029D01*
X148971D01*
Y185735D01*
X149265D01*
X149559Y186029D01*
Y186324D01*
D02*
G37*
G36*
X148971Y185735D02*
X148677D01*
Y185441D01*
X148971D01*
Y185735D01*
D02*
G37*
G36*
X148382Y185441D02*
X148088D01*
Y185147D01*
X148382D01*
Y185441D01*
D02*
G37*
G36*
X148088Y185147D02*
X147794D01*
Y184853D01*
X148088D01*
Y185147D01*
D02*
G37*
G36*
X147794Y184853D02*
X147206D01*
Y184559D01*
X147794D01*
Y184853D01*
D02*
G37*
G36*
X147206Y184559D02*
X146912D01*
Y184265D01*
X147206D01*
Y184559D01*
D02*
G37*
G36*
X146912Y184265D02*
X146618D01*
Y183971D01*
X146912D01*
Y184265D01*
D02*
G37*
G36*
X146618Y183971D02*
X146029D01*
Y183676D01*
X145735D01*
Y183382D01*
X146323D01*
Y183676D01*
X146618D01*
Y183971D01*
D02*
G37*
G36*
X145735Y183382D02*
X145147D01*
Y183088D01*
X144853D01*
Y182794D01*
X144559D01*
Y182500D01*
X143971D01*
Y182206D01*
X143677D01*
Y181912D01*
X143088D01*
Y181618D01*
X142794D01*
Y181324D01*
X142500D01*
Y181029D01*
X141912D01*
Y180735D01*
X141618D01*
Y180441D01*
X141323D01*
Y180147D01*
X140735D01*
Y179853D01*
X140441D01*
Y179559D01*
X140147D01*
Y179265D01*
X139559D01*
Y178971D01*
X139265D01*
Y178676D01*
X138677D01*
Y178382D01*
X138382D01*
Y178088D01*
X137794D01*
Y177794D01*
X137500D01*
Y177500D01*
X137206D01*
Y177206D01*
X136618D01*
Y176912D01*
X136324D01*
Y176618D01*
X136029D01*
Y176324D01*
X135735D01*
Y176029D01*
X135147D01*
Y175735D01*
X134559D01*
Y175441D01*
X134265D01*
Y174853D01*
X133971D01*
Y174265D01*
X133677D01*
Y173676D01*
X134265D01*
Y173971D01*
X134559D01*
Y174265D01*
X134853D01*
Y174559D01*
X135441D01*
Y174853D01*
X135735D01*
Y175147D01*
X136029D01*
Y175441D01*
X136324D01*
Y175735D01*
X136618D01*
Y176029D01*
X137206D01*
Y176324D01*
X137500D01*
Y176618D01*
X137794D01*
Y176912D01*
X138088D01*
Y177206D01*
X138677D01*
Y177500D01*
X138971D01*
Y177794D01*
X139265D01*
Y178088D01*
X139559D01*
Y178382D01*
X139853D01*
Y178676D01*
X140441D01*
Y178971D01*
X140735D01*
Y179265D01*
X141029D01*
Y179559D01*
X141323D01*
Y179853D01*
X141912D01*
Y180147D01*
X142206D01*
Y180441D01*
X142500D01*
Y180735D01*
X143088D01*
Y181029D01*
X143382D01*
Y181324D01*
X143677D01*
Y181618D01*
X143971D01*
Y181912D01*
X144559D01*
Y182206D01*
X144853D01*
Y182500D01*
X145147D01*
Y182794D01*
X145441D01*
Y183088D01*
X145735D01*
Y183382D01*
D02*
G37*
G36*
X133677Y173676D02*
X133382D01*
Y173382D01*
X133677D01*
Y173676D01*
D02*
G37*
G36*
X123677Y210735D02*
X123382D01*
Y210441D01*
X123088D01*
Y209853D01*
X122794D01*
Y208971D01*
X122500D01*
Y208088D01*
X122206D01*
Y207500D01*
X121912D01*
Y206618D01*
X121618D01*
Y206029D01*
X121323D01*
Y205147D01*
X121029D01*
Y204265D01*
X120735D01*
Y203382D01*
X120441D01*
Y202794D01*
X120147D01*
Y201912D01*
X119853D01*
Y201029D01*
X119559D01*
Y200441D01*
X119265D01*
Y199559D01*
X118971D01*
Y198676D01*
X118677D01*
Y197794D01*
X118382D01*
Y196618D01*
X118088D01*
Y195735D01*
X117794D01*
Y194559D01*
X117500D01*
Y193382D01*
X117206D01*
Y191912D01*
X116912D01*
Y190735D01*
X116618D01*
Y189265D01*
X116323D01*
Y186029D01*
X116618D01*
Y184265D01*
X116912D01*
Y182500D01*
X117206D01*
Y181324D01*
Y181029D01*
Y180735D01*
X117794D01*
Y180441D01*
X118677D01*
Y180147D01*
X119853D01*
Y179853D01*
X120735D01*
Y179559D01*
X121912D01*
Y179265D01*
X123088D01*
Y178971D01*
X123971D01*
Y178676D01*
X125147D01*
Y178382D01*
X126323D01*
Y178088D01*
X127206D01*
Y177794D01*
X128382D01*
Y177500D01*
X128677D01*
Y177206D01*
X128971D01*
Y176618D01*
X129265D01*
Y176029D01*
X129559D01*
Y175441D01*
X129853D01*
Y174853D01*
X130147D01*
Y174265D01*
X130441D01*
Y173676D01*
X130735D01*
Y173088D01*
X131029D01*
Y172500D01*
X131323D01*
Y171912D01*
X131618D01*
Y171618D01*
X131912D01*
Y170735D01*
X132206D01*
Y170147D01*
X132500D01*
Y169559D01*
X132794D01*
Y169853D01*
X133088D01*
Y170735D01*
X132794D01*
Y171324D01*
X132500D01*
Y171618D01*
X132206D01*
Y172500D01*
X132500D01*
Y173088D01*
X132794D01*
Y173676D01*
X133088D01*
Y174265D01*
X133382D01*
Y175147D01*
X133677D01*
Y175735D01*
X133971D01*
Y176029D01*
X134265D01*
Y176324D01*
X134853D01*
Y176618D01*
X135147D01*
Y176912D01*
X134853D01*
Y177206D01*
X134559D01*
Y177500D01*
X134265D01*
Y178088D01*
X133971D01*
Y178382D01*
X133677D01*
Y178971D01*
X133382D01*
Y179265D01*
X133088D01*
Y179853D01*
X132794D01*
Y180147D01*
X132500D01*
Y180441D01*
X132206D01*
Y181029D01*
X131912D01*
Y181324D01*
X131323D01*
Y181618D01*
X130147D01*
Y181912D01*
X128971D01*
Y182206D01*
X127500D01*
Y182500D01*
X126323D01*
Y182794D01*
X124853D01*
Y183088D01*
X123677D01*
Y183382D01*
X122500D01*
Y183676D01*
X121029D01*
Y183971D01*
X120735D01*
Y184853D01*
X120441D01*
Y186618D01*
X120147D01*
Y189559D01*
X119853D01*
Y190441D01*
X120147D01*
Y192206D01*
X120441D01*
Y193676D01*
X120735D01*
Y194853D01*
X121029D01*
Y196029D01*
X121323D01*
Y196912D01*
X121618D01*
Y197794D01*
X121912D01*
Y198382D01*
X122206D01*
Y199265D01*
X122500D01*
Y199853D01*
X122794D01*
Y200735D01*
X123088D01*
Y201324D01*
X123382D01*
Y202206D01*
X123677D01*
Y202794D01*
X123971D01*
Y203382D01*
X124265D01*
Y203971D01*
X124559D01*
Y204853D01*
X124853D01*
Y205441D01*
X125147D01*
Y206029D01*
X125441D01*
Y206618D01*
X125735D01*
Y207206D01*
X126029D01*
Y207794D01*
X126323D01*
Y208382D01*
X126618D01*
Y208971D01*
X126912D01*
Y209265D01*
X126323D01*
Y209559D01*
X125735D01*
Y209853D01*
X125147D01*
Y210147D01*
X124265D01*
Y210441D01*
X123677D01*
Y210735D01*
D02*
G37*
G36*
X161324Y221618D02*
X160441D01*
Y220735D01*
X160735D01*
Y219853D01*
X161029D01*
Y218676D01*
X161324D01*
Y217794D01*
X161618D01*
Y216912D01*
X161912D01*
Y216029D01*
X162206D01*
Y214853D01*
X162500D01*
Y213971D01*
X162794D01*
Y213088D01*
X163088D01*
Y211912D01*
X163382D01*
Y211029D01*
X163676D01*
Y210441D01*
X163971D01*
Y209559D01*
X164265D01*
Y208676D01*
X164559D01*
Y207794D01*
X164853D01*
Y206912D01*
X165147D01*
Y206029D01*
X165441D01*
Y205147D01*
X165735D01*
Y204265D01*
X166029D01*
Y203088D01*
X165735D01*
Y202794D01*
X165441D01*
Y202206D01*
X165147D01*
Y201618D01*
X164853D01*
Y201324D01*
X164559D01*
Y200735D01*
X164265D01*
Y200147D01*
X163971D01*
Y199559D01*
X163676D01*
Y199265D01*
X163382D01*
Y198676D01*
X163088D01*
Y198088D01*
X162794D01*
Y197794D01*
X162500D01*
Y197206D01*
X162206D01*
Y196618D01*
X161912D01*
Y196029D01*
X161618D01*
Y195735D01*
X161324D01*
Y195147D01*
X161029D01*
Y194559D01*
X160735D01*
Y194265D01*
X160441D01*
Y193971D01*
X160147D01*
Y193676D01*
X159853D01*
Y193382D01*
X159265D01*
Y193088D01*
X158971D01*
Y192794D01*
X158677D01*
Y192500D01*
X158088D01*
Y192206D01*
X157794D01*
Y191912D01*
X157500D01*
Y191618D01*
X157206D01*
Y191324D01*
X156618D01*
Y191029D01*
X156323D01*
Y190735D01*
X156029D01*
Y190441D01*
X155735D01*
Y190147D01*
X155441D01*
Y189853D01*
X154853D01*
Y189559D01*
X154559D01*
Y189265D01*
X154265D01*
Y188971D01*
X153677D01*
Y188676D01*
X153382D01*
Y188382D01*
X153088D01*
Y188088D01*
X152794D01*
Y187794D01*
X152206D01*
Y187500D01*
X151912D01*
Y187206D01*
X151618D01*
Y186912D01*
X151323D01*
Y186618D01*
X150735D01*
Y186324D01*
X150441D01*
Y186029D01*
X150147D01*
Y185735D01*
X149853D01*
Y185441D01*
X149265D01*
Y185147D01*
X148971D01*
Y184853D01*
X148677D01*
Y184559D01*
X148382D01*
Y184265D01*
X147794D01*
Y183971D01*
X147500D01*
Y183676D01*
X147206D01*
Y183382D01*
X146912D01*
Y183088D01*
X146323D01*
Y182794D01*
X146029D01*
Y182500D01*
X145735D01*
Y182206D01*
X145441D01*
Y181912D01*
X144853D01*
Y181618D01*
X144559D01*
Y181324D01*
X144265D01*
Y181029D01*
X143971D01*
Y180735D01*
X143382D01*
Y180441D01*
X143088D01*
Y180147D01*
X142794D01*
Y179853D01*
X142500D01*
Y179559D01*
X141912D01*
Y179265D01*
X141618D01*
Y178971D01*
X141323D01*
Y178676D01*
X141029D01*
Y178382D01*
X140735D01*
Y178088D01*
X140147D01*
Y177794D01*
X139853D01*
Y177500D01*
X139559D01*
Y177206D01*
X139265D01*
Y176912D01*
X138677D01*
Y176618D01*
X138382D01*
Y176324D01*
X138088D01*
Y176029D01*
X137500D01*
Y175735D01*
X137206D01*
Y175147D01*
X136912D01*
Y174853D01*
X136324D01*
Y174559D01*
X136029D01*
Y174265D01*
X135441D01*
Y173971D01*
X135147D01*
Y173676D01*
X134853D01*
Y173382D01*
X134265D01*
Y173088D01*
X133971D01*
Y172794D01*
X133382D01*
Y172500D01*
X133088D01*
Y172206D01*
X132794D01*
Y171912D01*
X133088D01*
Y171324D01*
X133382D01*
Y171029D01*
X133677D01*
Y170441D01*
X133971D01*
Y169853D01*
X133382D01*
Y169265D01*
X133088D01*
Y168382D01*
X132794D01*
Y167794D01*
X132500D01*
Y167206D01*
X132206D01*
Y166618D01*
X131912D01*
Y166029D01*
X132206D01*
Y166324D01*
X132500D01*
Y166618D01*
X133088D01*
Y166912D01*
X133382D01*
Y167206D01*
X133677D01*
Y167500D01*
X134265D01*
Y167794D01*
X134559D01*
Y168088D01*
X134853D01*
Y168382D01*
X135441D01*
Y168676D01*
X135735D01*
Y168971D01*
X136029D01*
Y169265D01*
X136324D01*
Y169559D01*
X136912D01*
Y169853D01*
X137206D01*
Y170147D01*
X137794D01*
Y170441D01*
X138088D01*
Y170735D01*
X138382D01*
Y171029D01*
X138971D01*
Y171324D01*
X139265D01*
Y171618D01*
X139559D01*
Y171912D01*
X139853D01*
Y172206D01*
X140441D01*
Y172500D01*
X140735D01*
Y172794D01*
X141029D01*
Y173088D01*
X141618D01*
Y173382D01*
X141912D01*
Y173676D01*
X142206D01*
Y173971D01*
X142500D01*
Y174265D01*
X143088D01*
Y174559D01*
X143382D01*
Y174853D01*
X143677D01*
Y175147D01*
X143971D01*
Y175441D01*
X144265D01*
Y175735D01*
X144853D01*
Y176029D01*
X145147D01*
Y176324D01*
X145441D01*
Y176618D01*
X145735D01*
Y176912D01*
X146323D01*
Y177206D01*
X146618D01*
Y177500D01*
X146912D01*
Y177794D01*
X147500D01*
Y178088D01*
X147794D01*
Y178382D01*
X148088D01*
Y178676D01*
X148382D01*
Y178971D01*
X148971D01*
Y179265D01*
X149265D01*
Y179559D01*
X149559D01*
Y179853D01*
X149853D01*
Y180147D01*
X150441D01*
Y180441D01*
X150735D01*
Y180735D01*
X151029D01*
Y181029D01*
X151323D01*
Y181324D01*
X151912D01*
Y181618D01*
X152206D01*
Y181912D01*
X152500D01*
Y182206D01*
X152794D01*
Y182500D01*
X153382D01*
Y182794D01*
X153677D01*
Y183088D01*
X153971D01*
Y183382D01*
X154265D01*
Y183676D01*
X154853D01*
Y183971D01*
X155147D01*
Y184265D01*
X155441D01*
Y184559D01*
X155735D01*
Y184853D01*
X156323D01*
Y185147D01*
X156618D01*
Y185441D01*
X156912D01*
Y185735D01*
X157206D01*
Y186029D01*
X157500D01*
Y186324D01*
X158088D01*
Y186618D01*
X158382D01*
Y186912D01*
X158677D01*
Y187206D01*
X158971D01*
Y187500D01*
X159559D01*
Y187794D01*
X159853D01*
Y188088D01*
X160147D01*
Y188382D01*
X160441D01*
Y188676D01*
X160735D01*
Y188971D01*
X161324D01*
Y189265D01*
X161618D01*
Y189559D01*
X161912D01*
Y189853D01*
X162206D01*
Y190147D01*
X162500D01*
Y190441D01*
X163088D01*
Y190735D01*
X163382D01*
Y191029D01*
X163676D01*
Y191324D01*
X163971D01*
Y191618D01*
X164265D01*
Y192206D01*
X164559D01*
Y192500D01*
X164853D01*
Y193088D01*
X165147D01*
Y193382D01*
X165441D01*
Y193971D01*
X165735D01*
Y194265D01*
X166029D01*
Y194853D01*
X166324D01*
Y195147D01*
X166618D01*
Y195735D01*
X166912D01*
Y196324D01*
X167206D01*
Y196618D01*
X167500D01*
Y197206D01*
X167794D01*
Y197794D01*
X168088D01*
Y198382D01*
X168382D01*
Y198971D01*
X168676D01*
Y199559D01*
X168971D01*
Y200147D01*
X169265D01*
Y200735D01*
X169559D01*
Y201618D01*
X169853D01*
Y202206D01*
X170147D01*
Y202794D01*
X170441D01*
Y203676D01*
X170735D01*
Y204265D01*
X171029D01*
Y205147D01*
X171324D01*
Y206029D01*
X171618D01*
Y206912D01*
X171912D01*
Y207794D01*
X172206D01*
Y208971D01*
X172500D01*
Y210147D01*
X172794D01*
Y211618D01*
X173088D01*
Y213088D01*
X173382D01*
Y214853D01*
X173676D01*
Y216029D01*
X166618D01*
Y216324D01*
X166324D01*
Y216618D01*
X166029D01*
Y216912D01*
X165735D01*
Y217500D01*
X165441D01*
Y218088D01*
X165147D01*
Y218382D01*
X164853D01*
Y218971D01*
X164559D01*
Y219265D01*
X164265D01*
Y219853D01*
X163971D01*
Y220147D01*
X163676D01*
Y220735D01*
X163382D01*
Y221029D01*
X163088D01*
Y221324D01*
X161324D01*
Y221618D01*
D02*
G37*
G36*
X137206Y168971D02*
X136618D01*
Y168676D01*
X136324D01*
Y168382D01*
X136029D01*
Y168088D01*
X135441D01*
Y167794D01*
X135147D01*
Y167500D01*
X134853D01*
Y167206D01*
X134265D01*
Y166912D01*
X133971D01*
Y166618D01*
X133677D01*
Y166324D01*
X133088D01*
Y166029D01*
X132794D01*
Y165735D01*
X132500D01*
Y165441D01*
X131912D01*
Y165147D01*
X131618D01*
Y164853D01*
X131323D01*
Y164265D01*
X131029D01*
Y163382D01*
X130735D01*
Y162794D01*
X130441D01*
Y162206D01*
X130147D01*
Y161618D01*
X130441D01*
Y161912D01*
X130735D01*
Y162206D01*
X131323D01*
Y162500D01*
X131618D01*
Y162794D01*
X132206D01*
Y163088D01*
X132500D01*
Y163382D01*
X132794D01*
Y163676D01*
X133382D01*
Y163971D01*
X133677D01*
Y164265D01*
X134265D01*
Y164559D01*
X134559D01*
Y164853D01*
X135147D01*
Y165147D01*
X135441D01*
Y165441D01*
X135735D01*
Y166029D01*
X136029D01*
Y166618D01*
X136324D01*
Y167206D01*
X136618D01*
Y167794D01*
X136912D01*
Y168382D01*
X137206D01*
Y168971D01*
D02*
G37*
G36*
X105441Y228088D02*
X98382D01*
Y227794D01*
X97206D01*
Y225441D01*
X97500D01*
Y223382D01*
X97794D01*
Y221029D01*
X98088D01*
Y218971D01*
X98382D01*
Y216912D01*
X98677D01*
Y214853D01*
X98971D01*
Y211912D01*
X98677D01*
Y211324D01*
X98382D01*
Y210441D01*
X98088D01*
Y209559D01*
X97794D01*
Y208676D01*
X97500D01*
Y207794D01*
X97206D01*
Y207206D01*
X96912D01*
Y206324D01*
X96618D01*
Y205441D01*
X96324D01*
Y204559D01*
X96029D01*
Y203676D01*
X95735D01*
Y202794D01*
X95441D01*
Y201912D01*
X95147D01*
Y201029D01*
X94853D01*
Y200147D01*
X94559D01*
Y198971D01*
X94265D01*
Y198088D01*
X93971D01*
Y196912D01*
X93677D01*
Y195735D01*
X93382D01*
Y194265D01*
X93088D01*
Y193088D01*
X92794D01*
Y191618D01*
X92500D01*
Y190147D01*
X92206D01*
Y188971D01*
X91912D01*
Y187206D01*
X91618D01*
Y186029D01*
X91323D01*
Y184853D01*
X91029D01*
Y183676D01*
X90735D01*
Y182500D01*
X90441D01*
Y181324D01*
X90147D01*
Y180147D01*
X89853D01*
Y179265D01*
X89559D01*
Y178088D01*
X89265D01*
Y176912D01*
X88971D01*
Y176029D01*
X88677D01*
Y174853D01*
X88382D01*
Y173676D01*
X88088D01*
Y172794D01*
X87794D01*
Y171618D01*
X87500D01*
Y170441D01*
X87206D01*
Y168676D01*
X87500D01*
Y168088D01*
X87794D01*
Y167206D01*
X88088D01*
Y166618D01*
X88382D01*
Y165735D01*
X88677D01*
Y165147D01*
X88971D01*
Y164265D01*
X89265D01*
Y163382D01*
X89559D01*
Y162794D01*
X89853D01*
Y161912D01*
X90147D01*
Y161324D01*
X90441D01*
Y160441D01*
X90735D01*
Y159853D01*
X91618D01*
Y159559D01*
X92500D01*
Y159265D01*
X93677D01*
Y158971D01*
X94559D01*
Y158677D01*
X95735D01*
Y158382D01*
X96618D01*
Y158088D01*
X97794D01*
Y157794D01*
X98677D01*
Y157500D01*
X99853D01*
Y157206D01*
X100735D01*
Y156912D01*
X101912D01*
Y156618D01*
X102794D01*
Y156323D01*
X103971D01*
Y156029D01*
X104853D01*
Y155735D01*
X106618D01*
Y155441D01*
X106912D01*
Y155735D01*
X111912D01*
Y156029D01*
X112206D01*
Y155735D01*
X112500D01*
Y156029D01*
X117206D01*
Y156323D01*
X117500D01*
Y156029D01*
X117794D01*
Y156323D01*
X118971D01*
Y156618D01*
X119853D01*
Y156912D01*
X120441D01*
Y157206D01*
X121029D01*
Y157500D01*
X121912D01*
Y157794D01*
X122500D01*
Y158088D01*
X123088D01*
Y158382D01*
X123677D01*
Y158677D01*
X124559D01*
Y158971D01*
X125147D01*
Y159265D01*
X125735D01*
Y159559D01*
X126323D01*
Y159853D01*
X127206D01*
Y160147D01*
X127794D01*
Y160441D01*
X128382D01*
Y160735D01*
X128971D01*
Y161029D01*
X129265D01*
Y161324D01*
X129559D01*
Y162206D01*
X129853D01*
Y162794D01*
X130147D01*
Y163676D01*
X130441D01*
Y164559D01*
X130735D01*
Y165147D01*
X131029D01*
Y166029D01*
X131323D01*
Y166618D01*
X131618D01*
Y167500D01*
X131912D01*
Y168382D01*
X132206D01*
Y169559D01*
X131912D01*
Y170147D01*
X131618D01*
Y170735D01*
X131323D01*
Y171324D01*
X131029D01*
Y171912D01*
X130735D01*
Y172500D01*
X130441D01*
Y173088D01*
X130147D01*
Y173676D01*
X129853D01*
Y174265D01*
X129559D01*
Y174853D01*
X129265D01*
Y175441D01*
X128971D01*
Y176029D01*
X128677D01*
Y176618D01*
X128382D01*
Y176912D01*
X128088D01*
Y177206D01*
X127206D01*
Y177500D01*
X126029D01*
Y177794D01*
X125147D01*
Y178088D01*
X123971D01*
Y178382D01*
X122794D01*
Y178676D01*
X121912D01*
Y178971D01*
X120735D01*
Y179265D01*
X119559D01*
Y179559D01*
X118677D01*
Y179853D01*
X117500D01*
Y180147D01*
X116618D01*
Y180735D01*
X116912D01*
Y181029D01*
X116618D01*
Y182206D01*
X116323D01*
Y184265D01*
X116029D01*
Y186029D01*
X115735D01*
Y189559D01*
X116029D01*
Y190735D01*
X116323D01*
Y192206D01*
X116618D01*
Y193382D01*
X116912D01*
Y194559D01*
X117206D01*
Y195735D01*
X117500D01*
Y196912D01*
X117794D01*
Y197794D01*
X118088D01*
Y198676D01*
X118382D01*
Y199559D01*
X118677D01*
Y200441D01*
X118971D01*
Y201324D01*
X119265D01*
Y201912D01*
X119559D01*
Y202794D01*
X119853D01*
Y203676D01*
X120147D01*
Y204265D01*
X120441D01*
Y205147D01*
X120735D01*
Y206029D01*
X121029D01*
Y206618D01*
X121323D01*
Y207500D01*
X121618D01*
Y208382D01*
X121912D01*
Y208971D01*
X122206D01*
Y209853D01*
X122500D01*
Y210441D01*
X122794D01*
Y211324D01*
X123088D01*
Y211912D01*
X123382D01*
Y213088D01*
X123677D01*
Y213676D01*
X123971D01*
Y214265D01*
X124265D01*
Y214853D01*
X124559D01*
Y215441D01*
X124853D01*
Y216324D01*
X124559D01*
Y216618D01*
X124265D01*
Y216324D01*
X116912D01*
Y216618D01*
X116323D01*
Y216324D01*
X116029D01*
Y216618D01*
X115441D01*
Y216324D01*
X115147D01*
Y216618D01*
X114853D01*
Y216324D01*
X110147D01*
Y216618D01*
X108382D01*
Y216324D01*
X107500D01*
Y216912D01*
X107206D01*
Y217500D01*
X106912D01*
Y218088D01*
X106618D01*
Y218382D01*
X106323D01*
Y218971D01*
X106029D01*
Y219559D01*
X105735D01*
Y220441D01*
X105441D01*
Y221324D01*
X105147D01*
Y224265D01*
X105441D01*
Y225735D01*
X105735D01*
Y226912D01*
X106029D01*
Y227794D01*
X105441D01*
Y228088D01*
D02*
G37*
%LPD*%
G36*
X259853Y297794D02*
X260147D01*
Y297500D01*
X260441D01*
Y296912D01*
X260735D01*
Y296324D01*
X261029D01*
Y296029D01*
X261324D01*
Y295441D01*
X261618D01*
Y294559D01*
X261912D01*
Y291618D01*
X261618D01*
Y290735D01*
X261324D01*
Y290147D01*
X261029D01*
Y289853D01*
X260735D01*
Y289265D01*
X260441D01*
Y288971D01*
X260147D01*
Y288382D01*
X259559D01*
Y288088D01*
X259265D01*
Y287794D01*
X258676D01*
Y287500D01*
X258088D01*
Y287206D01*
X257206D01*
Y286912D01*
X256324D01*
Y287500D01*
X257206D01*
Y287794D01*
X256912D01*
Y288088D01*
X256324D01*
Y288382D01*
X256029D01*
Y288676D01*
X255441D01*
Y288971D01*
X255147D01*
Y289265D01*
X254853D01*
Y289559D01*
X254559D01*
Y289853D01*
X254265D01*
Y290147D01*
X253971D01*
Y293382D01*
X254265D01*
Y294265D01*
X254559D01*
Y294853D01*
X254853D01*
Y295441D01*
X255147D01*
Y295735D01*
X255441D01*
Y296029D01*
X255735D01*
Y296324D01*
X256029D01*
Y296618D01*
X256912D01*
Y296912D01*
X257794D01*
Y297206D01*
X258676D01*
Y297500D01*
X259559D01*
Y297794D01*
X259265D01*
Y298088D01*
X259559D01*
Y298382D01*
X259853D01*
Y297794D01*
D02*
G37*
%LPC*%
G36*
X260147Y296912D02*
X258676D01*
Y296618D01*
X257794D01*
Y296324D01*
X256912D01*
Y296029D01*
X256324D01*
Y295735D01*
X255735D01*
Y295441D01*
X255441D01*
Y294853D01*
X255147D01*
Y294265D01*
X254853D01*
Y293382D01*
X254559D01*
Y290441D01*
X254853D01*
Y290147D01*
X255147D01*
Y289853D01*
X255441D01*
Y289559D01*
X255735D01*
Y289265D01*
X256029D01*
Y288971D01*
X256618D01*
Y288676D01*
X256912D01*
Y288382D01*
X257500D01*
Y288088D01*
X257794D01*
Y287794D01*
X258088D01*
Y288088D01*
X258676D01*
Y288382D01*
X258971D01*
Y288676D01*
X259559D01*
Y288971D01*
X259853D01*
Y289559D01*
X260147D01*
Y289853D01*
X260441D01*
Y290441D01*
X260735D01*
Y291029D01*
X261029D01*
Y291912D01*
X261324D01*
Y292206D01*
Y294559D01*
X261029D01*
Y295147D01*
X260735D01*
Y295735D01*
X260441D01*
Y296324D01*
X260147D01*
Y296912D01*
D02*
G37*
%LPD*%
G36*
X116912Y217794D02*
X116618D01*
Y218088D01*
X116912D01*
Y217794D01*
D02*
G37*
D10*
X79557Y138353D02*
G03*
X79557Y181647I-14464J21647D01*
G01*
X374000Y166350D02*
G03*
X374000Y153650I0J-6350D01*
G01*
X38000Y38500D02*
X62000D01*
X38000D02*
Y101500D01*
X62000Y38500D02*
Y101500D01*
X38000D02*
X62000D01*
X227250Y228350D02*
X257750D01*
Y201650D02*
Y228350D01*
X227250Y201650D02*
X257750D01*
X227250D02*
Y228350D01*
X252500Y64500D02*
Y100500D01*
X227500Y64500D02*
X230250D01*
X249750D02*
X252500D01*
X227500D02*
Y100500D01*
X230250D01*
X249750D02*
X252500D01*
X49125Y140474D02*
Y179526D01*
X694750Y204150D02*
Y230850D01*
Y204150D02*
X725250D01*
Y230850D01*
X694750D02*
X725250D01*
X188000Y128500D02*
X212000D01*
X188000D02*
Y191500D01*
X212000Y128500D02*
Y191500D01*
X188000D02*
X212000D01*
X610950Y71900D02*
Y148100D01*
Y71900D02*
X649050D01*
Y148100D01*
X610950D02*
X649050D01*
X439750Y188000D02*
X442500D01*
X417500D02*
X420250D01*
X417500Y152000D02*
Y188000D01*
X439750Y152000D02*
X442500D01*
X417500D02*
X420250D01*
X442500D02*
Y188000D01*
X439750Y108000D02*
X442500D01*
X417500D02*
X420250D01*
X417500Y72000D02*
Y108000D01*
X439750Y72000D02*
X442500D01*
X417500D02*
X420250D01*
X442500D02*
Y108000D01*
X276000Y133500D02*
Y186500D01*
X374000Y133500D02*
Y153650D01*
Y166350D02*
Y186500D01*
X276000Y133500D02*
X374000D01*
X276000Y186500D02*
X374000D01*
X159250Y19000D02*
Y41000D01*
X115750D02*
X159250D01*
X115750Y19000D02*
Y41000D01*
Y19000D02*
X159250D01*
X78000Y101500D02*
X102000D01*
Y38500D02*
Y101500D01*
X78000Y38500D02*
Y101500D01*
Y38500D02*
X102000D01*
X209750Y92500D02*
X212500D01*
X187500D02*
X190250D01*
X187500Y52500D02*
Y92500D01*
X209750Y52500D02*
X212500D01*
X187500D02*
X190250D01*
X212500D02*
Y92500D01*
X351500Y48000D02*
Y72000D01*
X288500Y48000D02*
X351500D01*
X288500Y72000D02*
X351500D01*
X288500Y48000D02*
Y72000D01*
X351500Y78000D02*
Y102000D01*
X288500Y78000D02*
X351500D01*
X288500Y102000D02*
X351500D01*
X288500Y78000D02*
Y102000D01*
X578000Y277500D02*
Y280250D01*
Y299750D02*
Y302500D01*
X542000D02*
X578000D01*
X542000Y277500D02*
Y280250D01*
Y299750D02*
Y302500D01*
Y277500D02*
X578000D01*
X600000Y237500D02*
Y240250D01*
Y259750D02*
Y262500D01*
X560000D02*
X600000D01*
X560000Y237500D02*
Y240250D01*
Y259750D02*
Y262500D01*
Y237500D02*
X600000D01*
X618500Y278000D02*
Y302000D01*
X681500D01*
X618500Y278000D02*
X681500D01*
Y302000D01*
X638000Y241500D02*
X662000D01*
Y178500D02*
Y241500D01*
X638000Y178500D02*
Y241500D01*
Y178500D02*
X662000D01*
X668000Y141500D02*
X692000D01*
Y78500D02*
Y141500D01*
X668000Y78500D02*
Y141500D01*
Y78500D02*
X692000D01*
X585000Y16550D02*
X689600D01*
X585000D02*
Y43450D01*
X689600D01*
Y16550D02*
Y43450D01*
X515000Y39250D02*
X565000D01*
X502500Y136750D02*
X552500D01*
X479750Y197500D02*
X482500D01*
X457500D02*
X460250D01*
X457500Y157500D02*
Y197500D01*
X479750Y157500D02*
X482500D01*
X457500D02*
X460250D01*
X482500D02*
Y197500D01*
X479750Y110000D02*
X482500D01*
X457500D02*
X460250D01*
X457500Y70000D02*
Y110000D01*
X479750Y70000D02*
X482500D01*
X457500D02*
X460250D01*
X482500D02*
Y110000D01*
X511500Y228000D02*
Y252000D01*
X448500Y228000D02*
X511500D01*
X448500Y252000D02*
X511500D01*
X448500Y228000D02*
Y252000D01*
X378000Y111500D02*
X402000D01*
Y48500D02*
Y111500D01*
X378000Y48500D02*
Y111500D01*
Y48500D02*
X402000D01*
X378000Y221500D02*
X402000D01*
Y158500D02*
Y221500D01*
X378000Y158500D02*
Y221500D01*
Y158500D02*
X402000D01*
X371500Y278000D02*
Y302000D01*
X308500Y278000D02*
X371500D01*
X308500Y302000D02*
X371500D01*
X308500Y278000D02*
Y302000D01*
X371500Y248000D02*
Y272000D01*
X308500Y248000D02*
X371500D01*
X308500Y272000D02*
X371500D01*
X308500Y248000D02*
Y272000D01*
D11*
X631250Y65400D02*
G03*
X631250Y65400I-1250J0D01*
G01*
X377350Y198100D02*
G03*
X377350Y198100I-1250J0D01*
G01*
X581750Y30000D02*
G03*
X581750Y30000I-1250J0D01*
G01*
D12*
X367000Y176500D02*
G03*
X367000Y176500I-3000J0D01*
G01*
D13*
X582500Y72500D02*
G03*
X582500Y72500I-42500J0D01*
G01*
X570000Y170000D02*
G03*
X570000Y170000I-42500J0D01*
G01*
X196500Y176500D02*
X198166D01*
X197333D01*
Y181498D01*
X196500Y180665D01*
X200665Y176500D02*
Y181498D01*
Y178166D02*
X203165Y179832D01*
X200665Y178166D02*
X203165Y176500D01*
X699832Y199831D02*
X698999Y200664D01*
X697333D01*
X696500Y199831D01*
Y198998D01*
X697333Y198165D01*
X698999D01*
X699832Y197332D01*
Y196499D01*
X698999Y195666D01*
X697333D01*
X696500Y196499D01*
X702331Y199831D02*
Y198998D01*
X701498D01*
X703165D01*
X702331D01*
Y196499D01*
X703165Y195666D01*
X706497Y198998D02*
X708163D01*
X708996Y198165D01*
Y195666D01*
X706497D01*
X705664Y196499D01*
X706497Y197332D01*
X708996D01*
X712328Y194000D02*
X713161D01*
X713994Y194833D01*
Y198998D01*
X711495D01*
X710662Y198165D01*
Y196499D01*
X711495Y195666D01*
X713994D01*
X718160D02*
X716494D01*
X715660Y196499D01*
Y198165D01*
X716494Y198998D01*
X718160D01*
X718993Y198165D01*
Y197332D01*
X715660D01*
X720659Y194833D02*
X723991D01*
X725657Y195666D02*
X727323D01*
X726490D01*
Y200664D01*
X725657Y199831D01*
X251499Y236498D02*
X249833D01*
X249000Y235665D01*
Y232333D01*
X249833Y231500D01*
X251499D01*
X252332Y232333D01*
Y235665D01*
X251499Y236498D01*
X253998D02*
Y232333D01*
X254831Y231500D01*
X256497D01*
X257331Y232333D01*
Y236498D01*
X258997D02*
X262329D01*
X260663D01*
Y231500D01*
X164000Y29831D02*
X167332D01*
X165666D01*
Y24833D01*
X168998Y29831D02*
X172331Y24833D01*
Y29831D02*
X168998Y24833D01*
X173997Y24000D02*
X177329D01*
X179828Y28998D02*
Y28165D01*
X178995D01*
X180661D01*
X179828D01*
Y25666D01*
X180661Y24833D01*
X185660D02*
X183993D01*
X183160Y25666D01*
Y27332D01*
X183993Y28165D01*
X185660D01*
X186493Y27332D01*
Y26499D01*
X183160D01*
X188159Y24833D02*
X190658D01*
X191491Y25666D01*
X190658Y26499D01*
X188992D01*
X188159Y27332D01*
X188992Y28165D01*
X191491D01*
X193990Y28998D02*
Y28165D01*
X193157D01*
X194823D01*
X193990D01*
Y25666D01*
X194823Y24833D01*
X309000Y146500D02*
Y151498D01*
X310666Y149832D01*
X312332Y151498D01*
Y146500D01*
X317331Y150665D02*
X316497Y151498D01*
X314831D01*
X313998Y150665D01*
Y147333D01*
X314831Y146500D01*
X316497D01*
X317331Y147333D01*
X318997Y146500D02*
Y151498D01*
X321496D01*
X322329Y150665D01*
Y148999D01*
X321496Y148166D01*
X318997D01*
X327327Y151498D02*
X325661Y150665D01*
X323995Y148999D01*
Y147333D01*
X324828Y146500D01*
X326494D01*
X327327Y147333D01*
Y148166D01*
X326494Y148999D01*
X323995D01*
X328993Y150665D02*
X329827Y151498D01*
X331493D01*
X332326Y150665D01*
Y147333D01*
X331493Y146500D01*
X329827D01*
X328993Y147333D01*
Y150665D01*
X333992D02*
X334825Y151498D01*
X336491D01*
X337324Y150665D01*
Y147333D01*
X336491Y146500D01*
X334825D01*
X333992Y147333D01*
Y150665D01*
X342322Y146500D02*
X338990D01*
X342322Y149832D01*
Y150665D01*
X341489Y151498D01*
X339823D01*
X338990Y150665D01*
X457332Y241500D02*
X454000D01*
X457332Y244832D01*
Y245665D01*
X456499Y246498D01*
X454833D01*
X454000Y245665D01*
X458998Y241500D02*
Y242333D01*
X459831D01*
Y241500D01*
X458998D01*
X466496Y246498D02*
X463164D01*
Y243999D01*
X464830Y244832D01*
X465663D01*
X466496Y243999D01*
Y242333D01*
X465663Y241500D01*
X463997D01*
X463164Y242333D01*
X468162Y241500D02*
Y246498D01*
Y243166D02*
X470661Y244832D01*
X468162Y243166D02*
X470661Y241500D01*
X631500Y291500D02*
X633166D01*
X632333D01*
Y296498D01*
X631500Y295665D01*
X635665Y291500D02*
Y296498D01*
Y293166D02*
X638164Y294832D01*
X635665Y293166D02*
X638164Y291500D01*
X644000Y226500D02*
X645666D01*
X644833D01*
Y231498D01*
X644000Y230665D01*
X648165D02*
X648998Y231498D01*
X650665D01*
X651498Y230665D01*
Y227333D01*
X650665Y226500D01*
X648998D01*
X648165Y227333D01*
Y230665D01*
X653164D02*
X653997Y231498D01*
X655663D01*
X656496Y230665D01*
Y227333D01*
X655663Y226500D01*
X653997D01*
X653164Y227333D01*
Y230665D01*
X674000Y126500D02*
X675666D01*
X674833D01*
Y131498D01*
X674000Y130665D01*
X678165D02*
X678998Y131498D01*
X680665D01*
X681497Y130665D01*
Y127333D01*
X680665Y126500D01*
X678998D01*
X678165Y127333D01*
Y130665D01*
X683164D02*
X683997Y131498D01*
X685663D01*
X686496Y130665D01*
Y127333D01*
X685663Y126500D01*
X683997D01*
X683164Y127333D01*
Y130665D01*
X596500Y13998D02*
X599832D01*
X598166D01*
Y9000D01*
X601498Y13998D02*
X604831Y9000D01*
Y13998D02*
X601498Y9000D01*
X614000Y52331D02*
Y48999D01*
X615666Y47333D01*
X617332Y48999D01*
Y52331D01*
X618998Y47333D02*
Y52331D01*
X622331Y47333D01*
Y52331D01*
X623997Y51498D02*
X624830Y52331D01*
X626496D01*
X627329Y51498D01*
Y50665D01*
X626496Y49832D01*
X625663D01*
X626496D01*
X627329Y48999D01*
Y48166D01*
X626496Y47333D01*
X624830D01*
X623997Y48166D01*
X628995Y46500D02*
X632327D01*
X633993Y51498D02*
X634827Y52331D01*
X636493D01*
X637326Y51498D01*
Y50665D01*
X636493Y49832D01*
X635659D01*
X636493D01*
X637326Y48999D01*
Y48166D01*
X636493Y47333D01*
X634827D01*
X633993Y48166D01*
X646499Y13998D02*
X644833D01*
X644000Y13165D01*
Y9833D01*
X644833Y9000D01*
X646499D01*
X647332Y9833D01*
Y13165D01*
X646499Y13998D01*
X648998D02*
Y9833D01*
X649831Y9000D01*
X651497D01*
X652331Y9833D01*
Y13998D01*
X653997D02*
X657329D01*
X655663D01*
Y9000D01*
X666500Y52331D02*
Y48999D01*
X668166Y47333D01*
X669832Y48999D01*
Y52331D01*
X671498Y51498D02*
X672331Y52331D01*
X673997D01*
X674831Y51498D01*
Y50665D01*
X673997Y49832D01*
X673164D01*
X673997D01*
X674831Y48999D01*
Y48166D01*
X673997Y47333D01*
X672331D01*
X671498Y48166D01*
X676497Y46500D02*
X679829D01*
X681495Y51498D02*
X682328Y52331D01*
X683994D01*
X684827Y51498D01*
Y50665D01*
X683994Y49832D01*
X683161D01*
X683994D01*
X684827Y48999D01*
Y48166D01*
X683994Y47333D01*
X682328D01*
X681495Y48166D01*
X386500Y99000D02*
X388166D01*
X387333D01*
Y103998D01*
X386500Y103165D01*
X390665Y99000D02*
Y103998D01*
Y100666D02*
X393164Y102332D01*
X390665Y100666D02*
X393164Y99000D01*
X386500Y206500D02*
X388166D01*
X387333D01*
Y211498D01*
X386500Y210665D01*
X390665Y206500D02*
Y211498D01*
Y208166D02*
X393164Y209832D01*
X390665Y208166D02*
X393164Y206500D01*
X461500Y184833D02*
X462333Y184000D01*
X463999D01*
X464832Y184833D01*
Y188165D01*
X463999Y188998D01*
X462333D01*
X461500Y188165D01*
Y187332D01*
X462333Y186499D01*
X464832D01*
X466498Y188165D02*
X467331Y188998D01*
X468997D01*
X469831Y188165D01*
Y184833D01*
X468997Y184000D01*
X467331D01*
X466498Y184833D01*
Y188165D01*
X471497Y184000D02*
Y187332D01*
X473996D01*
X474829Y186499D01*
Y184000D01*
X479827Y188998D02*
X476495D01*
Y186499D01*
X478161D01*
X476495D01*
Y184000D01*
X426500Y141500D02*
X428166D01*
X427333D01*
Y146498D01*
X426500Y145665D01*
X430665D02*
X431498Y146498D01*
X433164D01*
X433997Y145665D01*
Y142333D01*
X433164Y141500D01*
X431498D01*
X430665Y142333D01*
Y145665D01*
X435664Y141500D02*
Y144832D01*
X438163D01*
X438996Y143999D01*
Y141500D01*
X443994Y146498D02*
X440662D01*
Y143999D01*
X442328D01*
X440662D01*
Y141500D01*
X414000Y111500D02*
X415666D01*
X414833D01*
Y116498D01*
X414000Y115665D01*
X418165D02*
X418998Y116498D01*
X420664D01*
X421497Y115665D01*
Y112333D01*
X420664Y111500D01*
X418998D01*
X418165Y112333D01*
Y115665D01*
X423164Y111500D02*
Y114832D01*
X425663D01*
X426496Y113999D01*
Y111500D01*
X431494Y116498D02*
X428162D01*
Y113999D01*
X429828D01*
X428162D01*
Y111500D01*
X461500Y97333D02*
X462333Y96500D01*
X463999D01*
X464832Y97333D01*
Y100665D01*
X463999Y101498D01*
X462333D01*
X461500Y100665D01*
Y99832D01*
X462333Y98999D01*
X464832D01*
X466498Y100665D02*
X467331Y101498D01*
X468997D01*
X469831Y100665D01*
Y97333D01*
X468997Y96500D01*
X467331D01*
X466498Y97333D01*
Y100665D01*
X471497Y96500D02*
Y99832D01*
X473996D01*
X474829Y98999D01*
Y96500D01*
X479827Y101498D02*
X476495D01*
Y98999D01*
X478161D01*
X476495D01*
Y96500D01*
X519000Y69000D02*
X520666D01*
X519833D01*
Y73998D01*
X519000Y73165D01*
X523165Y69000D02*
Y72332D01*
X523998D01*
X524831Y71499D01*
Y69000D01*
Y71499D01*
X525664Y72332D01*
X526497Y71499D01*
Y69000D01*
X531496Y73998D02*
X528164D01*
Y71499D01*
X529830D01*
X528164D01*
Y69000D01*
X509000Y169000D02*
X510666D01*
X509833D01*
Y173998D01*
X509000Y173165D01*
X513165Y169000D02*
Y172332D01*
X513998D01*
X514831Y171499D01*
Y169000D01*
Y171499D01*
X515664Y172332D01*
X516497Y171499D01*
Y169000D01*
X521496Y173998D02*
X518164D01*
Y171499D01*
X519830D01*
X518164D01*
Y169000D01*
X624000Y116500D02*
X625666D01*
X624833D01*
Y121498D01*
X624000Y120665D01*
X628165Y119832D02*
Y117333D01*
X628998Y116500D01*
X631497D01*
Y119832D01*
X636496Y121498D02*
X633164D01*
Y118999D01*
X634830D01*
X633164D01*
Y116500D01*
X556500Y269000D02*
X558166D01*
X557333D01*
Y273998D01*
X556500Y273165D01*
X560665D02*
X561498Y273998D01*
X563164D01*
X563997Y273165D01*
Y269833D01*
X563164Y269000D01*
X561498D01*
X560665Y269833D01*
Y273165D01*
X565664Y269000D02*
Y272332D01*
X568163D01*
X568996Y271499D01*
Y269000D01*
X573994Y273998D02*
X570662D01*
Y271499D01*
X572328D01*
X570662D01*
Y269000D01*
X571500Y254833D02*
X572333Y254000D01*
X573999D01*
X574832Y254833D01*
Y258165D01*
X573999Y258998D01*
X572333D01*
X571500Y258165D01*
Y257332D01*
X572333Y256499D01*
X574832D01*
X576498Y258165D02*
X577331Y258998D01*
X578997D01*
X579831Y258165D01*
Y254833D01*
X578997Y254000D01*
X577331D01*
X576498Y254833D01*
Y258165D01*
X581497Y254000D02*
Y257332D01*
X583996D01*
X584829Y256499D01*
Y254000D01*
X589827Y258998D02*
X586495D01*
Y256499D01*
X588161D01*
X586495D01*
Y254000D01*
X319832Y293164D02*
X316500D01*
Y290665D01*
X318166Y291498D01*
X318999D01*
X319832Y290665D01*
Y288999D01*
X318999Y288166D01*
X317333D01*
X316500Y288999D01*
X321498Y292331D02*
X322331Y293164D01*
X323997D01*
X324831Y292331D01*
Y288999D01*
X323997Y288166D01*
X322331D01*
X321498Y288999D01*
Y292331D01*
X326497Y286500D02*
Y291498D01*
X328996D01*
X329829Y290665D01*
Y288999D01*
X328996Y288166D01*
X326497D01*
X334827Y293164D02*
X331495D01*
Y290665D01*
X333161D01*
X331495D01*
Y288166D01*
X676499Y121498D02*
X674833D01*
X674000Y120665D01*
Y117333D01*
X674833Y116500D01*
X676499D01*
X677332Y117333D01*
Y120665D01*
X676499Y121498D01*
X678998D02*
Y116500D01*
Y118999D01*
X679831Y119832D01*
X681497D01*
X682331Y118999D01*
Y116500D01*
X683997D02*
Y119832D01*
X684830D01*
X685663Y118999D01*
Y116500D01*
Y118999D01*
X686496Y119832D01*
X687329Y118999D01*
Y116500D01*
X646499Y223998D02*
X644833D01*
X644000Y223165D01*
Y219833D01*
X644833Y219000D01*
X646499D01*
X647332Y219833D01*
Y223165D01*
X646499Y223998D01*
X648998D02*
Y219000D01*
Y221499D01*
X649831Y222332D01*
X651497D01*
X652331Y221499D01*
Y219000D01*
X653997D02*
Y222332D01*
X654830D01*
X655663Y221499D01*
Y219000D01*
Y221499D01*
X656496Y222332D01*
X657329Y221499D01*
Y219000D01*
X631499Y288998D02*
X629833D01*
X629000Y288165D01*
Y284833D01*
X629833Y284000D01*
X631499D01*
X632332Y284833D01*
Y288165D01*
X631499Y288998D01*
X633998D02*
Y284000D01*
Y286499D01*
X634831Y287332D01*
X636497D01*
X637331Y286499D01*
Y284000D01*
X638997D02*
Y287332D01*
X639830D01*
X640663Y286499D01*
Y284000D01*
Y286499D01*
X641496Y287332D01*
X642329Y286499D01*
Y284000D01*
X458999Y238998D02*
X457333D01*
X456500Y238165D01*
Y234833D01*
X457333Y234000D01*
X458999D01*
X459832Y234833D01*
Y238165D01*
X458999Y238998D01*
X461498D02*
Y234000D01*
Y236499D01*
X462331Y237332D01*
X463997D01*
X464831Y236499D01*
Y234000D01*
X466497D02*
Y237332D01*
X467330D01*
X468163Y236499D01*
Y234000D01*
Y236499D01*
X468996Y237332D01*
X469829Y236499D01*
Y234000D01*
X318999Y258998D02*
X317333D01*
X316500Y258165D01*
Y254833D01*
X317333Y254000D01*
X318999D01*
X319832Y254833D01*
Y258165D01*
X318999Y258998D01*
X321498D02*
Y254000D01*
Y256499D01*
X322331Y257332D01*
X323997D01*
X324831Y256499D01*
Y254000D01*
X326497D02*
Y257332D01*
X327330D01*
X328163Y256499D01*
Y254000D01*
Y256499D01*
X328996Y257332D01*
X329829Y256499D01*
Y254000D01*
X196499Y173998D02*
X194833D01*
X194000Y173165D01*
Y169833D01*
X194833Y169000D01*
X196499D01*
X197332Y169833D01*
Y173165D01*
X196499Y173998D01*
X198998D02*
Y169000D01*
Y171499D01*
X199831Y172332D01*
X201497D01*
X202331Y171499D01*
Y169000D01*
X203997D02*
Y172332D01*
X204830D01*
X205663Y171499D01*
Y169000D01*
Y171499D01*
X206496Y172332D01*
X207329Y171499D01*
Y169000D01*
X386499Y203998D02*
X384833D01*
X384000Y203165D01*
Y199833D01*
X384833Y199000D01*
X386499D01*
X387332Y199833D01*
Y203165D01*
X386499Y203998D01*
X388998D02*
Y199000D01*
Y201499D01*
X389831Y202332D01*
X391497D01*
X392331Y201499D01*
Y199000D01*
X393997D02*
Y202332D01*
X394830D01*
X395663Y201499D01*
Y199000D01*
Y201499D01*
X396496Y202332D01*
X397329Y201499D01*
Y199000D01*
X386499Y96498D02*
X384833D01*
X384000Y95665D01*
Y92333D01*
X384833Y91500D01*
X386499D01*
X387332Y92333D01*
Y95665D01*
X386499Y96498D01*
X388998D02*
Y91500D01*
Y93999D01*
X389831Y94832D01*
X391497D01*
X392331Y93999D01*
Y91500D01*
X393997D02*
Y94832D01*
X394830D01*
X395663Y93999D01*
Y91500D01*
Y93999D01*
X396496Y94832D01*
X397329Y93999D01*
Y91500D01*
X317332Y261500D02*
X314000D01*
X317332Y264832D01*
Y265665D01*
X316499Y266498D01*
X314833D01*
X314000Y265665D01*
X318998D02*
X319831Y266498D01*
X321497D01*
X322331Y265665D01*
Y262333D01*
X321497Y261500D01*
X319831D01*
X318998Y262333D01*
Y265665D01*
X323997D02*
X324830Y266498D01*
X326496D01*
X327329Y265665D01*
Y262333D01*
X326496Y261500D01*
X324830D01*
X323997Y262333D01*
Y265665D01*
X328995Y261500D02*
Y266498D01*
Y263166D02*
X331494Y264832D01*
X328995Y263166D02*
X331494Y261500D01*
X298999Y88998D02*
X297333D01*
X296500Y88165D01*
Y84833D01*
X297333Y84000D01*
X298999D01*
X299832Y84833D01*
Y88165D01*
X298999Y88998D01*
X301498D02*
Y84000D01*
Y86499D01*
X302331Y87332D01*
X303997D01*
X304831Y86499D01*
Y84000D01*
X306497D02*
Y87332D01*
X307330D01*
X308163Y86499D01*
Y84000D01*
Y86499D01*
X308996Y87332D01*
X309829Y86499D01*
Y84000D01*
X231500Y104000D02*
X233166D01*
X232333D01*
Y108998D01*
X231500Y108165D01*
X235665D02*
X236498Y108998D01*
X238165D01*
X238997Y108165D01*
Y104833D01*
X238165Y104000D01*
X236498D01*
X235665Y104833D01*
Y108165D01*
X240664Y104000D02*
Y107332D01*
X243163D01*
X243996Y106499D01*
Y104000D01*
X248994Y108998D02*
X245662D01*
Y106499D01*
X247328D01*
X245662D01*
Y104000D01*
X297332Y91500D02*
X294000D01*
X297332Y94832D01*
Y95665D01*
X296499Y96498D01*
X294833D01*
X294000Y95665D01*
X298998D02*
X299831Y96498D01*
X301497D01*
X302331Y95665D01*
Y92333D01*
X301497Y91500D01*
X299831D01*
X298998Y92333D01*
Y95665D01*
X303997D02*
X304830Y96498D01*
X306496D01*
X307329Y95665D01*
Y92333D01*
X306496Y91500D01*
X304830D01*
X303997Y92333D01*
Y95665D01*
X308995Y91500D02*
Y96498D01*
Y93166D02*
X311494Y94832D01*
X308995Y93166D02*
X311494Y91500D01*
X299832Y63164D02*
X296500D01*
Y60665D01*
X298166Y61498D01*
X298999D01*
X299832Y60665D01*
Y58999D01*
X298999Y58166D01*
X297333D01*
X296500Y58999D01*
X301498Y62331D02*
X302331Y63164D01*
X303997D01*
X304831Y62331D01*
Y58999D01*
X303997Y58166D01*
X302331D01*
X301498Y58999D01*
Y62331D01*
X306497Y56500D02*
Y61498D01*
X308996D01*
X309829Y60665D01*
Y58999D01*
X308996Y58166D01*
X306497D01*
X314827Y63164D02*
X311495D01*
Y60665D01*
X313161D01*
X311495D01*
Y58166D01*
X191500Y79833D02*
X192333Y79000D01*
X193999D01*
X194832Y79833D01*
Y83165D01*
X193999Y83998D01*
X192333D01*
X191500Y83165D01*
Y82332D01*
X192333Y81499D01*
X194832D01*
X196498Y83165D02*
X197331Y83998D01*
X198997D01*
X199831Y83165D01*
Y79833D01*
X198997Y79000D01*
X197331D01*
X196498Y79833D01*
Y83165D01*
X201497Y79000D02*
Y82332D01*
X203996D01*
X204829Y81499D01*
Y79000D01*
X209827Y83998D02*
X206495D01*
Y81499D01*
X208161D01*
X206495D01*
Y79000D01*
X46499Y83998D02*
X44833D01*
X44000Y83165D01*
Y79833D01*
X44833Y79000D01*
X46499D01*
X47332Y79833D01*
Y83165D01*
X46499Y83998D01*
X48998D02*
Y79000D01*
Y81499D01*
X49831Y82332D01*
X51498D01*
X52331Y81499D01*
Y79000D01*
X53997D02*
Y82332D01*
X54830D01*
X55663Y81499D01*
Y79000D01*
Y81499D01*
X56496Y82332D01*
X57329Y81499D01*
Y79000D01*
X86499Y83998D02*
X84833D01*
X84000Y83165D01*
Y79833D01*
X84833Y79000D01*
X86499D01*
X87332Y79833D01*
Y83165D01*
X86499Y83998D01*
X88998D02*
Y79000D01*
Y81499D01*
X89831Y82332D01*
X91497D01*
X92331Y81499D01*
Y79000D01*
X93997D02*
Y82332D01*
X94830D01*
X95663Y81499D01*
Y79000D01*
Y81499D01*
X96496Y82332D01*
X97329Y81499D01*
Y79000D01*
X52332Y91498D02*
X50666Y90665D01*
X49000Y88999D01*
Y87333D01*
X49833Y86500D01*
X51499D01*
X52332Y87333D01*
Y88166D01*
X51499Y88999D01*
X49000D01*
X84000Y90665D02*
X84833Y91498D01*
X86499D01*
X87332Y90665D01*
Y89832D01*
X86499Y88999D01*
X85666D01*
X86499D01*
X87332Y88166D01*
Y87333D01*
X86499Y86500D01*
X84833D01*
X84000Y87333D01*
X88998Y90665D02*
X89831Y91498D01*
X91497D01*
X92331Y90665D01*
Y89832D01*
X91497Y88999D01*
X90664D01*
X91497D01*
X92331Y88166D01*
Y87333D01*
X91497Y86500D01*
X89831D01*
X88998Y87333D01*
X93997Y90665D02*
X94830Y91498D01*
X96496D01*
X97329Y90665D01*
Y87333D01*
X96496Y86500D01*
X94830D01*
X93997Y87333D01*
Y90665D01*
X69832Y191500D02*
X66500D01*
X69832Y194832D01*
Y195665D01*
X68999Y196498D01*
X67333D01*
X66500Y195665D01*
X71498Y191500D02*
X73164D01*
X72331D01*
Y196498D01*
X71498Y195665D01*
X75664D02*
X76497Y196498D01*
X78163D01*
X78996Y195665D01*
Y192333D01*
X78163Y191500D01*
X76497D01*
X75664Y192333D01*
Y195665D01*
X83994Y196498D02*
X82328Y195665D01*
X80662Y193999D01*
Y192333D01*
X81495Y191500D01*
X83161D01*
X83994Y192333D01*
Y193166D01*
X83161Y193999D01*
X80662D01*
X85660Y191500D02*
Y194832D01*
X87326Y196498D01*
X88993Y194832D01*
Y191500D01*
Y193999D01*
X85660D01*
D14*
X40628Y53751D02*
Y61249D01*
X44377D01*
X45626Y59999D01*
Y57500D01*
X44377Y56250D01*
X40628D01*
X43127D02*
X45626Y53751D01*
X48126D02*
X50625D01*
X49375D01*
Y61249D01*
X48126Y59999D01*
X54374D02*
X55623Y61249D01*
X58122D01*
X59372Y59999D01*
Y55001D01*
X58122Y53751D01*
X55623D01*
X54374Y55001D01*
Y59999D01*
X708750Y243749D02*
X706251D01*
X707501D01*
Y237501D01*
X706251Y236251D01*
X705002D01*
X703752Y237501D01*
X711250Y242499D02*
X712499Y243749D01*
X714998D01*
X716248Y242499D01*
Y241250D01*
X714998Y240000D01*
X713749D01*
X714998D01*
X716248Y238750D01*
Y237501D01*
X714998Y236251D01*
X712499D01*
X711250Y237501D01*
X231250Y238749D02*
X228751D01*
X230001D01*
Y232501D01*
X228751Y231251D01*
X227502D01*
X226252Y232501D01*
X238748Y231251D02*
X233750D01*
X238748Y236250D01*
Y237499D01*
X237498Y238749D01*
X234999D01*
X233750Y237499D01*
X320002Y163749D02*
Y157501D01*
X321251Y156251D01*
X323750D01*
X325000Y157501D01*
Y163749D01*
X327499Y156251D02*
X329998D01*
X328749D01*
Y163749D01*
X327499Y162499D01*
X81878Y53751D02*
Y61249D01*
X85626D01*
X86876Y59999D01*
Y57500D01*
X85626Y56250D01*
X81878D01*
X84377D02*
X86876Y53751D01*
X89375D02*
X91874D01*
X90625D01*
Y61249D01*
X89375Y59999D01*
X95623Y53751D02*
X98122D01*
X96873D01*
Y61249D01*
X95623Y59999D01*
X673752Y91251D02*
Y98749D01*
X677501D01*
X678750Y97499D01*
Y95000D01*
X677501Y93750D01*
X673752D01*
X676251D02*
X678750Y91251D01*
X681250Y92501D02*
X682499Y91251D01*
X684998D01*
X686248Y92501D01*
Y97499D01*
X684998Y98749D01*
X682499D01*
X681250Y97499D01*
Y96250D01*
X682499Y95000D01*
X686248D01*
X643752Y193751D02*
Y201249D01*
X647501D01*
X648750Y199999D01*
Y197500D01*
X647501Y196250D01*
X643752D01*
X646251D02*
X648750Y193751D01*
X651250Y199999D02*
X652499Y201249D01*
X654998D01*
X656248Y199999D01*
Y198750D01*
X654998Y197500D01*
X656248Y196250D01*
Y195001D01*
X654998Y193751D01*
X652499D01*
X651250Y195001D01*
Y196250D01*
X652499Y197500D01*
X651250Y198750D01*
Y199999D01*
X652499Y197500D02*
X654998D01*
X491252Y236251D02*
Y243749D01*
X495001D01*
X496250Y242499D01*
Y240000D01*
X495001Y238750D01*
X491252D01*
X493751D02*
X496250Y236251D01*
X498750Y243749D02*
X503748D01*
Y242499D01*
X498750Y237501D01*
Y236251D01*
X383752Y63751D02*
Y71249D01*
X387501D01*
X388750Y69999D01*
Y67500D01*
X387501Y66250D01*
X383752D01*
X386251D02*
X388750Y63751D01*
X396248Y71249D02*
X393749Y69999D01*
X391250Y67500D01*
Y65001D01*
X392499Y63751D01*
X394998D01*
X396248Y65001D01*
Y66250D01*
X394998Y67500D01*
X391250D01*
X383752Y173751D02*
Y181249D01*
X387501D01*
X388750Y179999D01*
Y177500D01*
X387501Y176250D01*
X383752D01*
X386251D02*
X388750Y173751D01*
X396248Y181249D02*
X391250D01*
Y177500D01*
X393749Y178750D01*
X394998D01*
X396248Y177500D01*
Y175001D01*
X394998Y173751D01*
X392499D01*
X391250Y175001D01*
X193752Y141251D02*
Y148749D01*
X197501D01*
X198750Y147499D01*
Y145000D01*
X197501Y143750D01*
X193752D01*
X196251D02*
X198750Y141251D01*
X204998D02*
Y148749D01*
X201250Y145000D01*
X206248D01*
X331252Y86251D02*
Y93749D01*
X335001D01*
X336250Y92499D01*
Y90000D01*
X335001Y88750D01*
X331252D01*
X333751D02*
X336250Y86251D01*
X338750Y92499D02*
X339999Y93749D01*
X342498D01*
X343748Y92499D01*
Y91250D01*
X342498Y90000D01*
X341249D01*
X342498D01*
X343748Y88750D01*
Y87501D01*
X342498Y86251D01*
X339999D01*
X338750Y87501D01*
X348752Y256251D02*
Y263749D01*
X352501D01*
X353750Y262499D01*
Y260000D01*
X352501Y258750D01*
X348752D01*
X351251D02*
X353750Y256251D01*
X361248D02*
X356250D01*
X361248Y261250D01*
Y262499D01*
X359998Y263749D01*
X357499D01*
X356250Y262499D01*
X662502Y286251D02*
Y293749D01*
X666250D01*
X667500Y292499D01*
Y290000D01*
X666250Y288750D01*
X662502D01*
X665001D02*
X667500Y286251D01*
X669999D02*
X672498D01*
X671249D01*
Y293749D01*
X669999Y292499D01*
X55000Y192501D02*
Y197499D01*
X53750Y198749D01*
X51251D01*
X50002Y197499D01*
Y192501D01*
X51251Y191251D01*
X53750D01*
X52501Y193750D02*
X55000Y191251D01*
X53750D02*
X55000Y192501D01*
X57499Y191251D02*
X59998D01*
X58749D01*
Y198749D01*
X57499Y197499D01*
X695002Y36251D02*
Y43749D01*
X698750D01*
X700000Y42499D01*
Y40000D01*
X698750Y38750D01*
X695002D01*
X702499Y36251D02*
X704998D01*
X703749D01*
Y43749D01*
X702499Y42499D01*
X155000Y53749D02*
X152501D01*
X153750D01*
Y47501D01*
X152501Y46251D01*
X151251D01*
X150002Y47501D01*
X157499Y46251D02*
X159998D01*
X158749D01*
Y53749D01*
X157499Y52499D01*
X195335Y67333D02*
X194168Y68499D01*
X191836D01*
X190670Y67333D01*
Y62667D01*
X191836Y61501D01*
X194168D01*
X195335Y62667D01*
X197667Y67333D02*
X198834Y68499D01*
X201166D01*
X202333Y67333D01*
Y66166D01*
X201166Y65000D01*
X202333Y63834D01*
Y62667D01*
X201166Y61501D01*
X198834D01*
X197667Y62667D01*
Y63834D01*
X198834Y65000D01*
X197667Y66166D01*
Y67333D01*
X198834Y65000D02*
X201166D01*
X209330Y61501D02*
X204665D01*
X209330Y66166D01*
Y67333D01*
X208164Y68499D01*
X205832D01*
X204665Y67333D01*
X425002Y172499D02*
X423752Y173749D01*
X421253D01*
X420003Y172499D01*
Y167501D01*
X421253Y166251D01*
X423752D01*
X425002Y167501D01*
X432499Y173749D02*
X430000Y172499D01*
X427501Y170000D01*
Y167501D01*
X428750Y166251D01*
X431250D01*
X432499Y167501D01*
Y168750D01*
X431250Y170000D01*
X427501D01*
X439997Y166251D02*
X434998D01*
X439997Y171250D01*
Y172499D01*
X438747Y173749D01*
X436248D01*
X434998Y172499D01*
X425335Y92333D02*
X424169Y93499D01*
X421836D01*
X420670Y92333D01*
Y87667D01*
X421836Y86501D01*
X424169D01*
X425335Y87667D01*
X432333Y93499D02*
X427667D01*
Y90000D01*
X430000Y91166D01*
X431166D01*
X432333Y90000D01*
Y87667D01*
X431166Y86501D01*
X428834D01*
X427667Y87667D01*
X439330Y86501D02*
X434665D01*
X439330Y91166D01*
Y92333D01*
X438164Y93499D01*
X435831D01*
X434665Y92333D01*
X576876Y247499D02*
X575626Y248749D01*
X573127D01*
X571878Y247499D01*
Y242501D01*
X573127Y241251D01*
X575626D01*
X576876Y242501D01*
X579375Y241251D02*
X581874D01*
X580625D01*
Y248749D01*
X579375Y247499D01*
X585623Y241251D02*
X588122D01*
X586873D01*
Y248749D01*
X585623Y247499D01*
X628750Y102499D02*
X627501Y103749D01*
X625002D01*
X623752Y102499D01*
Y97501D01*
X625002Y96251D01*
X627501D01*
X628750Y97501D01*
X631250D02*
X632499Y96251D01*
X634998D01*
X636248Y97501D01*
Y102499D01*
X634998Y103749D01*
X632499D01*
X631250Y102499D01*
Y101250D01*
X632499Y100000D01*
X636248D01*
X238750Y84999D02*
X237501Y86249D01*
X235002D01*
X233752Y84999D01*
Y80001D01*
X235002Y78751D01*
X237501D01*
X238750Y80001D01*
X241250Y84999D02*
X242499Y86249D01*
X244998D01*
X246248Y84999D01*
Y83750D01*
X244998Y82500D01*
X246248Y81250D01*
Y80001D01*
X244998Y78751D01*
X242499D01*
X241250Y80001D01*
Y81250D01*
X242499Y82500D01*
X241250Y83750D01*
Y84999D01*
X242499Y82500D02*
X244998D01*
X336250Y62499D02*
X335001Y63749D01*
X332502D01*
X331252Y62499D01*
Y57501D01*
X332502Y56251D01*
X335001D01*
X336250Y57501D01*
X338750Y63749D02*
X343748D01*
Y62499D01*
X338750Y57501D01*
Y56251D01*
X468750Y169999D02*
X467501Y171249D01*
X465002D01*
X463752Y169999D01*
Y165001D01*
X465002Y163751D01*
X467501D01*
X468750Y165001D01*
X476248Y171249D02*
X473749Y169999D01*
X471250Y167500D01*
Y165001D01*
X472499Y163751D01*
X474998D01*
X476248Y165001D01*
Y166250D01*
X474998Y167500D01*
X471250D01*
X468750Y82499D02*
X467501Y83749D01*
X465002D01*
X463752Y82499D01*
Y77501D01*
X465002Y76251D01*
X467501D01*
X468750Y77501D01*
X476248Y83749D02*
X471250D01*
Y80000D01*
X473749Y81250D01*
X474998D01*
X476248Y80000D01*
Y77501D01*
X474998Y76251D01*
X472499D01*
X471250Y77501D01*
X551250Y74999D02*
X550001Y76249D01*
X547502D01*
X546252Y74999D01*
Y70001D01*
X547502Y68751D01*
X550001D01*
X551250Y70001D01*
X557498Y68751D02*
Y76249D01*
X553750Y72500D01*
X558748D01*
X538750Y172499D02*
X537501Y173749D01*
X535002D01*
X533752Y172499D01*
Y167501D01*
X535002Y166251D01*
X537501D01*
X538750Y167501D01*
X541250Y172499D02*
X542499Y173749D01*
X544998D01*
X546248Y172499D01*
Y171250D01*
X544998Y170000D01*
X543749D01*
X544998D01*
X546248Y168750D01*
Y167501D01*
X544998Y166251D01*
X542499D01*
X541250Y167501D01*
X353750Y292499D02*
X352501Y293749D01*
X350002D01*
X348752Y292499D01*
Y287501D01*
X350002Y286251D01*
X352501D01*
X353750Y287501D01*
X361248Y286251D02*
X356250D01*
X361248Y291250D01*
Y292499D01*
X359998Y293749D01*
X357499D01*
X356250Y292499D01*
X560000Y292333D02*
X558834Y293499D01*
X556501D01*
X555335Y292333D01*
Y287667D01*
X556501Y286501D01*
X558834D01*
X560000Y287667D01*
X562333Y286501D02*
X564665D01*
X563499D01*
Y293499D01*
X562333Y292333D01*
D15*
X112500Y313326D02*
Y295831D01*
X124163D01*
X132910Y307494D02*
X138742D01*
X141657Y304579D01*
Y295831D01*
X132910D01*
X129994Y298747D01*
X132910Y301663D01*
X141657D01*
X147489Y295831D02*
X156236D01*
X159151Y298747D01*
X156236Y301663D01*
X150404D01*
X147489Y304579D01*
X150404Y307494D01*
X159151D01*
X173730Y295831D02*
X167899D01*
X164983Y298747D01*
Y304579D01*
X167899Y307494D01*
X173730D01*
X176646Y304579D01*
Y301663D01*
X164983D01*
X182477Y307494D02*
Y295831D01*
Y301663D01*
X185393Y304579D01*
X188309Y307494D01*
X191224D01*
X199972Y313326D02*
X211635D01*
X205803D01*
Y295831D01*
X220382Y307494D02*
X226213D01*
X229129Y304579D01*
Y295831D01*
X220382D01*
X217466Y298747D01*
X220382Y301663D01*
X229129D01*
X240792Y290000D02*
X243707D01*
X246623Y292916D01*
Y307494D01*
X237876D01*
X234960Y304579D01*
Y298747D01*
X237876Y295831D01*
X246623D01*
M02*
