G04*
G04 #@! TF.GenerationSoftware,Altium Limited,Altium Designer,23.5.1 (21)*
G04*
G04 Layer_Color=32896*
%FSLAX44Y44*%
%MOMM*%
G71*
G04*
G04 #@! TF.SameCoordinates,35B5D5DF-691F-4145-AC45-C5A972FF8827*
G04*
G04*
G04 #@! TF.FilePolarity,Positive*
G04*
G01*
G75*
%ADD10C,0.2000*%
%ADD11C,0.2500*%
%ADD13C,0.1500*%
%ADD14C,0.2540*%
%ADD37C,0.1270*%
D10*
X581000Y120000D02*
G03*
X581000Y120000I-1000J0D01*
G01*
D11*
X216750Y160000D02*
G03*
X216750Y160000I-1250J0D01*
G01*
D13*
X279750D02*
G03*
X279750Y160000I-29750J0D01*
G01*
D14*
X256248Y146249D02*
Y138751D01*
X252499D01*
X251250Y140001D01*
Y144999D01*
X252499Y146249D01*
X256248D01*
X243752Y138751D02*
X248750D01*
X243752Y143750D01*
Y144999D01*
X245002Y146249D01*
X247501D01*
X248750Y144999D01*
X584998Y163749D02*
Y156251D01*
X581250D01*
X580000Y157501D01*
Y162499D01*
X581250Y163749D01*
X584998D01*
X577501Y156251D02*
X575002D01*
X576251D01*
Y163749D01*
X577501Y162499D01*
D37*
X601500Y136750D02*
Y183250D01*
X590700Y136750D02*
X601500D01*
X558500D02*
Y183250D01*
X590700D02*
X601500D01*
X558500Y136750D02*
X569300D01*
X558500Y183250D02*
X569300D01*
M02*
