G04*
G04 #@! TF.GenerationSoftware,Altium Limited,Altium Designer,23.5.1 (21)*
G04*
G04 Layer_Physical_Order=2*
G04 Layer_Color=16711680*
%FSLAX44Y44*%
%MOMM*%
G71*
G04*
G04 #@! TF.SameCoordinates,35B5D5DF-691F-4145-AC45-C5A972FF8827*
G04*
G04*
G04 #@! TF.FilePolarity,Positive*
G04*
G01*
G75*
%ADD16C,1.5700*%
%ADD17R,1.7000X1.7000*%
%ADD18C,1.7000*%
%ADD19R,1.5000X1.5000*%
%ADD20C,1.5000*%
%ADD21R,1.2000X1.2000*%
%ADD22C,1.2000*%
%ADD23C,1.4500*%
%ADD24R,1.3500X1.3500*%
%ADD25C,1.3500*%
%ADD26R,1.4000X1.4000*%
%ADD27C,1.4000*%
%ADD28C,1.3000*%
%ADD29R,1.3000X1.3000*%
%ADD30R,1.3500X1.3500*%
%ADD31R,1.2000X1.2000*%
%ADD32C,1.6000*%
G04:AMPARAMS|DCode=33|XSize=1.6mm|YSize=1.6mm|CornerRadius=0.4mm|HoleSize=0mm|Usage=FLASHONLY|Rotation=0.000|XOffset=0mm|YOffset=0mm|HoleType=Round|Shape=RoundedRectangle|*
%AMROUNDEDRECTD33*
21,1,1.6000,0.8000,0,0,0.0*
21,1,0.8000,1.6000,0,0,0.0*
1,1,0.8000,0.4000,-0.4000*
1,1,0.8000,-0.4000,-0.4000*
1,1,0.8000,-0.4000,0.4000*
1,1,0.8000,0.4000,0.4000*
%
%ADD33ROUNDEDRECTD33*%
%ADD34R,1.3000X1.3000*%
%ADD35C,0.3050*%
D16*
X242500Y215000D02*
D03*
X710000Y217500D02*
D03*
D17*
X237300Y160000D02*
D03*
D18*
X262700D02*
D03*
D19*
X580000Y134500D02*
D03*
X363100Y198100D02*
D03*
D20*
X580000Y185500D02*
D03*
X286900Y121900D02*
D03*
X312300D02*
D03*
X337700D02*
D03*
X363100D02*
D03*
X286900Y198100D02*
D03*
X312300D02*
D03*
X337700D02*
D03*
D21*
X240000Y95000D02*
D03*
X430000Y182500D02*
D03*
Y102500D02*
D03*
X200000Y97500D02*
D03*
X470000Y202500D02*
D03*
Y115000D02*
D03*
D22*
X240000Y70000D02*
D03*
X430000Y157500D02*
D03*
Y77500D02*
D03*
X200000Y47500D02*
D03*
X547500Y290000D02*
D03*
X555000Y250000D02*
D03*
X470000Y152500D02*
D03*
Y65000D02*
D03*
D23*
X67206Y147300D02*
D03*
X79906Y160000D02*
D03*
X67206Y172700D02*
D03*
D24*
X200000Y205000D02*
D03*
X50000Y25000D02*
D03*
X90000D02*
D03*
X650000Y165000D02*
D03*
X680000Y65000D02*
D03*
X390000Y35000D02*
D03*
Y145000D02*
D03*
D25*
X200000Y115000D02*
D03*
X50000Y115000D02*
D03*
X90000D02*
D03*
X365000Y60000D02*
D03*
Y90000D02*
D03*
X605000Y290000D02*
D03*
X650000Y255000D02*
D03*
X680000Y155000D02*
D03*
X525000Y240000D02*
D03*
X390000Y125000D02*
D03*
Y235000D02*
D03*
X385000Y290000D02*
D03*
Y260000D02*
D03*
D26*
X630000Y84600D02*
D03*
D27*
Y135400D02*
D03*
D28*
X127500Y30000D02*
D03*
X540000Y90000D02*
D03*
X527500Y187500D02*
D03*
D29*
X147500Y30000D02*
D03*
D30*
X275000Y60000D02*
D03*
Y90000D02*
D03*
X695000Y290000D02*
D03*
X435000Y240000D02*
D03*
X295000Y290000D02*
D03*
Y260000D02*
D03*
D31*
X572500Y290000D02*
D03*
X605000Y250000D02*
D03*
D32*
X624600Y30000D02*
D03*
X650000D02*
D03*
X675400D02*
D03*
D33*
X599200D02*
D03*
D34*
X540000Y55000D02*
D03*
X527500Y152500D02*
D03*
D35*
X435000Y205000D02*
Y240000D01*
X450000Y97500D02*
Y190000D01*
X435000Y205000D02*
X450000Y190000D01*
X430000Y77500D02*
X450000Y97500D01*
X555000Y20000D02*
X580000Y45000D01*
X365000Y32500D02*
X377500Y20000D01*
X555000D01*
X102500Y12500D02*
X581700D01*
X90000Y25000D02*
Y25000D01*
X581700Y12500D02*
X599200Y30000D01*
X95225Y19775D02*
X102500Y12500D01*
X332900Y121900D02*
X364800Y90000D01*
X580000Y45000D02*
X635000D01*
X365000Y60000D02*
Y90000D01*
Y32500D02*
Y60000D01*
X90000Y25000D02*
X95225Y19775D01*
X95225D01*
X281900Y198100D02*
X331300Y247500D01*
X402853D01*
X410353Y240000D01*
X295000Y290000D02*
X307500Y302500D01*
X535000D02*
X547500Y290000D01*
X307500Y302500D02*
X535000D01*
X527500Y152500D02*
Y170000D01*
X575000Y217500D02*
X710000D01*
X527500Y170000D02*
X575000Y217500D01*
X410353Y240000D02*
X435000D01*
X200000Y205000D02*
X225000Y180000D01*
X340000D01*
X358100Y198100D01*
X635000Y45000D02*
X650000Y30000D01*
X364800Y90000D02*
X365000D01*
M02*
