G04*
G04 #@! TF.GenerationSoftware,Altium Limited,Altium Designer,23.5.1 (21)*
G04*
G04 Layer_Physical_Order=1*
G04 Layer_Color=255*
%FSLAX44Y44*%
%MOMM*%
G71*
G04*
G04 #@! TF.SameCoordinates,35B5D5DF-691F-4145-AC45-C5A972FF8827*
G04*
G04*
G04 #@! TF.FilePolarity,Positive*
G04*
G01*
G75*
%ADD16C,1.5700*%
%ADD17R,1.7000X1.7000*%
%ADD18C,1.7000*%
%ADD19R,1.5000X1.5000*%
%ADD20C,1.5000*%
%ADD21R,1.2000X1.2000*%
%ADD22C,1.2000*%
%ADD23C,1.4500*%
%ADD24R,1.3500X1.3500*%
%ADD25C,1.3500*%
%ADD26R,1.4000X1.4000*%
%ADD27C,1.4000*%
%ADD28C,1.3000*%
%ADD29R,1.3000X1.3000*%
%ADD30R,1.3500X1.3500*%
%ADD31R,1.2000X1.2000*%
%ADD32C,1.6000*%
G04:AMPARAMS|DCode=33|XSize=1.6mm|YSize=1.6mm|CornerRadius=0.4mm|HoleSize=0mm|Usage=FLASHONLY|Rotation=0.000|XOffset=0mm|YOffset=0mm|HoleType=Round|Shape=RoundedRectangle|*
%AMROUNDEDRECTD33*
21,1,1.6000,0.8000,0,0,0.0*
21,1,0.8000,1.6000,0,0,0.0*
1,1,0.8000,0.4000,-0.4000*
1,1,0.8000,-0.4000,-0.4000*
1,1,0.8000,-0.4000,0.4000*
1,1,0.8000,0.4000,0.4000*
%
%ADD33ROUNDEDRECTD33*%
%ADD34R,1.3000X1.3000*%
%ADD35C,0.3050*%
%ADD36C,0.5080*%
D16*
X242500Y215000D02*
D03*
X710000Y217500D02*
D03*
D17*
X237300Y160000D02*
D03*
D18*
X262700D02*
D03*
D19*
X580000Y134500D02*
D03*
X363100Y198100D02*
D03*
D20*
X580000Y185500D02*
D03*
X286900Y121900D02*
D03*
X312300D02*
D03*
X337700D02*
D03*
X363100D02*
D03*
X286900Y198100D02*
D03*
X312300D02*
D03*
X337700D02*
D03*
D21*
X240000Y95000D02*
D03*
X430000Y182500D02*
D03*
Y102500D02*
D03*
X200000Y97500D02*
D03*
X470000Y202500D02*
D03*
Y115000D02*
D03*
D22*
X240000Y70000D02*
D03*
X430000Y157500D02*
D03*
Y77500D02*
D03*
X200000Y47500D02*
D03*
X547500Y290000D02*
D03*
X555000Y250000D02*
D03*
X470000Y152500D02*
D03*
Y65000D02*
D03*
D23*
X67206Y147300D02*
D03*
X79906Y160000D02*
D03*
X67206Y172700D02*
D03*
D24*
X200000Y205000D02*
D03*
X50000Y25000D02*
D03*
X90000D02*
D03*
X650000Y165000D02*
D03*
X680000Y65000D02*
D03*
X390000Y35000D02*
D03*
Y145000D02*
D03*
D25*
X200000Y115000D02*
D03*
X50000Y115000D02*
D03*
X90000D02*
D03*
X365000Y60000D02*
D03*
Y90000D02*
D03*
X605000Y290000D02*
D03*
X650000Y255000D02*
D03*
X680000Y155000D02*
D03*
X525000Y240000D02*
D03*
X390000Y125000D02*
D03*
Y235000D02*
D03*
X385000Y290000D02*
D03*
Y260000D02*
D03*
D26*
X630000Y84600D02*
D03*
D27*
Y135400D02*
D03*
D28*
X127500Y30000D02*
D03*
X540000Y90000D02*
D03*
X527500Y187500D02*
D03*
D29*
X147500Y30000D02*
D03*
D30*
X275000Y60000D02*
D03*
Y90000D02*
D03*
X695000Y290000D02*
D03*
X435000Y240000D02*
D03*
X295000Y290000D02*
D03*
Y260000D02*
D03*
D31*
X572500Y290000D02*
D03*
X605000Y250000D02*
D03*
D32*
X624600Y30000D02*
D03*
X650000D02*
D03*
X675400D02*
D03*
D33*
X599200D02*
D03*
D34*
X540000Y55000D02*
D03*
X527500Y152500D02*
D03*
D35*
X350000Y18190D02*
X360690Y7500D01*
X652900D01*
X675400Y30000D01*
X191080Y173600D02*
X214161Y196681D01*
X281900D02*
X283319Y198100D01*
X214161Y196681D02*
X281900D01*
X283319Y198100D02*
X286900D01*
X295000Y243562D02*
X335177Y203384D01*
X295000Y260000D02*
Y290000D01*
Y243562D02*
Y260000D01*
X335177Y200578D02*
Y203384D01*
X332700Y198100D02*
X335177Y200578D01*
X358100Y198100D02*
Y225600D01*
X383792Y258792D02*
X385000Y260000D01*
X358100Y225600D02*
X383792Y251292D01*
Y258792D01*
X385000Y260000D02*
Y290000D01*
X293955Y310000D02*
X422500D01*
X435000Y240000D02*
Y297500D01*
X422500Y310000D02*
X435000Y297500D01*
X281900Y297945D02*
X293955Y310000D01*
X350000Y108800D02*
X363100Y121900D01*
X350000Y18190D02*
Y108800D01*
X437422Y152500D02*
X527500D01*
X432422Y157500D02*
X437422Y152500D01*
X527500Y187500D02*
X582500D01*
X512500Y202500D02*
X527500Y187500D01*
X470000Y202500D02*
X512500D01*
X582500Y187500D02*
X650000Y255000D01*
X450000Y202500D02*
X470000D01*
X442500Y195000D02*
Y195000D01*
X450000Y202500D01*
X430000Y157500D02*
X432422D01*
X532500Y122500D02*
Y147500D01*
Y122500D02*
X540000Y115000D01*
Y90000D02*
Y115000D01*
X527500Y152500D02*
X532500Y147500D01*
X495000Y90000D02*
X540000D01*
X525000Y240000D02*
Y297500D01*
X537500Y310000D02*
X693213D01*
X525000Y297500D02*
X537500Y310000D01*
X695000Y290000D02*
Y308213D01*
X693213Y310000D02*
X695000Y308213D01*
X210000Y215000D02*
X242500D01*
X185000Y160000D02*
X237300D01*
X50000Y25000D02*
X185000Y160000D01*
X192500Y130000D02*
X232700D01*
X127500Y65000D02*
X192500Y130000D01*
X127500Y30000D02*
Y65000D01*
X281900Y121900D02*
Y172700D01*
Y121900D02*
X297500Y137500D01*
X281900Y198100D02*
X284377Y200578D01*
X68106Y173600D02*
X191080D01*
X159310Y18190D02*
X350000D01*
X675400Y30000D02*
Y60400D01*
X377500Y137500D02*
X390000Y125000D01*
X297500Y137500D02*
X377500D01*
X232700Y130000D02*
X262700Y160000D01*
X281900Y172700D02*
X307300Y198100D01*
X695000Y249500D02*
Y290000D01*
X284377Y200578D02*
Y203384D01*
X281900Y205862D02*
X284377Y203384D01*
X281900Y205862D02*
Y297945D01*
X527500Y152500D02*
X530000D01*
X200000Y205000D02*
X210000Y215000D01*
X530000Y152500D02*
X532500Y150000D01*
X547500Y257500D02*
Y290000D01*
Y257500D02*
X555000Y250000D01*
X605000Y250000D02*
Y290000D01*
Y250000D02*
X605000Y250000D01*
X572500Y290000D02*
X605000D01*
X580000Y134500D02*
X695000Y249500D01*
X200000Y97500D02*
Y115000D01*
X202500Y95000D02*
X240000D01*
X200000Y97500D02*
X202500Y95000D01*
X250000Y60000D02*
X275000D01*
X240000Y70000D02*
X250000Y60000D01*
X200000Y47500D02*
X217500D01*
X240000Y70000D01*
X272500Y92500D02*
X275000Y90000D01*
Y60000D02*
Y90000D01*
X306900Y121900D02*
X307300D01*
X275000Y90000D02*
X306900Y121900D01*
X147500Y30000D02*
X159310Y18190D01*
X599600Y55000D02*
X624600Y30000D01*
X540000Y55000D02*
X599600D01*
X390000Y35000D02*
X430000Y75000D01*
Y77500D01*
X79906Y160000D02*
X90000Y149906D01*
Y115000D02*
Y149906D01*
X50000Y115000D02*
X67206Y132206D01*
Y147300D01*
X624600Y30000D02*
Y79200D01*
X630000Y84600D01*
X470000Y65000D02*
X530000D01*
X540000Y55000D01*
X430000Y77500D02*
X457500D01*
X470000Y65000D01*
X390000Y125000D02*
Y145000D01*
X442500Y115000D02*
X470000D01*
X430000Y102500D02*
X442500Y115000D01*
X470000D02*
X495000Y90000D01*
X390000Y145000D02*
X417500D01*
X430000Y157500D01*
Y182500D02*
Y195000D01*
X390000Y235000D02*
X430000Y195000D01*
Y182500D02*
X442500Y195000D01*
X650000Y155400D02*
Y165000D01*
X630000Y135400D02*
X650000Y155400D01*
X670000Y165000D02*
X680000Y155000D01*
X650000Y165000D02*
X670000D01*
X675400Y60400D02*
X680000Y65000D01*
D36*
X281900Y198100D02*
X284377D01*
X286900D01*
X67206Y172700D02*
X68106Y173600D01*
M02*
